<svg width="147" height="42" viewBox="0 0 147 42" fill="none" xmlns="http://www.w3.org/2000/svg">
<path d="M7.57739 30.1768V41.875H6.7372C6.53541 41.875 6.41066 41.7757 6.35563 41.5809L6.22721 40.603C5.88233 41.0147 5.49343 41.3493 5.05315 41.6029C4.61288 41.8566 4.10657 41.9853 3.53054 41.9853C3.07193 41.9853 2.65367 41.897 2.27943 41.7206C1.9052 41.5441 1.586 41.2831 1.32184 40.9375C1.05768 40.5919 0.855883 40.1655 0.712794 39.6508C0.569705 39.1361 0.5 38.5479 0.5 37.8788C0.5 37.2869 0.580715 36.7317 0.738479 36.2244C0.896244 35.7171 1.12372 35.2685 1.4209 34.8935C1.71809 34.5186 2.08131 34.2208 2.51058 34.0075C2.93985 33.7943 3.42782 33.6877 3.96715 33.6877C4.45879 33.6877 4.88072 33.7723 5.23293 33.9377C5.58515 34.1031 5.89701 34.3347 6.17218 34.6325V30.1768H7.58473H7.57739ZM6.16484 35.7428C5.90068 35.3899 5.6145 35.1399 5.30998 35.0002C5.00179 34.8605 4.66058 34.7906 4.27901 34.7906C3.53421 34.7906 2.96186 35.059 2.55827 35.5921C2.15469 36.1251 1.95657 36.8898 1.95657 37.8788C1.95657 38.4045 2.0006 38.853 2.09232 39.2243C2.18404 39.5956 2.31246 39.9044 2.48857 40.1471C2.66101 40.3897 2.87747 40.5625 3.13063 40.6765C3.38379 40.7905 3.67364 40.8419 3.9965 40.8419C4.46246 40.8419 4.86604 40.7353 5.21459 40.5258C5.55947 40.3125 5.87867 40.0147 6.16852 39.6287V35.7428H6.16484Z" fill="white"/>
<path d="M19.9745 40.7502C19.8021 40.9635 19.593 41.1473 19.3471 41.3017C19.1013 41.4561 18.8445 41.5848 18.5657 41.6877C18.2868 41.787 18.0006 41.8642 17.7071 41.9156C17.4099 41.9671 17.1164 41.9929 16.8266 41.9929C16.2726 41.9929 15.7589 41.8973 15.293 41.7098C14.827 41.5223 14.4198 41.2465 14.0822 40.8826C13.741 40.5186 13.4768 40.0701 13.2861 39.537C13.0953 39.004 12.9999 38.39 12.9999 37.6952C12.9999 37.1327 13.0843 36.6106 13.2567 36.1217C13.4291 35.6327 13.675 35.2136 13.9978 34.8533C14.3207 34.4967 14.7133 34.2136 15.1792 34.0114C15.6452 33.8092 16.1662 33.7063 16.7495 33.7063C17.2302 33.7063 17.6741 33.7872 18.085 33.9489C18.496 34.1107 18.8482 34.3423 19.1454 34.6475C19.4425 34.9526 19.6774 35.3276 19.8461 35.7761C20.0149 36.2246 20.0993 36.732 20.0993 37.3055C20.0993 37.5297 20.0773 37.6768 20.0296 37.7503C19.9819 37.8238 19.8938 37.8606 19.7617 37.8606H14.3941C14.4088 38.3679 14.4785 38.8128 14.6032 39.1878C14.7279 39.5628 14.9004 39.8789 15.1205 40.1289C15.3443 40.3789 15.6085 40.5701 15.913 40.6914C16.2175 40.8127 16.5624 40.8789 16.944 40.8789C17.2999 40.8789 17.6044 40.8385 17.8612 40.7576C18.1181 40.6767 18.3382 40.5885 18.5216 40.4929C18.7051 40.3973 18.8629 40.3091 18.9876 40.2282C19.1123 40.1473 19.2187 40.1032 19.3068 40.1032C19.4242 40.1032 19.5123 40.1473 19.5746 40.2392L19.9709 40.7539L19.9745 40.7502ZM18.8335 36.9783C18.8335 36.6511 18.7895 36.3496 18.6941 36.0776C18.5987 35.8055 18.4666 35.5702 18.2905 35.3717C18.1144 35.1732 17.8979 35.0188 17.6448 34.9121C17.3916 34.8055 17.1018 34.7504 16.7789 34.7504C16.1038 34.7504 15.5681 34.9489 15.1719 35.3423C14.7793 35.7357 14.5335 36.2834 14.4381 36.982H18.8298L18.8335 36.9783Z" fill="white"/>
<path d="M34.9732 31.3055C34.9732 31.4415 34.9439 31.5702 34.8888 31.6915C34.8338 31.8091 34.7604 31.9157 34.665 32.0113C34.5733 32.1032 34.4633 32.1768 34.3422 32.2282C34.2174 32.2797 34.0854 32.3091 33.9496 32.3091C33.8139 32.3091 33.6854 32.2834 33.5644 32.2282C33.447 32.1768 33.3406 32.1032 33.2525 32.0113C33.1608 31.9194 33.0911 31.8128 33.0397 31.6915C32.9883 31.5738 32.959 31.4452 32.959 31.3055C32.959 31.1658 32.9847 31.0371 33.0397 30.9121C33.0911 30.7871 33.1644 30.6805 33.2525 30.5849C33.3406 30.493 33.447 30.4195 33.5644 30.368C33.6854 30.3165 33.8102 30.2871 33.9496 30.2871C34.089 30.2871 34.2174 30.3128 34.3422 30.368C34.4669 30.4195 34.5733 30.493 34.665 30.5849C34.7568 30.6768 34.8301 30.7871 34.8888 30.9121C34.9439 31.0371 34.9732 31.1658 34.9732 31.3055ZM34.6724 33.8311V41.8787H33.2598V33.8311H34.6724Z" fill="white"/>
<path d="M41.9665 35.0004C42.1426 34.8055 42.326 34.6254 42.5205 34.4673C42.7149 34.3092 42.9241 34.1732 43.1442 34.0592C43.3643 33.9453 43.5955 33.857 43.8413 33.7982C44.0871 33.7357 44.3513 33.7063 44.6375 33.7063C45.0777 33.7063 45.463 33.7798 45.8005 33.9232C46.1381 34.0703 46.4169 34.2761 46.6407 34.5445C46.8645 34.8129 47.037 35.1327 47.1507 35.5077C47.2681 35.8827 47.3268 36.2981 47.3268 36.754V41.8789H45.9069V36.754C45.9069 36.1437 45.7675 35.6732 45.4923 35.3349C45.2135 35.0004 44.7916 34.8313 44.2265 34.8313C43.8083 34.8313 43.4194 34.9305 43.0561 35.1327C42.6929 35.3349 42.359 35.607 42.0545 35.9526V41.8789H40.6346V33.8313H41.4822C41.684 33.8313 41.8087 33.9306 41.8564 34.1254L41.9665 35.0004Z" fill="white"/>
<path d="M59.8415 33.8311L56.5688 41.8786H55.2993L52.0266 33.8311H53.175C53.2924 33.8311 53.3878 33.8605 53.4612 33.9193C53.5345 33.9781 53.5859 34.048 53.6116 34.1252L55.6479 39.3052C55.7102 39.5 55.7653 39.6912 55.813 39.8787C55.8606 40.0662 55.9047 40.25 55.9487 40.4338C55.9927 40.2463 56.0368 40.0625 56.0845 39.8787C56.1322 39.6949 56.1909 39.5037 56.2569 39.3052L58.3188 34.1252C58.3519 34.0406 58.4032 33.9708 58.4766 33.9156C58.55 33.8605 58.638 33.8311 58.7371 33.8311H59.8378H59.8415Z" fill="white"/>
<path d="M71.0831 40.7502C70.9106 40.9635 70.7015 41.1473 70.4557 41.3017C70.2098 41.4561 69.953 41.5848 69.6742 41.6877C69.3953 41.787 69.1092 41.8642 68.8156 41.9156C68.5185 41.9671 68.2249 41.9929 67.9351 41.9929C67.3811 41.9929 66.8674 41.8973 66.4015 41.7098C65.9355 41.5223 65.5283 41.2465 65.1907 40.8826C64.8495 40.5186 64.5854 40.0701 64.3946 39.537C64.2038 39.004 64.1084 38.39 64.1084 37.6952C64.1084 37.1327 64.1928 36.6106 64.3652 36.1217C64.5377 35.6327 64.7835 35.2136 65.1064 34.8533C65.4292 34.4967 65.8218 34.2136 66.2878 34.0114C66.7537 33.8092 67.2747 33.7063 67.8581 33.7063C68.3387 33.7063 68.7826 33.7872 69.1935 33.9489C69.6045 34.1107 69.9567 34.3423 70.2539 34.6475C70.5511 34.9526 70.7859 35.3276 70.9546 35.7761C71.1234 36.2246 71.2078 36.732 71.2078 37.3055C71.2078 37.5297 71.1858 37.6768 71.1381 37.7503C71.0904 37.8238 71.0023 37.8606 70.8703 37.8606H65.5026C65.5173 38.3679 65.587 38.8128 65.7117 39.1878C65.8365 39.5628 66.0089 39.8789 66.229 40.1289C66.4529 40.3789 66.717 40.5701 67.0215 40.6914C67.3261 40.8127 67.6709 40.8789 68.0525 40.8789C68.4084 40.8789 68.7129 40.8385 68.9697 40.7576C69.2266 40.6767 69.4467 40.5885 69.6302 40.4929C69.8136 40.3973 69.9714 40.3091 70.0961 40.2282C70.2209 40.1473 70.3273 40.1032 70.4153 40.1032C70.5327 40.1032 70.6208 40.1473 70.6831 40.2392L71.0794 40.7539L71.0831 40.7502ZM69.942 36.9783C69.942 36.6511 69.898 36.3496 69.8026 36.0776C69.7072 35.8055 69.5751 35.5702 69.399 35.3717C69.2229 35.1732 69.0064 35.0188 68.7533 34.9121C68.5001 34.8055 68.2103 34.7504 67.8874 34.7504C67.2123 34.7504 66.6767 34.9489 66.2804 35.3423C65.8878 35.7357 65.642 36.2834 65.5466 36.982H69.9383L69.942 36.9783Z" fill="white"/>
<path d="M77.9221 35.4414C78.1752 34.8899 78.4871 34.4598 78.8576 34.151C79.2282 33.8422 79.6795 33.6877 80.2151 33.6877C80.3839 33.6877 80.5454 33.7061 80.7031 33.7429C80.8609 33.7797 80.9966 33.8385 81.1214 33.9194L81.0186 34.9745C80.9856 35.1068 80.9086 35.173 80.7802 35.173C80.7068 35.173 80.5967 35.1583 80.4536 35.1252C80.3105 35.0921 80.1491 35.0774 79.9693 35.0774C79.7162 35.0774 79.4887 35.1142 79.2906 35.1877C79.0925 35.2612 78.9163 35.3715 78.7586 35.5186C78.6008 35.6656 78.4614 35.8458 78.3367 36.059C78.2119 36.2722 78.1018 36.5186 77.9991 36.7943V41.8787H76.5792V33.8311H77.3864C77.5405 33.8311 77.6469 33.8605 77.7056 33.9194C77.7643 33.9782 77.8047 34.0774 77.823 34.2208L77.9184 35.4451L77.9221 35.4414Z" fill="white"/>
<path d="M90.6311 35.1583C90.5688 35.2759 90.4697 35.3347 90.3376 35.3347C90.2569 35.3347 90.1689 35.3053 90.0698 35.2465C89.9707 35.1877 89.846 35.1215 89.7029 35.0517C89.5561 34.9818 89.3837 34.9156 89.1819 34.8531C88.9801 34.7906 88.7416 34.7612 88.4701 34.7612C88.2316 34.7612 88.0188 34.7906 87.8281 34.8531C87.6373 34.9156 87.4758 34.9965 87.3401 35.1031C87.2043 35.2097 87.1016 35.3311 87.0319 35.4708C86.9622 35.6105 86.9255 35.7649 86.9255 35.9266C86.9255 36.1325 86.9842 36.3053 87.1053 36.4413C87.2264 36.5773 87.3804 36.6987 87.5749 36.7979C87.7694 36.8972 87.9932 36.9891 88.2427 37.0626C88.4921 37.1362 88.7453 37.2207 89.0058 37.3089C89.2663 37.3972 89.5231 37.4928 89.7689 37.5994C90.0184 37.706 90.2386 37.8383 90.433 37.9964C90.6275 38.1545 90.7852 38.3494 90.9063 38.581C91.0237 38.8126 91.0861 39.0883 91.0861 39.4118C91.0861 39.7831 91.02 40.125 90.888 40.4412C90.7559 40.7574 90.5614 41.0294 90.3009 41.2574C90.0404 41.489 89.7249 41.6691 89.3507 41.8015C88.9764 41.9338 88.5435 42 88.0519 42C87.4905 42 86.9842 41.9081 86.5293 41.7243C86.0743 41.5405 85.6891 41.3088 85.3735 41.0221L85.7074 40.4817C85.7514 40.4118 85.7991 40.3603 85.8578 40.3236C85.9165 40.2868 85.9899 40.2684 86.0816 40.2684C86.177 40.2684 86.2761 40.3052 86.3825 40.3787C86.4889 40.4522 86.6173 40.5331 86.7677 40.625C86.9182 40.7133 87.1016 40.7978 87.3181 40.8714C87.5345 40.9449 87.806 40.9816 88.1252 40.9816C88.4004 40.9816 88.6389 40.9449 88.8444 40.875C89.0498 40.8052 89.2223 40.7059 89.358 40.5846C89.4974 40.4633 89.5965 40.3236 89.6625 40.1618C89.7286 40.0037 89.7616 39.8346 89.7616 39.6545C89.7616 39.4302 89.7029 39.2464 89.5818 39.103C89.4607 38.956 89.3066 38.831 89.1085 38.728C88.9104 38.6251 88.6903 38.5332 88.4371 38.456C88.1839 38.3788 87.9308 38.2979 87.6666 38.2133C87.4025 38.1288 87.1493 38.0332 86.8961 37.9229C86.6467 37.8163 86.4229 37.6766 86.2247 37.5148C86.0266 37.3531 85.8725 37.1472 85.7551 36.9082C85.6377 36.6656 85.5753 36.3751 85.5753 36.0296C85.5753 35.7208 85.6377 35.4266 85.7661 35.1436C85.8945 34.8605 86.078 34.6105 86.3201 34.3973C86.5623 34.184 86.8631 34.0112 87.2154 33.8862C87.5676 33.7576 87.9748 33.6951 88.4261 33.6951C88.9544 33.6951 89.4277 33.7796 89.8497 33.9451C90.2716 34.1105 90.6348 34.3421 90.9393 34.6325L90.6238 35.1472L90.6311 35.1583Z" fill="white"/>
<path d="M98.2553 31.3055C98.2553 31.4415 98.226 31.5702 98.171 31.6915C98.1159 31.8091 98.0425 31.9157 97.9472 32.0113C97.8554 32.1032 97.7454 32.1768 97.6243 32.2282C97.4995 32.2797 97.3675 32.3091 97.2317 32.3091C97.096 32.3091 96.9675 32.2834 96.8465 32.2282C96.7291 32.1768 96.6227 32.1032 96.5346 32.0113C96.4429 31.9194 96.3732 31.8128 96.3218 31.6915C96.2704 31.5738 96.2411 31.4452 96.2411 31.3055C96.2411 31.1658 96.2668 31.0371 96.3218 30.9121C96.3732 30.7871 96.4466 30.6805 96.5346 30.5849C96.6227 30.493 96.7291 30.4195 96.8465 30.368C96.9675 30.3165 97.0923 30.2871 97.2317 30.2871C97.3711 30.2871 97.4995 30.3128 97.6243 30.368C97.749 30.4195 97.8554 30.493 97.9472 30.5849C98.0389 30.6768 98.1123 30.7871 98.171 30.9121C98.226 31.0371 98.2553 31.1658 98.2553 31.3055ZM97.9545 33.8311V41.8787H96.5419V33.8311H97.9545Z" fill="white"/>
<path d="M107.299 33.7024C107.886 33.7024 108.415 33.8017 108.884 33.9965C109.354 34.1914 109.757 34.4708 110.091 34.831C110.425 35.1913 110.678 35.6288 110.854 36.1398C111.031 36.6508 111.119 37.2207 111.119 37.853C111.119 38.4854 111.031 39.0589 110.854 39.5699C110.678 40.0772 110.422 40.511 110.091 40.8713C109.757 41.2316 109.358 41.5073 108.884 41.7022C108.415 41.8934 107.886 41.9926 107.299 41.9926C106.712 41.9926 106.177 41.897 105.703 41.7022C105.23 41.5073 104.826 41.2316 104.496 40.8713C104.162 40.511 103.909 40.0772 103.733 39.5699C103.557 39.0625 103.469 38.489 103.469 37.853C103.469 37.217 103.557 36.6508 103.733 36.1398C103.909 35.6288 104.166 35.1913 104.496 34.831C104.83 34.4708 105.234 34.195 105.703 33.9965C106.173 33.798 106.709 33.7024 107.299 33.7024ZM107.299 40.8824C108.092 40.8824 108.682 40.6177 109.075 40.0846C109.468 39.5515 109.662 38.8089 109.662 37.8567C109.662 36.9045 109.468 36.1509 109.075 35.6178C108.682 35.0847 108.092 34.8163 107.299 34.8163C106.896 34.8163 106.547 34.8862 106.25 35.0222C105.953 35.1582 105.703 35.3568 105.505 35.6178C105.307 35.8788 105.16 36.195 105.061 36.5736C104.962 36.9523 104.914 37.3788 104.914 37.8567C104.914 38.8089 105.113 39.5515 105.505 40.0846C105.898 40.6177 106.496 40.8824 107.299 40.8824Z" fill="white"/>
<path d="M117.884 35.0004C118.06 34.8055 118.244 34.6254 118.438 34.4673C118.633 34.3092 118.842 34.1732 119.062 34.0592C119.282 33.9453 119.513 33.857 119.759 33.7982C120.005 33.7357 120.269 33.7063 120.555 33.7063C120.995 33.7063 121.381 33.7798 121.718 33.9232C122.056 34.0703 122.335 34.2761 122.558 34.5445C122.782 34.8129 122.955 35.1327 123.068 35.5077C123.186 35.8827 123.245 36.2981 123.245 36.754V41.8789H121.825V36.754C121.825 36.1437 121.685 35.6732 121.41 35.3349C121.131 35.0004 120.709 34.8313 120.144 34.8313C119.726 34.8313 119.337 34.9305 118.974 35.1327C118.611 35.3349 118.277 35.607 117.972 35.9526V41.8789H116.552V33.8313H117.4C117.602 33.8313 117.726 33.9306 117.774 34.1254L117.884 35.0004Z" fill="white"/>
<path d="M135.558 40.7502C135.385 40.9635 135.176 41.1473 134.93 41.3017C134.684 41.4561 134.428 41.5848 134.149 41.6877C133.87 41.787 133.584 41.8642 133.29 41.9156C132.993 41.9671 132.699 41.9929 132.41 41.9929C131.856 41.9929 131.342 41.8973 130.876 41.7098C130.41 41.5223 130.003 41.2465 129.665 40.8826C129.324 40.5186 129.06 40.0701 128.869 39.537C128.678 39.004 128.583 38.39 128.583 37.6952C128.583 37.1327 128.667 36.6106 128.84 36.1217C129.012 35.6327 129.258 35.2136 129.581 34.8533C129.904 34.4967 130.296 34.2136 130.762 34.0114C131.228 33.8092 131.749 33.7063 132.333 33.7063C132.813 33.7063 133.257 33.7872 133.668 33.9489C134.079 34.1107 134.431 34.3423 134.728 34.6475C135.026 34.9526 135.26 35.3276 135.429 35.7761C135.598 36.2246 135.682 36.732 135.682 37.3055C135.682 37.5297 135.66 37.6768 135.613 37.7503C135.565 37.8238 135.477 37.8606 135.345 37.8606H129.977C129.992 38.3679 130.061 38.8128 130.186 39.1878C130.311 39.5628 130.483 39.8789 130.704 40.1289C130.927 40.3789 131.192 40.5701 131.496 40.6914C131.801 40.8127 132.145 40.8789 132.527 40.8789C132.883 40.8789 133.187 40.8385 133.444 40.7576C133.701 40.6767 133.921 40.5885 134.105 40.4929C134.288 40.3973 134.446 40.3091 134.571 40.2282C134.695 40.1473 134.802 40.1032 134.89 40.1032C135.007 40.1032 135.095 40.1473 135.158 40.2392L135.554 40.7539L135.558 40.7502ZM134.417 36.9783C134.417 36.6511 134.372 36.3496 134.277 36.0776C134.182 35.8055 134.05 35.5702 133.874 35.3717C133.697 35.1732 133.481 35.0188 133.228 34.9121C132.975 34.8055 132.685 34.7504 132.362 34.7504C131.687 34.7504 131.151 34.9489 130.755 35.3423C130.362 35.7357 130.117 36.2834 130.021 36.982H134.413L134.417 36.9783Z" fill="white"/>
<path d="M145.739 35.1583C145.676 35.2759 145.577 35.3347 145.445 35.3347C145.365 35.3347 145.277 35.3053 145.177 35.2465C145.078 35.1877 144.954 35.1215 144.811 35.0517C144.664 34.9818 144.491 34.9156 144.29 34.8531C144.088 34.7906 143.849 34.7612 143.578 34.7612C143.339 34.7612 143.127 34.7906 142.936 34.8531C142.745 34.9156 142.584 34.9965 142.448 35.1031C142.312 35.2097 142.209 35.3311 142.14 35.4708C142.07 35.6105 142.033 35.7649 142.033 35.9266C142.033 36.1325 142.092 36.3053 142.213 36.4413C142.334 36.5773 142.488 36.6987 142.683 36.7979C142.877 36.8972 143.101 36.9891 143.35 37.0626C143.6 37.1362 143.853 37.2207 144.113 37.3089C144.374 37.3972 144.631 37.4928 144.877 37.5994C145.126 37.706 145.346 37.8383 145.541 37.9964C145.735 38.1545 145.893 38.3494 146.014 38.581C146.131 38.8126 146.194 39.0883 146.194 39.4118C146.194 39.7831 146.128 40.125 145.996 40.4412C145.864 40.7574 145.669 41.0294 145.409 41.2574C145.148 41.489 144.833 41.6691 144.458 41.8015C144.084 41.9338 143.651 42 143.16 42C142.598 42 142.092 41.9081 141.637 41.7243C141.182 41.5405 140.797 41.3088 140.481 41.0221L140.815 40.4817C140.859 40.4118 140.907 40.3603 140.966 40.3236C141.024 40.2868 141.098 40.2684 141.189 40.2684C141.285 40.2684 141.384 40.3052 141.49 40.3787C141.597 40.4522 141.725 40.5331 141.875 40.625C142.026 40.7133 142.209 40.7978 142.426 40.8714C142.642 40.9449 142.914 40.9816 143.233 40.9816C143.508 40.9816 143.747 40.9449 143.952 40.875C144.157 40.8052 144.33 40.7059 144.466 40.5846C144.605 40.4633 144.704 40.3236 144.77 40.1618C144.836 40.0037 144.869 39.8346 144.869 39.6545C144.869 39.4302 144.811 39.2464 144.689 39.103C144.568 38.956 144.414 38.831 144.216 38.728C144.018 38.6251 143.798 38.5332 143.545 38.456C143.292 38.3788 143.038 38.2979 142.774 38.2133C142.51 38.1288 142.257 38.0332 142.004 37.9229C141.754 37.8163 141.531 37.6766 141.332 37.5148C141.134 37.3531 140.98 37.1472 140.863 36.9082C140.745 36.6656 140.683 36.3751 140.683 36.0296C140.683 35.7208 140.745 35.4266 140.874 35.1436C141.002 34.8605 141.186 34.6105 141.428 34.3973C141.67 34.184 141.971 34.0112 142.323 33.8862C142.675 33.7576 143.082 33.6951 143.534 33.6951C144.062 33.6951 144.535 33.7796 144.957 33.9451C145.379 34.1105 145.742 34.3421 146.047 34.6325L145.731 35.1472L145.739 35.1583Z" fill="white"/>
<path d="M23.8614 23.8649H20.0789C19.6568 23.8649 19.3133 23.7654 19.0484 23.5622C18.7836 23.3631 18.5849 23.106 18.4566 22.7909L16.8675 18.2874H7.48981L5.90065 22.7909C5.79305 23.0604 5.60268 23.3092 5.33368 23.529C5.06468 23.7529 4.72119 23.8608 4.31149 23.8608H0.5L9.69973 0.265381H14.6824L23.8656 23.8608L23.8614 23.8649ZM15.6839 14.9036L13.1346 7.68403C12.9815 7.30253 12.8242 6.85882 12.6546 6.34876C12.4849 5.8387 12.3276 5.28717 12.1745 4.69003C12.0214 5.29547 11.8641 5.85943 11.6945 6.37364C11.5248 6.88784 11.3675 7.3357 11.2144 7.71306L8.68168 14.8995H15.6756L15.6839 14.9036Z" fill="white"/>
<path d="M42.2975 4.78957C42.1444 5.03838 41.9913 5.22084 41.834 5.3328C41.6767 5.44477 41.474 5.50282 41.2257 5.50282C40.9773 5.50282 40.729 5.41989 40.4559 5.24987C40.1786 5.08399 39.86 4.90153 39.4916 4.70663C39.1233 4.51173 38.7012 4.32927 38.2253 4.1634C37.7494 3.99753 37.1907 3.91045 36.5534 3.91045C35.4277 3.91045 34.5835 4.1634 34.0207 4.66517C33.4578 5.17108 33.1764 5.82627 33.1764 6.63905C33.1764 7.1574 33.3295 7.58867 33.6399 7.93286C33.9503 8.27704 34.3559 8.57146 34.8566 8.82027C35.3574 9.06908 35.9285 9.29301 36.5699 9.48791C37.2072 9.68281 37.8611 9.89845 38.5315 10.1307C39.202 10.3629 39.8558 10.6366 40.4932 10.9517C41.1305 11.2669 41.7016 11.6608 42.2065 12.1377C42.7072 12.6146 43.1169 13.1993 43.4232 13.8835C43.7294 14.5719 43.8867 15.4096 43.8867 16.3965C43.8867 17.4705 43.7004 18.4741 43.328 19.4112C42.9555 20.3484 42.4175 21.1695 41.714 21.8662C41.0105 22.567 40.1414 23.1143 39.1109 23.5166C38.0763 23.9188 36.9051 24.1179 35.5974 24.1179C34.8525 24.1179 34.1076 24.0432 33.3668 23.8898C32.626 23.7364 31.9101 23.5249 31.2231 23.2553C30.5361 22.9858 29.8905 22.6582 29.2821 22.2808C28.6779 21.9035 28.1482 21.4805 27.693 21.0119L29.1208 18.7021C29.2408 18.528 29.398 18.387 29.5925 18.2709C29.787 18.1548 29.994 18.1008 30.2092 18.1008C30.503 18.1008 30.8092 18.2087 31.132 18.4243C31.4548 18.6399 31.8314 18.8804 32.2535 19.1417C32.6757 19.4029 33.164 19.6393 33.7227 19.8591C34.2814 20.0747 34.9477 20.1825 35.7257 20.1825C36.8596 20.1825 37.7411 19.9213 38.3619 19.4029C38.9826 18.8804 39.293 18.1091 39.293 17.0766C39.293 16.4794 39.1399 15.9984 38.8295 15.6293C38.5191 15.2603 38.1177 14.9534 37.6211 14.7005C37.1245 14.4516 36.5534 14.236 35.9161 14.0577C35.2787 13.8794 34.6249 13.6803 33.9544 13.4647C33.284 13.2491 32.6301 12.9878 31.9928 12.6851C31.3555 12.3824 30.7844 11.9801 30.2878 11.4825C29.7912 10.9849 29.3856 10.367 29.0794 9.6289C28.769 8.89077 28.6159 7.97432 28.6159 6.87956C28.6159 6.00044 28.7897 5.15034 29.1373 4.32513C29.4849 3.49991 29.9898 2.77007 30.6644 2.13146C31.3389 1.49285 32.1584 0.978649 33.1392 0.584702C34.12 0.190754 35.2415 0 36.5078 0C37.9232 0 39.2351 0.219781 40.4435 0.659343C41.6519 1.09891 42.67 1.70849 43.5018 2.48809L42.3016 4.78128L42.2975 4.78957Z" fill="white"/>
<path d="M55.7884 4.08875V10.1555H63.6432V13.8462H55.7884V20.0415H65.8821V23.8608H50.8885V0.269531H65.8821V4.08875H55.7884Z" fill="white"/>
<path d="M87.7222 4.78957C87.5691 5.03838 87.4159 5.22084 87.2587 5.3328C87.1014 5.44477 86.8986 5.50282 86.6503 5.50282C86.402 5.50282 86.1537 5.41989 85.8806 5.24987C85.6033 5.08399 85.2847 4.90153 84.9163 4.70663C84.548 4.51173 84.1259 4.32927 83.65 4.1634C83.1741 3.99753 82.6154 3.91045 81.9781 3.91045C80.8524 3.91045 80.0082 4.1634 79.4453 4.66517C78.8825 5.16693 78.6011 5.82627 78.6011 6.63905C78.6011 7.1574 78.7542 7.58867 79.0646 7.93286C79.375 8.27704 79.7805 8.57146 80.2813 8.82027C80.7862 9.06908 81.3573 9.29301 81.9946 9.48791C82.6319 9.68281 83.2858 9.89845 83.9562 10.1307C84.6266 10.3629 85.2805 10.6366 85.9178 10.9517C86.5552 11.2669 87.1263 11.6608 87.6312 12.1377C88.1319 12.6146 88.5375 13.1993 88.8479 13.8835C89.1582 14.5719 89.3114 15.4096 89.3114 16.3965C89.3114 17.4705 89.1251 18.4741 88.7527 19.4112C88.3802 20.3484 87.8422 21.1695 87.1387 21.8662C86.4351 22.567 85.5661 23.1143 84.5356 23.5166C83.501 23.9188 82.3298 24.1179 81.0221 24.1179C80.2772 24.1179 79.5322 24.0432 78.7915 23.8898C78.0507 23.7364 77.3347 23.5249 76.6478 23.2553C75.9608 22.9858 75.3152 22.6582 74.7068 22.2808C74.1026 21.9035 73.5729 21.4805 73.1177 21.0119L74.5454 18.7021C74.6654 18.528 74.8227 18.387 75.0172 18.2709C75.2117 18.1589 75.4186 18.1008 75.6338 18.1008C75.9277 18.1008 76.2339 18.2087 76.5609 18.4243C76.8836 18.6399 77.2602 18.8804 77.6824 19.1417C78.1045 19.4029 78.5928 19.6393 79.1515 19.8591C79.7102 20.0747 80.3765 20.1825 81.1545 20.1825C82.2926 20.1825 83.1699 19.9213 83.7907 19.4029C84.4115 18.8804 84.7218 18.1091 84.7218 17.0766C84.7218 16.4794 84.5687 15.9984 84.2583 15.6293C83.9479 15.2603 83.5465 14.9534 83.0499 14.7005C82.5533 14.4516 81.9863 14.236 81.3449 14.0577C80.7076 13.8794 80.0537 13.6803 79.3833 13.4647C78.7128 13.2491 78.059 12.9878 77.4216 12.6851C76.7843 12.3824 76.2132 11.9801 75.7166 11.4825C75.22 10.9849 74.8144 10.367 74.5082 9.6289C74.1978 8.89077 74.0447 7.97432 74.0447 6.87956C74.0447 6.00044 74.2185 5.15034 74.562 4.32513C74.9096 3.49991 75.4186 2.77007 76.0891 2.13146C76.7595 1.49285 77.583 0.978649 78.5639 0.584702C79.5447 0.190754 80.6662 0 81.9325 0C83.3479 0 84.6598 0.219781 85.8682 0.659343C87.0766 1.09891 88.0946 1.70849 88.9265 2.48809L87.7263 4.78128L87.7222 4.78957Z" fill="white"/>
<path d="M120.449 12.0589C120.449 13.784 120.159 15.3805 119.579 16.8568C119 18.3331 118.185 19.6061 117.13 20.676C116.074 21.7459 114.808 22.5918 113.322 23.2056C111.841 23.8193 110.198 24.1262 108.389 24.1262C106.581 24.1262 104.938 23.8193 103.456 23.2056C101.975 22.5918 100.704 21.75 99.6405 20.676C98.577 19.602 97.7617 18.3289 97.1823 16.8568C96.6029 15.3847 96.3132 13.784 96.3132 12.0589C96.3132 10.3339 96.6029 8.73734 97.1823 7.26937C97.7617 5.8014 98.5811 4.52832 99.6405 3.4543C100.7 2.38028 101.97 1.53847 103.456 0.924743C104.938 0.311015 106.581 0.00415039 108.389 0.00415039C110.198 0.00415039 111.841 0.311015 113.322 0.924743C114.804 1.53847 116.074 2.38442 117.13 3.46259C118.185 4.54076 119 5.81384 119.579 7.28595C120.159 8.75393 120.449 10.3463 120.449 12.0589ZM115.466 12.0589C115.466 10.8232 115.304 9.71599 114.978 8.73319C114.651 7.7504 114.183 6.91689 113.575 6.22852C112.962 5.54015 112.221 5.0135 111.352 4.65273C110.483 4.29196 109.494 4.1095 108.389 4.1095C107.284 4.1095 106.295 4.29196 105.418 4.65273C104.54 5.0135 103.796 5.54015 103.187 6.22852C102.579 6.91689 102.107 7.7504 101.784 8.73319C101.457 9.71599 101.296 10.8232 101.296 12.0589C101.296 13.2947 101.457 14.4185 101.784 15.4013C102.107 16.3841 102.575 17.2134 103.187 17.8977C103.8 18.5819 104.545 19.1044 105.418 19.4651C106.295 19.8301 107.284 20.0084 108.389 20.0084C109.494 20.0084 110.479 19.8259 111.352 19.4651C112.221 19.1002 112.966 18.5777 113.575 17.8977C114.187 17.2134 114.655 16.3841 114.978 15.4013C115.3 14.4185 115.466 13.3071 115.466 12.0589Z" fill="white"/>
<path d="M146.496 23.8649H142.097C141.273 23.8649 140.677 23.5497 140.313 22.9236L135.835 15.6874C135.649 15.4054 135.45 15.1981 135.227 15.0695C135.003 14.941 134.676 14.8746 134.246 14.8746H132.591V23.8649H127.724V0.269531H135.123C136.766 0.269531 138.173 0.439551 139.34 0.783736C140.507 1.12377 141.468 1.60066 142.213 2.20609C142.957 2.81153 143.504 3.53722 143.851 4.37902C144.199 5.22083 144.369 6.14142 144.369 7.15324C144.369 7.93284 144.257 8.67512 144.038 9.37179C143.814 10.0726 143.495 10.7071 143.073 11.2835C142.651 11.8599 142.134 12.3658 141.517 12.8136C140.901 13.2574 140.197 13.614 139.407 13.8877C139.721 14.0618 140.011 14.2692 140.284 14.5138C140.553 14.7585 140.797 15.0488 141.017 15.3847L146.5 23.8732L146.496 23.8649ZM135.086 11.441C135.877 11.441 136.559 11.3415 137.131 11.1425C137.702 10.9434 138.173 10.6656 138.542 10.3131C138.91 9.96064 139.179 9.54595 139.353 9.06907C139.527 8.59219 139.614 8.07383 139.614 7.50987C139.614 6.39437 139.241 5.52769 138.5 4.90981C137.76 4.29194 136.63 3.98093 135.115 3.98093H132.582V11.4452H135.082L135.086 11.441Z" fill="white"/>
</svg>
