<svg width="216" height="72" viewBox="0 0 216 72" fill="none" xmlns="http://www.w3.org/2000/svg">
<g clip-path="url(#clip0_112_129)">
<path fill-rule="evenodd" clip-rule="evenodd" d="M148.347 59.2144C149.361 59.2144 150.19 60.0365 150.19 61.0414C150.19 62.0463 149.361 62.8685 148.347 62.8685C147.333 62.8685 146.504 62.0463 146.504 61.0414C146.412 60.0365 147.333 59.2144 148.347 59.2144Z" fill="#105A01"/>
<path d="M151.967 44.0828C151.967 45.6943 151.967 46.9513 152.052 47.6565C152.104 48.1425 152.203 48.5116 152.712 48.5774C152.948 48.6102 153.32 48.6431 153.56 48.6431C153.781 48.6431 153.847 48.6943 153.847 48.7783C153.847 48.8953 153.729 48.9464 153.475 48.9464C152.41 48.9464 151.341 48.8953 150.902 48.8953C150.463 48.8953 149.394 48.9464 148.753 48.9464C148.517 48.9464 148.399 48.9135 148.399 48.7783C148.399 48.6943 148.465 48.6431 148.653 48.6431C148.908 48.6431 149.11 48.6102 149.261 48.5774C149.601 48.5116 149.685 48.1425 149.752 47.6565C149.837 46.9513 149.837 45.6943 149.837 44.0828V41.1303C149.837 38.5798 149.837 38.1121 149.803 37.5749C149.77 37.0049 149.634 36.7345 149.077 36.6175C148.941 36.5847 148.653 36.5664 148.417 36.5664C148.248 36.5664 148.13 36.5335 148.13 36.4312C148.13 36.296 148.266 36.2631 148.52 36.2631C148.959 36.2631 149.453 36.2814 149.892 36.2814C150.331 36.2996 150.721 36.3143 150.957 36.3143C151.599 36.3143 155.034 36.3143 155.425 36.296C155.746 36.2777 155.949 36.2777 156.118 36.2302C156.222 36.1973 156.306 36.1279 156.391 36.1279C156.457 36.1279 156.509 36.1937 156.509 36.2777C156.509 36.3946 156.424 36.5956 156.373 37.0341C156.354 37.2022 156.321 38.1925 156.288 38.3934C156.269 38.5286 156.236 38.6273 156.118 38.6273C156 38.6273 155.967 38.5432 155.949 38.3605C155.949 38.2253 155.949 37.9586 155.846 37.7247C155.728 37.4909 155.37 37.2387 154.729 37.2205L152.122 37.1693C152.019 37.1693 151.971 37.2205 151.971 37.4032V41.5981C151.971 41.7004 151.989 41.7479 152.089 41.7479L154.257 41.7296C154.544 41.7296 154.78 41.7296 155.02 41.7113C155.34 41.6931 155.58 41.6273 155.746 41.408C155.831 41.3057 155.864 41.24 155.967 41.24C156.034 41.24 156.07 41.2911 156.07 41.3898C156.07 41.4884 155.986 41.9087 155.934 42.4312C155.901 42.7674 155.868 43.5384 155.868 43.6553C155.868 43.8051 155.868 43.9732 155.698 43.9732C155.595 43.9732 155.562 43.8563 155.562 43.7393C155.562 43.6224 155.528 43.4214 155.458 43.2205C155.374 42.9866 155.119 42.6833 154.596 42.6175C154.172 42.5664 152.38 42.5664 152.093 42.5664C152.008 42.5664 151.975 42.5993 151.975 42.7162V44.0755L151.967 44.0828Z" fill="#105A01"/>
<path d="M158.518 42.6066C158.518 39.7381 160.432 36.0292 165.508 36.0292C169.722 36.0292 172.346 38.4629 172.346 42.3033C172.346 46.1437 169.637 49.1803 165.338 49.1803C160.479 49.1803 158.518 45.5737 158.518 42.6029V42.6066ZM169.976 42.9245C169.976 39.1681 167.793 36.8331 165.018 36.8331C163.071 36.8331 160.855 37.9074 160.855 42.084C160.855 45.5737 162.802 48.3435 166.053 48.3435C167.237 48.3435 169.98 47.7735 169.98 42.9245H169.976Z" fill="#105A01"/>
<path d="M174.208 42.6066C174.208 39.7381 176.121 36.0292 181.198 36.0292C185.411 36.0292 188.036 38.4629 188.036 42.3033C188.036 46.1437 185.326 49.1803 181.028 49.1803C176.169 49.1803 174.208 45.5737 174.208 42.6029V42.6066ZM185.666 42.9245C185.666 39.1681 183.483 36.8331 180.707 36.8331C178.761 36.8331 176.545 37.9074 176.545 42.084C176.545 45.5737 178.492 48.3435 181.743 48.3435C182.927 48.3435 185.669 47.7735 185.669 42.9245H185.666Z" fill="#105A01"/>
<path d="M191.575 41.1303C191.575 38.5798 191.575 38.1121 191.542 37.5749C191.509 37.0049 191.372 36.7345 190.816 36.6175C190.679 36.5847 190.392 36.5664 190.156 36.5664C189.971 36.5664 189.868 36.5335 189.868 36.4166C189.868 36.2996 189.986 36.2668 190.241 36.2668C191.136 36.2668 192.205 36.3179 192.677 36.3179C193.201 36.3179 194.27 36.2668 195.284 36.2668C197.4 36.2668 200.227 36.2668 202.071 38.1778C202.918 39.0512 203.711 40.4434 203.711 42.4385C203.711 44.5542 202.815 46.162 201.868 47.1194C201.09 47.9087 199.328 49.0999 196.198 49.0999C195.59 49.0999 194.893 49.0487 194.252 48.9976C193.61 48.9464 193.017 48.8953 192.593 48.8953C192.405 48.8953 192.032 48.8953 191.627 48.9135C191.236 48.9135 190.797 48.9464 190.458 48.9464C190.237 48.9464 190.119 48.8953 190.119 48.7783C190.119 48.6943 190.185 48.6431 190.388 48.6431C190.642 48.6431 190.845 48.6102 190.996 48.5774C191.335 48.5116 191.42 48.1425 191.487 47.6565C191.571 46.9513 191.571 45.6249 191.571 44.0828V41.1303H191.575ZM193.691 42.9756C193.691 44.7552 193.71 46.0451 193.724 46.363C193.743 46.7832 193.776 47.4519 193.909 47.6382C194.13 47.9562 194.79 48.3106 196.124 48.3106C197.85 48.3106 199 47.9744 200.017 47.1011C201.101 46.1766 201.44 44.6529 201.44 42.9245C201.44 40.7942 200.544 39.4166 199.814 38.7296C198.259 37.2534 196.327 37.0524 195.007 37.0524C194.668 37.0524 194.041 37.1035 193.909 37.1693C193.758 37.2351 193.706 37.3191 193.706 37.5055C193.687 38.0755 193.687 39.5372 193.687 40.8599V42.9756H193.691Z" fill="#105A01"/>
<path d="M206.487 48.7491C206.214 48.6322 206.166 48.5481 206.166 48.1791C206.166 47.2546 206.233 46.2497 206.251 45.983C206.27 45.7308 206.317 45.5481 206.454 45.5481C206.605 45.5481 206.623 45.6979 206.623 45.8331C206.623 46.0524 206.69 46.4032 206.775 46.6882C207.147 47.9306 208.146 48.3837 209.197 48.3837C210.719 48.3837 211.464 47.3605 211.464 46.4726C211.464 45.6504 211.209 44.8794 209.805 43.7869L209.027 43.1839C207.165 41.7406 206.524 40.5676 206.524 39.2083C206.524 37.363 208.08 36.0365 210.435 36.0365C211.534 36.0365 212.245 36.2046 212.688 36.3216C212.839 36.3545 212.924 36.4056 212.924 36.5225C212.924 36.7418 212.857 37.2278 212.857 38.5359C212.857 38.905 212.806 39.0402 212.669 39.0402C212.551 39.0402 212.5 38.9379 212.5 38.7369C212.5 38.5871 212.415 38.0646 212.061 37.6297C211.807 37.3118 211.316 36.8076 210.218 36.8076C208.964 36.8076 208.205 37.5274 208.205 38.5359C208.205 39.3069 208.596 39.8953 210 40.9513L210.476 41.3021C212.526 42.8295 213.252 43.9878 213.252 45.581C213.252 46.553 212.879 47.7113 211.659 48.5006C210.815 49.0378 209.864 49.1876 208.968 49.1876C207.987 49.1876 207.224 49.0706 206.498 48.7527L206.487 48.7491Z" fill="#105A01"/>
<path d="M83.6383 26.5359C83.1775 27.7235 82.7167 28.7284 81.6108 28.8197C81.4264 28.8197 81.0578 28.9111 80.8735 28.9111C80.6891 28.9111 80.6891 29.0024 80.6891 29.0024C80.6891 29.1851 80.7813 29.1851 81.1499 29.1851C82.3481 29.1851 83.7305 29.0938 84.007 29.0938C84.2835 29.0938 85.2973 29.1851 85.9424 29.1851C86.1267 29.1851 86.3111 29.0938 86.3111 29.0024C86.3111 28.9111 86.2189 28.9111 86.0346 28.9111H85.7581C85.2973 28.9111 84.8365 28.7284 84.8365 28.1803C84.8365 27.7235 84.9286 27.1754 85.2051 26.5359L86.6797 22.151C86.7411 22.0292 86.8333 21.9683 86.9562 21.9683H92.3938C92.486 21.9683 92.5781 22.0597 92.5781 22.151L94.8822 28.2716C94.9743 28.637 94.8822 28.9111 94.79 29.0024C94.6979 29.0024 94.6057 29.0938 94.6057 29.1851C94.6057 29.2765 94.8822 29.2765 95.343 29.3678C97.0941 29.4592 98.8452 29.4592 99.306 29.4592C99.5825 29.4592 99.7668 29.3678 99.7668 29.2765C99.7668 29.1851 99.5825 29.0938 99.3981 29.0938C99.1217 29.0938 98.753 29.0938 98.3844 29.0024C97.8314 28.8197 97.0941 28.4543 96.2646 26.2619C94.79 22.5164 90.827 12.2814 90.4584 11.3678C90.1819 10.637 89.9976 10.4543 89.9054 10.4543C89.8132 10.4543 89.6289 10.5457 89.3524 11.3678L83.6383 26.5359ZM87.0484 21.0548C86.9562 21.0548 86.9562 20.9635 86.9562 20.8721L89.1681 14.2034C89.2603 13.838 89.4446 13.838 89.5367 14.2034L91.8408 20.8721C91.8408 20.9635 91.8408 21.0548 91.7487 21.0548H87.0484ZM118.019 13.6553C117.927 13.2899 117.834 13.1072 117.65 13.1072C117.466 13.1072 117.374 13.1985 117.281 13.4726L110.922 26.5359L104.286 13.4726C104.194 13.1985 104.01 13.1072 103.918 13.1072C103.826 13.1072 103.733 13.1985 103.641 13.4726L102.075 27.179C101.982 28.0012 101.982 28.732 101.245 28.9147C100.876 29.0061 100.784 29.0061 100.6 29.0061C100.508 29.0061 100.416 29.0974 100.416 29.0974C100.416 29.2801 100.508 29.2801 100.784 29.2801C101.429 29.2801 102.443 29.1888 102.628 29.1888C102.812 29.1888 103.918 29.2801 104.747 29.2801C105.024 29.2801 105.116 29.1888 105.116 29.0974C105.116 29.0061 105.024 29.0061 104.932 29.0061C104.839 29.0061 104.471 29.0061 104.102 28.8234C103.733 28.732 103.549 28.5493 103.549 28.1839V27.179L104.379 17.6784H104.471C104.839 18.592 106.591 22.0633 107.236 23.4336C107.789 24.6212 109.263 27.2704 109.816 28.2753C110.277 29.0061 110.369 29.2801 110.553 29.2801C110.738 29.2801 110.922 29.0974 111.291 28.1839L116.544 17.4957H116.636L117.65 28.1839C117.742 28.5493 117.65 28.9147 117.558 28.9147C117.466 28.9147 117.466 29.0061 117.466 29.0974C117.466 29.1888 117.558 29.2801 118.111 29.2801C118.94 29.3715 121.337 29.3715 121.889 29.3715C122.166 29.3715 122.35 29.2801 122.35 29.1888C122.35 29.0974 122.258 29.0061 122.166 29.0061C121.982 29.0061 121.337 29.0061 120.691 28.8234C119.77 28.5493 119.678 27.3617 119.585 26.6309L118.019 13.6589V13.6553ZM126.129 23.1559C126.129 25.257 126.129 26.9013 126.037 27.7235C125.945 28.363 125.852 28.7284 125.484 28.8197C125.3 28.8197 125.023 28.9111 124.747 28.9111C124.654 28.9111 124.562 29.0024 124.562 29.0938C124.562 29.1851 124.654 29.2765 124.931 29.2765C125.3 29.2765 125.76 29.2765 126.129 29.1851H127.143C127.511 29.1851 128.064 29.1851 128.894 29.2765C129.815 29.2765 131.014 29.3678 132.673 29.3678C133.502 29.3678 133.778 29.3678 133.871 28.8197C134.055 28.4543 134.147 26.9927 134.147 26.81C134.147 26.7186 134.147 26.4446 133.963 26.4446C133.871 26.4446 133.778 26.5359 133.778 26.81C133.594 27.6321 133.41 28.0889 132.765 28.2716C132.212 28.4543 131.198 28.4543 130.553 28.4543C128.433 28.4543 127.972 28.1803 127.972 26.7186V21.5116C127.972 21.4507 128.003 21.4202 128.064 21.4202C128.433 21.4202 130.737 21.4202 131.382 21.5116C132.212 21.6029 132.396 21.877 132.488 22.151C132.58 22.4251 132.58 22.6078 132.58 22.8818C132.58 22.9732 132.673 23.0645 132.673 23.0645C132.857 23.0645 132.857 22.8818 132.857 22.6991C132.857 22.6078 132.949 21.6943 132.949 21.3289C133.041 20.598 133.133 20.324 133.133 20.1413C133.133 20.0499 133.041 19.9586 133.041 19.9586C133.041 19.9586 132.857 20.0499 132.673 20.2326C132.488 20.4153 132.12 20.5067 131.567 20.5067C131.106 20.598 128.157 20.598 127.88 20.598C127.696 20.598 127.696 20.5067 127.696 20.4153V14.7515C127.696 14.6602 127.696 14.5688 127.88 14.5688C128.157 14.5688 130.645 14.5688 131.014 14.6602C132.212 14.8429 132.488 14.9342 132.58 15.2996C132.673 15.5737 132.673 15.9391 132.673 16.0304C132.673 16.2131 132.765 16.3045 132.857 16.3045C132.949 16.3045 133.041 16.1218 133.041 16.1218C133.133 15.8477 133.133 14.9342 133.225 14.7515C133.318 14.112 133.41 13.9293 133.41 13.838C133.41 13.7466 133.41 13.6553 133.318 13.6553C133.225 13.6553 133.133 13.7466 133.041 13.7466C132.857 13.7466 132.488 13.838 132.12 13.9293H126.866C126.774 13.9293 125.3 13.838 124.286 13.838C124.009 13.838 123.917 13.9293 123.917 14.0207C123.917 14.112 124.009 14.2034 124.101 14.2034C124.286 14.2034 124.654 14.2034 124.839 14.2948C125.576 14.3861 125.668 14.6602 125.76 15.4823C125.852 16.2131 125.852 16.7613 125.852 20.0499L126.129 23.1559ZM139.865 23.1559C139.865 25.257 139.865 26.9013 139.681 27.7235C139.588 28.363 139.588 28.7284 139.128 28.8197C138.943 28.9111 138.667 28.9111 138.39 28.9111C138.206 28.9111 138.206 29.0024 138.206 29.0938C138.206 29.1851 138.39 29.2765 138.575 29.2765C139.312 29.2765 140.694 29.1851 140.694 29.1851C140.787 29.1851 142.169 29.2765 143.367 29.2765C143.644 29.2765 143.736 29.1851 143.736 29.0938C143.736 29.0024 143.736 28.9111 143.551 28.9111C143.367 28.9111 142.814 28.8197 142.63 28.8197C141.892 28.7284 141.8 28.363 141.708 27.7235C141.616 26.81 141.616 25.257 141.616 23.1559V22.6991C141.616 22.5164 141.708 22.5164 141.8 22.5164L144.565 22.6078C144.688 22.6078 144.78 22.6382 144.842 22.6991C145.302 23.2473 146.316 24.6175 147.238 25.8051C148.436 27.3581 149.265 28.4543 150.187 28.9111C150.74 29.1851 151.293 29.3678 152.583 29.3678H153.966C154.334 29.3678 154.519 29.2765 154.519 29.1851C154.519 29.0938 154.427 29.0024 154.334 29.0024C154.242 29.0024 153.966 29.0024 153.597 28.9111C153.044 28.8197 152.307 28.637 151.201 27.4494C150.003 26.1705 148.436 24.2521 146.685 22.0597C148.712 20.324 149.358 18.8624 149.358 17.3094C149.358 15.8477 148.344 14.8429 147.791 14.3861C146.593 13.5639 145.118 13.4726 143.736 13.4726C142.998 13.4726 141.247 13.5639 140.971 13.5639C140.787 13.5639 139.404 13.4726 138.39 13.4726C138.114 13.4726 138.022 13.5639 138.022 13.6553C138.022 13.7466 138.114 13.838 138.206 13.838C138.39 13.838 138.759 13.838 138.943 13.9293C139.681 14.0207 139.773 14.2948 139.865 15.1169C139.957 15.8477 139.957 16.3958 139.957 19.6845L139.865 23.1559ZM141.708 14.4775C141.708 14.2948 141.8 14.2948 141.892 14.2034C142.077 14.112 142.814 14.0207 143.459 14.0207C145.855 14.0207 147.238 15.5737 147.238 18.1315C147.238 19.6845 146.685 20.8721 145.948 21.3289C145.395 21.6943 144.842 21.6943 144.289 21.6943C143.275 21.6943 142.261 21.6029 141.892 21.3289C141.8 21.2375 141.708 21.2375 141.708 21.0548V14.4775ZM158.578 14.9342C158.67 14.2034 158.762 13.9293 159.315 13.7466C159.591 13.6553 159.684 13.6553 159.868 13.6553C159.96 13.6553 160.052 13.5639 160.052 13.4726C160.052 13.3812 159.96 13.2899 159.684 13.2899C158.946 13.2899 157.656 13.3812 157.472 13.3812C157.287 13.3812 155.905 13.2899 155.26 13.2899C154.983 13.2899 154.891 13.3812 154.891 13.4726C154.891 13.5639 154.983 13.6553 155.075 13.6553C155.168 13.6553 155.444 13.6553 155.813 13.7466C156.274 13.838 156.458 14.2034 156.55 14.9342C156.642 15.665 156.642 16.1218 156.642 19.4105V23.1559C156.642 25.257 156.642 26.9013 156.458 27.7235C156.366 28.363 156.274 28.7284 155.905 28.8197C155.721 28.9111 155.444 28.9111 155.168 28.9111C154.983 28.9111 154.983 29.0024 154.983 29.0938C154.983 29.1851 155.168 29.2765 155.352 29.2765C156.089 29.2765 157.379 29.1851 157.472 29.1851C157.564 29.1851 159.038 29.2765 160.237 29.2765C160.513 29.2765 160.605 29.1851 160.605 29.0938C160.605 29.0024 160.513 28.9111 160.421 28.9111C160.237 28.9111 159.684 28.8197 159.499 28.8197C158.854 28.7284 158.762 28.363 158.67 27.7235C158.578 26.81 158.578 25.1656 158.578 23.1559V14.9342ZM173.327 29.4592C174.802 29.4592 176.369 29.3678 177.29 29.0024C177.659 28.8197 177.751 28.8197 177.843 28.363C178.028 27.6321 178.396 25.8051 178.396 25.7138C178.396 25.6224 178.304 25.4397 178.212 25.4397C178.12 25.4397 178.028 25.5311 178.028 25.7138C177.935 26.0792 177.659 26.9927 177.198 27.4494C176.276 28.363 175.263 28.4543 173.604 28.4543C168.903 28.4543 165.678 24.8916 165.678 20.8721C165.678 18.771 166.046 16.944 167.613 15.391C168.35 14.6602 169.733 13.9293 172.498 13.9293C174.433 13.9293 176 14.4775 176.829 15.1169C177.382 15.5737 177.751 16.3958 177.751 17.218C177.751 17.4921 177.751 17.5834 177.935 17.5834C178.12 17.5834 178.12 17.4921 178.212 17.218C178.212 16.944 178.212 15.7564 178.304 15.1169C178.396 14.3861 178.396 14.112 178.396 13.9293C178.396 13.7466 178.304 13.7466 178.12 13.7466C177.382 13.7466 176.645 13.5639 175.908 13.3812C174.802 13.1985 173.604 13.1072 172.774 13.1072C169.364 13.1072 167.337 14.112 166.046 15.391C164.111 17.218 163.558 19.6845 163.558 21.1462C163.558 23.1559 164.111 25.5311 166.231 27.3581C167.89 28.7284 170.102 29.4592 173.327 29.4592ZM181.806 26.9013C181.438 27.9976 180.977 28.637 179.963 28.8197C179.779 28.8197 179.502 28.9111 179.318 28.9111C179.226 28.9111 179.134 29.0024 179.134 29.0938C179.134 29.1851 179.318 29.2765 179.502 29.2765C180.424 29.2765 181.53 29.1851 181.714 29.1851C181.991 29.1851 183.189 29.2765 183.649 29.2765C183.834 29.2765 184.018 29.1851 184.018 29.0938C184.018 29.0024 183.926 28.9111 183.834 28.9111H183.649C183.281 28.9111 182.912 28.8197 182.912 28.363C182.912 27.9976 183.004 27.4494 183.281 26.9013L184.571 23.5213C184.633 23.3995 184.694 23.3386 184.755 23.3386H189.824C189.886 23.3386 189.947 23.3995 190.009 23.5213L191.944 28.2716C192.128 28.637 191.852 28.8197 191.76 28.8197C191.76 29.0024 191.668 29.0024 191.668 29.0024C191.668 29.1851 192.036 29.1851 192.405 29.1851C193.88 29.2765 195.538 29.2765 195.907 29.2765C196.184 29.2765 196.368 29.1851 196.368 29.0938C196.368 28.9111 196.276 28.9111 196.091 28.9111C195.907 28.9111 195.538 28.9111 195.17 28.7284C194.709 28.637 194.064 28.363 193.327 26.3532C192.036 23.1559 188.534 14.4775 188.073 13.5639C187.889 13.1072 187.797 12.8331 187.52 12.8331C187.428 12.8331 187.244 12.9245 186.967 13.6553L181.806 26.9013ZM184.94 22.5164C184.848 22.5164 184.848 22.4251 184.848 22.3337L186.875 16.5786C186.967 16.2131 187.152 16.2131 187.244 16.5786L189.364 22.3337C189.364 22.4251 189.364 22.5164 189.271 22.5164H184.94ZM199.782 16.4872C200.519 17.218 202.915 19.7759 205.404 22.4251C207.708 24.8002 210.841 27.9062 211.118 28.0889C212.408 29.1851 212.592 29.3678 212.777 29.3678C212.869 29.3678 212.961 29.2765 212.961 27.8149L213.053 15.4823C213.053 14.2034 213.145 13.7466 213.79 13.6553C214.067 13.5639 214.159 13.5639 214.343 13.5639C214.528 13.5639 214.62 13.3812 214.62 13.3812C214.62 13.2899 214.435 13.2899 214.251 13.2899C213.33 13.2899 212.684 13.3812 212.408 13.3812C212.131 13.3812 211.118 13.2899 210.104 13.2899C209.827 13.2899 209.735 13.2899 209.735 13.3812C209.735 13.4726 209.735 13.5639 209.919 13.5639C210.104 13.5639 210.657 13.5639 211.025 13.6553C211.763 13.838 211.855 14.2948 211.855 15.5737L212.039 26.1705C211.302 25.4397 208.998 22.9732 206.878 20.7807C203.468 17.3094 200.335 14.0207 199.966 13.5639C199.782 13.3812 199.321 12.9245 199.136 12.9245C198.952 12.9245 198.86 13.1072 198.86 14.0207V26.0792C198.86 27.9976 198.768 28.5457 198.215 28.7284C197.846 28.8197 197.478 28.8197 197.293 28.8197C197.201 28.8197 197.109 28.9111 197.109 29.0024C197.109 29.0938 197.201 29.1851 197.478 29.1851C198.491 29.1851 199.413 29.0938 199.597 29.0938C199.782 29.0938 200.703 29.1851 201.901 29.1851C202.178 29.1851 202.27 29.0938 202.27 29.0024C202.27 28.9111 202.178 28.8197 202.086 28.8197C201.901 28.8197 201.348 28.8197 200.98 28.7284C200.335 28.5457 200.242 27.9976 200.15 26.3532L199.782 16.4872Z" fill="#051341"/>
<path d="M85.5774 44.5396V47.6455C85.5774 48.1023 85.4853 48.3764 85.2088 48.4677C85.1166 48.5591 84.9323 48.5591 84.748 48.5591C84.6558 48.5591 84.5637 48.6504 84.5637 48.6504C84.5637 48.7418 84.6558 48.8331 84.8401 48.8331C85.301 48.8331 86.1304 48.7418 86.4069 48.7418C86.7756 48.7418 87.5129 48.8331 88.3423 48.8331C88.4345 48.8331 88.5266 48.7418 88.5266 48.6504C88.5266 48.5591 88.5266 48.5591 88.3423 48.5591C88.158 48.5591 87.8815 48.4677 87.6972 48.4677C87.3285 48.3764 87.2364 48.1023 87.2364 47.6455V38.6017L88.8031 38.693C89.9091 38.7844 90.2777 39.1498 90.2777 39.5152V39.6979C90.2777 39.8806 90.2777 39.972 90.3699 39.972C90.4621 39.972 90.4621 39.8806 90.4621 39.7893V38.1449C90.4621 37.9622 90.4621 37.8709 90.3699 37.8709C90.3699 37.8709 90.2777 37.9622 90.0934 37.9622C89.9091 37.7795 89.6326 37.7795 89.2639 37.7795H84.2872C83.9185 37.7795 83.3655 37.6882 82.9969 37.6882C82.7204 37.5968 82.5361 37.5055 82.4439 37.5055C82.3518 37.5055 82.3518 37.5968 82.3518 37.7795C82.3518 37.8709 82.0753 39.2412 82.0753 39.4239C82.0753 39.6066 82.0753 39.6066 82.1674 39.6066C82.2596 39.6066 82.2596 39.5152 82.2596 39.4239C82.2596 39.3325 82.3518 39.1498 82.4439 38.8758C82.6282 38.6017 82.9047 38.5103 83.642 38.419L85.4853 38.3276L85.5774 44.5396ZM92.4896 45.179V47.8283C92.4896 48.1937 92.3975 48.3764 92.2131 48.4677C92.121 48.5591 92.0288 48.5591 91.8445 48.5591C91.7523 48.5591 91.6602 48.6504 91.6602 48.6504C91.6602 48.7418 91.7523 48.7418 91.8445 48.7418C92.3053 48.7418 92.9504 48.6504 93.2269 48.6504C93.4113 48.6504 94.3329 48.7418 94.978 48.7418C95.0702 48.7418 95.1623 48.6504 95.1623 48.6504C95.1623 48.6504 95.1623 48.5591 95.0702 48.5591C94.978 48.5591 94.7015 48.5591 94.5172 48.4677C94.2407 48.3764 94.1486 48.1937 94.1486 47.8283V44.9963C94.1486 44.9354 94.1793 44.905 94.2407 44.905L95.2545 44.9963C95.3159 44.9963 95.3774 45.0268 95.4388 45.0877C95.531 45.2704 95.9918 46.0926 96.4526 46.732C97.0056 47.6455 97.4664 48.285 97.9272 48.5591C98.2037 48.7418 98.4802 48.8331 99.1253 48.8331H100.047C100.139 48.8331 100.231 48.7418 100.231 48.7418C100.231 48.6809 100.201 48.6504 100.139 48.6504C100.078 48.6504 99.9855 48.62 99.8626 48.5591C99.6783 48.4677 99.3097 48.4677 98.6645 47.7369C98.0194 46.9147 97.1899 45.8185 96.2683 44.4482C97.3742 43.4434 97.8351 42.6212 97.8351 41.7077C97.8351 40.8855 97.3742 40.246 97.0978 40.0633C96.5448 39.6066 95.7153 39.5152 94.978 39.5152C94.7015 39.5152 93.6877 39.6066 93.2269 39.6066C93.0426 39.6066 92.3053 39.5152 91.7523 39.5152C91.568 39.5152 91.4758 39.6066 91.4758 39.6066C91.4758 39.6979 91.568 39.6979 91.6602 39.6979C91.8445 39.6979 92.0288 39.6979 92.121 39.7893C92.4896 39.8806 92.5818 40.0633 92.5818 40.4287V43.0779L92.4896 45.179ZM93.9642 40.246C93.9642 40.1547 93.9642 40.0633 94.0564 40.0633C94.1486 39.972 94.425 39.972 94.7015 39.972C95.3467 39.972 96.3605 40.4287 96.3605 42.1644C96.3605 43.1693 95.9918 43.7174 95.6232 43.9915C95.4388 44.1742 95.3467 44.1742 94.8859 44.1742C94.6094 44.1742 94.3329 44.0828 94.0564 44.0828C93.995 44.0219 93.9642 43.961 93.9642 43.9001V40.246ZM104.194 45.6358C104.194 45.6358 104.286 45.6358 104.286 45.7272L105.116 48.1937C105.116 48.3764 105.116 48.4677 105.024 48.4677C104.932 48.4677 104.932 48.5591 104.932 48.5591C104.932 48.6504 105.024 48.6504 105.208 48.6504C106.13 48.7418 106.959 48.7418 107.328 48.7418C107.696 48.7418 107.789 48.6504 107.789 48.6504C107.789 48.5895 107.758 48.5591 107.696 48.5591C107.604 48.5591 107.42 48.5591 107.328 48.4677C107.143 48.3764 106.867 48.285 106.406 47.1888C105.577 45.2704 103.733 40.3374 103.457 39.6066C103.365 39.3325 103.273 39.2412 103.18 39.2412C103.088 39.2412 102.996 39.4239 102.904 39.6979L100.047 47.3715C99.8626 48.011 99.6783 48.3764 99.1253 48.4677H98.8488C98.7567 48.4677 98.7567 48.5591 98.7567 48.5591C98.7567 48.62 98.8181 48.6504 98.941 48.6504C99.494 48.6504 100.139 48.5591 100.231 48.5591C100.6 48.5591 101.061 48.6504 101.429 48.6504C101.522 48.6504 101.614 48.5591 101.614 48.5591C101.614 48.5591 101.614 48.4677 101.429 48.4677H101.245C100.969 48.4677 100.784 48.3764 100.784 48.1023C100.784 47.9196 100.784 47.6455 100.969 47.3715L101.522 45.7272C101.522 45.6663 101.552 45.6358 101.614 45.6358H104.194ZM101.798 44.905L102.812 41.799L103.826 44.905V44.9963H101.798V44.905ZM108.987 45.179V47.8283C108.987 48.1937 108.895 48.3764 108.71 48.4677C108.618 48.5591 108.526 48.5591 108.342 48.5591C108.249 48.5591 108.157 48.6504 108.157 48.6504C108.157 48.7418 108.249 48.7418 108.342 48.7418C108.526 48.7418 108.802 48.7418 109.079 48.6504H109.724C110.001 48.6504 110.369 48.7418 110.83 48.7418C111.291 48.8331 111.752 48.8331 112.12 48.8331C114.148 48.8331 115.346 47.9196 115.807 47.3715C116.452 46.732 117.005 45.4531 117.005 43.9915C117.005 42.5298 116.544 41.525 115.991 40.8855C114.793 39.4239 112.95 39.4239 111.567 39.4239C110.922 39.4239 110.093 39.5152 109.816 39.5152C109.54 39.5152 108.802 39.4239 108.249 39.4239C108.065 39.4239 107.973 39.5152 107.973 39.5152C107.973 39.6066 108.065 39.6066 108.157 39.6066C108.342 39.6066 108.526 39.6066 108.618 39.6979C108.987 39.7893 109.079 39.972 109.079 40.3374V45.179H108.987ZM110.461 40.3374C110.461 40.2156 110.492 40.1242 110.553 40.0633C110.646 39.972 111.014 39.972 111.199 39.972C112.028 39.972 113.226 40.0633 114.332 41.1596C114.793 41.6163 115.346 42.7125 115.346 44.1742C115.346 45.4531 115.162 46.5493 114.424 47.1888C113.779 47.8283 113.042 48.011 112.028 48.011C111.199 48.011 110.738 47.7369 110.553 47.5542C110.461 47.4628 110.461 47.0061 110.461 46.6407V40.3374ZM119.309 47.8283C119.309 48.1937 119.217 48.3764 119.032 48.3764C118.94 48.4677 118.848 48.4677 118.664 48.4677C118.572 48.4677 118.479 48.5591 118.479 48.5591C118.479 48.6504 118.572 48.6504 118.664 48.6504C119.125 48.6504 119.862 48.5591 120.138 48.5591C120.415 48.5591 121.152 48.6504 121.889 48.6504C121.982 48.6504 122.074 48.5591 122.074 48.5591C122.074 48.5591 122.074 48.4677 121.889 48.4677C121.705 48.4677 121.521 48.4677 121.337 48.3764C121.06 48.285 120.968 48.1023 120.876 47.8283V40.3374C120.876 39.8806 120.968 39.6979 121.244 39.6979C121.337 39.6066 121.429 39.6066 121.521 39.6066C121.613 39.6066 121.705 39.5152 121.705 39.4239C121.705 39.3325 121.613 39.3325 121.521 39.3325C121.152 39.3325 120.415 39.4239 120.138 39.4239C119.862 39.4239 119.125 39.3325 118.664 39.3325C118.479 39.3325 118.387 39.4239 118.387 39.4239C118.387 39.5152 118.387 39.6066 118.572 39.6066C118.756 39.6066 118.848 39.6066 118.94 39.6979C119.125 39.7893 119.309 39.8806 119.309 40.3374V47.8283ZM125.023 42.0731C125.3 42.2558 126.405 43.7174 127.696 45.0877C128.802 46.3666 130.276 47.9196 130.921 48.6504C131.014 48.7418 131.198 48.9245 131.382 48.9245C131.474 48.9245 131.567 48.8331 131.567 48.5591L131.659 40.7941C131.659 40.1547 131.751 39.8806 132.027 39.7893C132.12 39.6979 132.212 39.6979 132.304 39.6979C132.396 39.6979 132.488 39.6066 132.488 39.6066C132.488 39.5152 132.396 39.5152 132.212 39.5152C131.659 39.5152 131.29 39.6066 131.106 39.6066C130.921 39.6066 130.276 39.5152 129.723 39.5152C129.539 39.5152 129.447 39.5152 129.447 39.6066C129.447 39.6979 129.447 39.6979 129.631 39.6979C129.723 39.6979 130 39.6979 130.184 39.7893C130.461 39.8806 130.553 40.0633 130.553 40.8855L130.645 46.3666C130.461 46.1839 128.986 44.4482 128.249 43.5347C126.682 41.7077 124.931 39.6979 124.839 39.6066C124.654 39.4239 124.562 39.1498 124.378 39.1498C124.286 39.1498 124.194 39.3325 124.194 39.6066L124.101 46.9147C124.101 48.011 124.101 48.3764 123.825 48.3764C123.733 48.4677 123.456 48.4677 123.364 48.4677C123.272 48.4677 123.18 48.5591 123.18 48.5591C123.18 48.6504 123.272 48.6504 123.456 48.6504C124.009 48.6504 124.562 48.5591 124.654 48.5591C124.839 48.5591 125.392 48.6504 126.037 48.6504C126.129 48.6504 126.313 48.5591 126.313 48.5591C126.313 48.5591 126.313 48.4677 126.129 48.4677C125.945 48.4677 125.76 48.4677 125.576 48.3764C125.392 48.285 125.207 48.011 125.207 47.0974L125.023 42.0731ZM141.524 46.5493V45.0877C141.524 44.6309 141.616 44.4482 141.892 44.4482C141.985 44.3569 142.077 44.3569 142.169 44.3569C142.261 44.3569 142.445 44.2655 142.445 44.1742C142.445 44.0828 142.353 44.0828 142.261 44.0828C141.892 44.0828 141.339 44.1742 140.971 44.1742C140.694 44.1742 139.865 44.0828 139.312 44.0828C139.22 44.0828 139.128 44.0828 139.128 44.1742C139.128 44.2655 139.22 44.2655 139.312 44.2655C139.404 44.2655 139.588 44.2655 139.681 44.3569C140.049 44.4482 140.141 44.6309 140.141 44.9963V47.5542C140.141 47.7369 140.141 47.9196 139.957 48.011C139.681 48.1023 139.496 48.1023 139.22 48.1023C136.824 48.1023 135.441 46.1839 135.441 43.5347C135.441 41.9817 135.81 41.0682 136.455 40.5201C137.192 39.8806 138.022 39.7893 138.575 39.7893C139.773 39.7893 140.602 40.3374 140.971 40.7028C141.247 41.0682 141.339 41.4336 141.339 41.7077C141.339 41.799 141.339 41.8904 141.432 41.8904C141.524 41.8904 141.524 41.799 141.524 41.6163C141.524 40.0633 141.616 39.6979 141.616 39.6066C141.616 39.5152 141.616 39.5152 141.524 39.4239C141.247 39.4239 140.879 39.3325 140.694 39.3325C140.51 39.2412 139.496 39.1498 138.759 39.1498C137.837 39.1498 136.824 39.2412 135.81 39.972C134.796 40.6114 133.874 41.9817 133.874 43.9915C133.874 47.3715 136.271 48.8331 138.943 48.8331C139.773 48.8331 140.879 48.7418 141.616 48.285C141.677 48.2241 141.708 48.0719 141.708 47.8283L141.524 46.5493Z" fill="#051341"/>
<path d="M81.2532 61.7686C81.2532 62.4994 81.2532 63.0475 81.161 63.4129C81.161 63.5956 81.0688 63.7783 80.9767 63.7783H80.7002C80.6388 63.7783 80.608 63.8088 80.608 63.8697C80.608 63.961 80.7002 63.961 80.7002 63.961H82.8199C82.8814 63.961 82.9121 63.9306 82.9121 63.8697C82.9121 63.7783 82.8199 63.7783 82.8199 63.7783H82.3591C82.1748 63.7783 82.0826 63.687 82.0826 63.4129V58.9367C82.0826 58.6626 82.1748 58.5712 82.3591 58.5712H82.5434C82.6049 58.5712 82.6356 58.5408 82.6356 58.4799C82.6356 58.3885 82.5434 58.3885 82.5434 58.3885H80.7002C80.608 58.3885 80.5159 58.3885 80.5159 58.4799C80.5159 58.5712 80.608 58.5712 80.608 58.5712H80.8845C80.9767 58.6626 81.0688 58.6626 81.161 58.9367V60.4896L81.2532 61.7686ZM89.2713 63.1388C89.1792 63.4129 89.1792 63.687 88.9948 63.7783H88.8105C88.7491 63.7783 88.7183 63.8088 88.7183 63.8697C88.7183 63.961 88.8105 63.961 88.8105 63.961H90.2851C90.3773 63.961 90.4694 63.961 90.4694 63.8697C90.4694 63.7783 90.3773 63.7783 90.3773 63.7783C90.2851 63.7783 90.1929 63.7783 90.0086 63.687C89.9165 63.687 89.8243 63.5956 89.8243 63.5043V63.1388L90.2851 60.3069C90.5616 60.855 91.0224 61.7686 91.0224 61.8599C91.1146 62.0426 91.7597 63.2302 91.944 63.5956C92.0362 63.7783 92.1284 63.961 92.2205 63.961C92.3127 63.961 92.3127 63.8697 92.497 63.5956L94.1559 60.3069L94.6167 63.5043C94.6167 63.687 94.6167 63.7783 94.5246 63.8697C94.4324 63.8697 94.4324 63.961 94.4324 63.961C94.4324 64.0524 94.5246 64.0524 94.6167 64.0524C94.8932 64.0524 95.907 64.1437 96.0914 64.1437C96.1835 64.1437 96.2757 64.1437 96.2757 64.0524C96.2757 63.961 96.1835 63.961 96.1835 63.961C96.0914 63.961 95.907 63.961 95.7227 63.8697C95.5384 63.7783 95.4462 63.5956 95.3541 63.1388L94.6167 58.5712C94.6167 58.4799 94.5246 58.3885 94.5246 58.3885C94.4324 58.3885 94.4324 58.4799 94.4324 58.5712L92.3127 62.7734L90.2851 58.4799C90.2237 58.3581 90.1622 58.2972 90.1008 58.2972C90.0086 58.2972 90.0086 58.3885 90.0086 58.4799L89.2713 63.1388ZM102.635 61.7686C102.635 62.4994 102.635 63.0475 102.543 63.3216C102.543 63.5043 102.451 63.687 102.358 63.687H102.082C102.02 63.687 101.99 63.7174 101.99 63.7783C101.99 63.8697 102.082 63.8697 102.082 63.8697H104.294C104.355 63.8697 104.386 63.8392 104.386 63.7783C104.386 63.687 104.294 63.687 104.294 63.687H103.833C103.649 63.687 103.557 63.5043 103.557 63.3216C103.464 62.9561 103.464 62.408 103.464 61.7686V58.754C103.464 58.693 103.495 58.6626 103.557 58.6626H103.833C103.925 58.6626 104.294 58.754 104.57 58.9367C105.031 59.3021 105.031 59.8502 105.031 60.0329C105.031 60.7637 104.478 61.3118 104.017 61.3118C103.925 61.3118 103.833 61.3118 103.833 61.4032C103.833 61.4945 103.925 61.4945 103.925 61.4945H104.017C105.031 61.4945 105.861 60.7637 105.861 59.7588C105.861 59.3934 105.676 59.028 105.492 58.8453C105.4 58.754 105.031 58.4799 104.109 58.4799H101.898C101.836 58.4799 101.805 58.5103 101.805 58.5712C101.805 58.6626 101.898 58.6626 101.898 58.6626H102.174C102.358 58.7235 102.481 58.8453 102.543 59.028V61.9513H102.635V61.7686ZM114.893 64.0524C116.828 64.0524 118.026 62.6821 118.026 60.9464C118.026 59.2107 116.828 58.1145 114.985 58.1145C112.681 58.1145 111.851 59.7588 111.851 61.0378C111.851 62.408 112.681 64.0524 114.893 64.0524ZM115.169 63.5956C113.694 63.5956 112.865 62.3167 112.865 60.7637C112.865 58.9367 113.879 58.3885 114.708 58.3885C115.998 58.3885 116.92 59.3934 116.92 61.0378C116.92 63.4129 115.722 63.5956 115.169 63.5956ZM124.662 61.7686C124.662 62.4994 124.662 63.0475 124.57 63.3216C124.57 63.5043 124.477 63.687 124.385 63.687H124.109C124.047 63.687 124.017 63.7174 124.017 63.7783C124.017 63.8697 124.109 63.8697 124.109 63.8697H126.136C126.229 63.8697 126.321 63.8697 126.321 63.7783C126.321 63.687 126.321 63.687 126.229 63.687H125.86C125.676 63.687 125.583 63.5043 125.583 63.3216C125.491 62.9561 125.491 62.408 125.491 61.7686V61.6772C125.491 61.6163 125.522 61.5859 125.583 61.5859H126.229C126.29 61.5859 126.321 61.6163 126.321 61.6772C126.413 61.7686 126.689 62.3167 127.058 62.6821C127.519 63.2302 127.795 63.5956 128.072 63.7783C128.256 63.8697 128.533 63.8697 128.901 63.8697H129.639C129.731 63.8697 129.823 63.8697 129.823 63.7783C129.823 63.687 129.823 63.687 129.731 63.687H129.546C129.362 63.687 129.178 63.5956 128.717 63.2302C128.348 62.7734 127.703 62.134 127.058 61.2205C127.795 60.581 128.072 60.1242 128.072 59.5761C128.072 59.1194 127.795 58.6626 127.611 58.5712C127.15 58.2972 126.689 58.2058 126.229 58.2058H124.201C124.139 58.2058 124.109 58.2363 124.109 58.2972C124.109 58.3885 124.201 58.3885 124.201 58.3885H124.477C124.662 58.4494 124.785 58.5712 124.846 58.754V60.3069L124.662 61.7686ZM125.491 58.754C125.491 58.693 125.491 58.693 125.491 58.754C125.676 58.6626 125.768 58.6626 125.952 58.6626C126.413 58.6626 127.15 58.9367 127.15 60.0329C127.15 60.6723 126.966 61.0378 126.781 61.1291C126.659 61.19 126.474 61.2205 126.229 61.2205C126.044 61.2205 125.86 61.2205 125.676 61.1291C125.583 61.1291 125.583 61.0378 125.583 61.0378L125.491 58.754ZM136.09 61.7686C136.09 62.4994 136.09 63.0475 135.998 63.3216C135.998 63.5043 135.906 63.687 135.813 63.687H135.537C135.475 63.687 135.445 63.7174 135.445 63.7783C135.445 63.8697 135.537 63.8697 135.537 63.8697H137.749C137.81 63.8697 137.841 63.8392 137.841 63.7783C137.841 63.687 137.749 63.687 137.749 63.687H137.38C137.196 63.687 137.104 63.5043 137.104 63.3216C137.012 62.9561 137.012 62.408 137.012 61.7686V58.6626H137.933C138.67 58.6626 138.855 58.8453 138.855 59.028V59.1194C138.855 59.1803 138.886 59.2107 138.947 59.2107C139.039 59.2107 139.039 59.1194 139.039 59.1194V58.2058C139.039 58.1449 139.008 58.1145 138.947 58.1145C138.947 58.1145 138.855 58.1145 138.763 58.2058C138.578 58.2058 138.486 58.2972 138.21 58.2972H135.26C134.984 58.2972 134.707 58.2972 134.523 58.2058C134.339 58.2058 134.247 58.1145 134.154 58.1145C134.062 58.1145 134.062 58.2058 134.062 58.2058C134.062 58.2058 133.878 58.9367 133.878 59.1194C133.878 59.1803 133.909 59.2107 133.97 59.2107C134.032 59.2107 134.062 59.1803 134.062 59.1194C134.062 59.028 134.154 59.028 134.154 58.8453C134.339 58.754 134.431 58.6626 134.892 58.6626H135.998L136.09 61.7686ZM159.042 61.7686C159.042 62.4994 159.042 63.0475 158.95 63.3216C158.95 63.5043 158.858 63.687 158.766 63.687H158.489C158.397 63.687 158.305 63.687 158.305 63.7783C158.305 63.8697 158.397 63.8697 158.489 63.8697H161.53C161.807 63.8697 161.899 63.8697 161.899 63.687C161.991 63.5956 161.991 62.9561 161.991 62.8648C161.991 62.7734 161.991 62.7734 161.899 62.7734C161.807 62.7734 161.807 62.7734 161.807 62.8648C161.715 63.1388 161.623 63.3216 161.438 63.4129C161.254 63.5043 160.977 63.5043 160.701 63.5043C159.964 63.5043 159.779 63.4129 159.779 62.8648V61.0378C159.779 60.9768 159.81 60.9464 159.872 60.9464H160.885C161.162 60.9464 161.254 61.0378 161.254 61.2205V61.4945C161.254 61.5554 161.285 61.5859 161.346 61.5859C161.438 61.5859 161.438 61.4945 161.438 61.4945V61.0378C161.438 60.6723 161.53 60.581 161.53 60.4896C161.53 60.3983 161.53 60.3983 161.438 60.3983C161.346 60.3983 161.346 60.4896 161.254 60.4896C161.162 60.581 161.07 60.581 160.885 60.581H159.687C159.626 60.581 159.595 60.5505 159.595 60.4896V58.5712C159.595 58.5103 159.626 58.4799 159.687 58.4799H160.701C161.07 58.5712 161.162 58.5712 161.162 58.754C161.254 58.8453 161.254 58.9367 161.254 59.028C161.254 59.1194 161.254 59.1194 161.346 59.1194C161.438 59.1194 161.438 59.028 161.438 59.028C161.438 58.9367 161.438 58.6626 161.53 58.5712C161.53 58.2058 161.623 58.2058 161.623 58.1145C161.623 58.0231 161.623 58.0231 161.53 58.0231H161.346C161.254 58.0231 161.162 58.0231 160.977 58.1145H158.028C157.905 58.1145 157.844 58.1449 157.844 58.2058C157.844 58.2972 157.936 58.2972 158.028 58.2972H158.305C158.489 58.3581 158.612 58.4799 158.673 58.6626V60.2156L159.042 61.7686ZM172.129 59.028C172.313 58.6626 172.498 58.4799 172.682 58.4799C172.866 58.4799 172.866 58.3885 172.959 58.3885C173.051 58.3885 173.143 58.3885 173.143 58.2972C173.143 58.2058 173.051 58.2058 172.959 58.2058H171.484C171.423 58.2058 171.392 58.2363 171.392 58.2972C171.392 58.3885 171.484 58.3885 171.484 58.3885H171.668C171.761 58.3885 171.853 58.4799 171.853 58.4799C171.853 58.4799 171.853 58.6626 171.761 58.754C171.576 58.9367 170.931 60.0329 170.747 60.3069C170.47 59.8502 170.102 59.3021 169.733 58.6626C169.671 58.6017 169.641 58.5408 169.641 58.4799C169.641 58.419 169.671 58.3885 169.733 58.3885H169.917C169.917 58.3885 170.102 58.3885 170.102 58.2972C170.102 58.2058 170.009 58.2058 169.917 58.2058H167.89C167.798 58.2058 167.705 58.2058 167.705 58.2972C167.705 58.3885 167.705 58.3885 167.798 58.3885C167.89 58.3885 167.982 58.3885 168.166 58.4799C168.443 58.5712 168.535 58.754 168.811 59.028L170.102 61.1291L168.627 63.2302C168.35 63.5956 168.258 63.687 167.982 63.7783C167.798 63.7783 167.798 63.8697 167.705 63.8697C167.613 63.8697 167.521 63.8697 167.521 63.961C167.521 64.0524 167.613 64.0524 167.705 64.0524H169.456C169.549 64.0524 169.641 64.0524 169.641 63.961C169.641 63.8697 169.549 63.8697 169.549 63.8697H169.364C169.272 63.8697 169.18 63.7783 169.18 63.7783C169.18 63.7783 169.18 63.5956 169.364 63.4129L170.47 61.6772C170.839 62.2253 171.208 62.9561 171.668 63.7783C171.761 63.8697 171.668 63.8697 171.668 63.961C171.576 63.961 171.484 64.0524 171.484 64.0524C171.484 64.1437 171.576 64.1437 171.761 64.1437H173.327C173.419 64.1437 173.512 64.1437 173.512 64.0524C173.512 63.961 173.419 63.961 173.419 63.961C173.327 63.961 173.235 63.961 173.143 63.8697C172.959 63.7783 172.866 63.7783 172.774 63.5043C172.59 63.3216 171.392 61.2205 171.115 60.855L172.129 59.028ZM179.41 61.7686C179.41 62.4994 179.41 63.0475 179.318 63.3216C179.318 63.5043 179.226 63.687 179.134 63.687H178.857C178.765 63.687 178.673 63.687 178.673 63.7783C178.673 63.8697 178.765 63.8697 178.857 63.8697H180.977C181.038 63.8697 181.069 63.8392 181.069 63.7783C181.069 63.687 180.977 63.687 180.977 63.687H180.608C180.424 63.687 180.332 63.5043 180.332 63.3216C180.239 62.9561 180.239 62.408 180.239 61.7686V58.754C180.239 58.693 180.27 58.6626 180.332 58.6626H180.608C180.7 58.6626 181.069 58.754 181.345 58.9367C181.714 59.3021 181.714 59.8502 181.714 60.0329C181.714 60.7637 181.161 61.3118 180.7 61.3118C180.608 61.3118 180.516 61.3118 180.516 61.4032C180.516 61.4945 180.608 61.4945 180.608 61.4945H180.7C181.714 61.4945 182.544 60.7637 182.544 59.7588C182.544 59.3934 182.359 59.028 182.175 58.8453C181.991 58.754 181.714 58.4799 180.792 58.4799H178.581C178.519 58.4799 178.488 58.5103 178.488 58.5712C178.488 58.6626 178.581 58.6626 178.581 58.6626H178.857C179.041 58.7235 179.164 58.8453 179.226 59.028V61.9513H179.41V61.7686ZM191.668 64.0524C193.603 64.0524 194.801 62.6821 194.801 60.9464C194.801 59.2107 193.603 58.1145 191.76 58.1145C189.456 58.1145 188.626 59.7588 188.626 61.0378C188.718 62.408 189.548 64.0524 191.668 64.0524ZM192.036 63.5956C190.562 63.5956 189.732 62.3167 189.732 60.7637C189.732 58.9367 190.746 58.3885 191.575 58.3885C192.774 58.3885 193.787 59.3934 193.787 61.0378C193.787 63.4129 192.589 63.5956 192.036 63.5956ZM201.529 61.7686C201.529 62.4994 201.529 63.0475 201.437 63.3216C201.437 63.5043 201.345 63.687 201.253 63.687H200.976C200.915 63.687 200.884 63.7174 200.884 63.7783C200.884 63.8697 200.976 63.8697 200.976 63.8697H203.004C203.065 63.8697 203.096 63.8392 203.096 63.7783C203.096 63.7174 203.065 63.687 203.004 63.687H202.635C202.451 63.687 202.358 63.5043 202.358 63.3216C202.266 62.9561 202.266 62.408 202.266 61.7686V61.6772C202.266 61.6163 202.297 61.5859 202.358 61.5859H203.004C203.065 61.5859 203.127 61.6163 203.188 61.6772C203.28 61.7686 203.557 62.3167 203.925 62.6821C204.294 63.2302 204.663 63.5956 204.939 63.7783C205.123 63.8697 205.308 63.8697 205.769 63.8697H206.506C206.598 63.8697 206.69 63.8697 206.69 63.7783C206.69 63.687 206.69 63.687 206.598 63.687H206.414C206.321 63.687 206.045 63.5956 205.584 63.2302C205.123 62.7734 204.57 62.0426 203.925 61.2205C204.663 60.581 204.847 60.1242 204.847 59.5761C204.847 59.1194 204.57 58.6626 204.386 58.5712C204.017 58.2972 203.464 58.2058 203.004 58.2058H200.976C200.853 58.2058 200.792 58.2363 200.792 58.2972C200.792 58.3885 200.884 58.3885 200.976 58.3885H201.253C201.437 58.4494 201.56 58.5712 201.621 58.754V60.3069L201.529 61.7686ZM202.358 58.754C202.358 58.693 202.389 58.6626 202.451 58.6626H202.819C203.188 58.6626 204.017 58.9367 204.017 60.0329C204.017 60.6723 203.833 61.0378 203.649 61.1291C203.557 61.2205 203.464 61.2205 203.096 61.2205C202.911 61.2205 202.727 61.2205 202.543 61.1291C202.451 61.1291 202.451 61.0378 202.451 61.0378L202.358 58.754ZM212.957 61.7686C212.957 62.4994 212.957 63.0475 212.865 63.3216C212.865 63.5043 212.773 63.687 212.681 63.687H212.404C212.312 63.687 212.22 63.687 212.22 63.7783C212.22 63.8697 212.312 63.8697 212.404 63.8697H214.616C214.708 63.8697 214.8 63.8697 214.8 63.7783C214.8 63.687 214.708 63.687 214.616 63.687H214.247C214.063 63.687 213.971 63.5043 213.971 63.3216C213.879 62.9561 213.879 62.408 213.879 61.7686V58.6626H214.893C215.63 58.6626 215.814 58.8453 215.814 59.028V59.1194C215.814 59.1803 215.845 59.2107 215.906 59.2107C215.999 59.2107 215.999 59.1194 215.999 59.1194V58.2058C215.999 58.1449 215.968 58.1145 215.906 58.1145C215.906 58.1145 215.814 58.1145 215.722 58.2058C215.63 58.2058 215.446 58.2972 215.169 58.2972H212.312C212.036 58.2972 211.759 58.2972 211.575 58.2058C211.39 58.2058 211.298 58.1145 211.206 58.1145C211.114 58.1145 211.114 58.2058 211.114 58.2058C211.114 58.2058 210.93 58.9367 210.93 59.1194C210.93 59.1803 210.96 59.2107 211.022 59.2107C211.083 59.2107 211.114 59.1803 211.114 59.1194C211.114 59.028 211.206 59.028 211.298 58.8453C211.39 58.754 211.575 58.6626 212.036 58.6626H213.142V61.7686" fill="#051341"/>
<path fill-rule="evenodd" clip-rule="evenodd" d="M24.2083 3.15714C26.1437 3.15714 27.6183 4.71012 27.6183 6.53716C27.6183 8.3642 26.0515 9.91718 24.2083 9.91718C22.365 9.91718 20.7982 8.3642 20.7982 6.53716C20.7982 4.61877 22.2728 3.15714 24.2083 3.15714Z" fill="#105A01"/>
<path fill-rule="evenodd" clip-rule="evenodd" d="M48.6277 3.15714C50.5631 3.15714 52.0377 4.71012 52.0377 6.53716C52.0377 8.3642 50.4709 9.91718 48.6277 9.91718C46.7844 9.91718 45.2177 8.3642 45.2177 6.53716C45.1255 4.61877 46.6923 3.15714 48.6277 3.15714Z" fill="#105A01"/>
<path fill-rule="evenodd" clip-rule="evenodd" d="M24.2083 62.4117C26.1437 62.4117 27.6183 63.9647 27.6183 65.7917C27.6183 67.6188 26.0515 69.1718 24.2083 69.1718C22.365 69.1718 20.7982 67.6188 20.7982 65.7917C20.7982 63.9647 22.2728 62.4117 24.2083 62.4117Z" fill="#105A01"/>
<path fill-rule="evenodd" clip-rule="evenodd" d="M48.6277 62.4117C50.5631 62.4117 52.0377 63.9647 52.0377 65.7917C52.0377 67.6188 50.4709 69.1718 48.6277 69.1718C46.7844 69.1718 45.2176 67.6188 45.2176 65.7917C45.2176 63.9647 46.6922 62.4117 48.6277 62.4117Z" fill="#105A01"/>
<path fill-rule="evenodd" clip-rule="evenodd" d="M6.7711 20.5871C8.70651 20.5871 10.1811 22.1401 10.1811 23.9671C10.1811 25.7942 8.61435 27.3471 6.7711 27.3471C4.92785 27.3471 3.36108 25.7942 3.36108 23.9671C3.45325 22.0487 4.92785 20.5871 6.7711 20.5871Z" fill="#105A01"/>
<path fill-rule="evenodd" clip-rule="evenodd" d="M66.4445 20.5871C68.3799 20.5871 69.8546 22.1401 69.8546 23.9671C69.8546 25.7942 68.2878 27.3471 66.4445 27.3471C64.6013 27.3471 63.0345 25.7942 63.0345 23.9671C62.9424 22.0487 64.5091 20.5871 66.4445 20.5871Z" fill="#105A01"/>
<path fill-rule="evenodd" clip-rule="evenodd" d="M6.7711 44.715C8.70651 44.715 10.1811 46.268 10.1811 48.095C10.1811 49.9221 8.61435 51.475 6.7711 51.475C4.92785 51.475 3.36108 49.9221 3.36108 48.095C3.45325 46.268 4.92785 44.715 6.7711 44.715Z" fill="#105A01"/>
<path fill-rule="evenodd" clip-rule="evenodd" d="M66.4445 44.715C68.3799 44.715 69.8546 46.268 69.8546 48.095C69.8546 49.9221 68.2878 51.475 66.4445 51.475C64.6013 51.475 63.0345 49.9221 63.0345 48.095C62.9424 46.268 64.5091 44.715 66.4445 44.715Z" fill="#105A01"/>
<path fill-rule="evenodd" clip-rule="evenodd" d="M30.7333 52.3191C30.7333 52.0451 31.102 51.8624 31.1941 51.771C31.9314 51.2229 32.5766 51.1315 33.2217 50.7661C33.6825 50.5834 34.2355 50.4921 34.6963 50.218C35.065 50.1267 35.2493 50.0353 35.5258 50.0353C36.5396 49.6699 35.9866 49.6699 37.1847 50.0353L39.4888 50.7661C40.2261 51.1315 40.8712 51.2229 41.6085 51.771C42.6223 52.5018 41.4242 53.9635 40.2261 54.6943C38.0142 56.0646 35.4336 55.9732 33.1295 55.151C32.4844 54.9683 31.6549 54.3289 31.1941 53.7808C30.7333 53.2326 30.7333 52.9586 30.7333 52.3191ZM26.3095 41.905C26.3095 41.1742 24.3741 39.4385 24.0976 39.0731L22.2544 37.0633C22.07 36.7893 21.8857 36.6979 21.7014 36.3325C20.0425 34.6882 18.8443 32.4044 19.5816 30.1206L21.7935 25.9184C22.7152 24.5481 24.0054 22.6297 25.1114 21.5335C25.2036 21.3508 25.2957 21.3508 25.48 21.1681L25.6644 20.9854L27.6919 18.8843C29.1666 17.6054 29.443 17.7881 30.2725 18.6102C30.549 18.8843 30.6412 19.067 31.0098 19.341C31.8393 20.1632 33.2217 21.2594 34.3277 21.7162C35.8944 22.3557 37.5533 22.2643 39.1201 21.8075C39.5809 21.6248 39.6731 21.5335 40.1339 21.3508C41.7928 20.3459 42.3458 19.7065 43.5439 18.2448C43.8204 17.8794 43.7282 17.9708 44.2812 17.9708C44.8342 17.9708 46.2166 19.1583 46.5853 19.5237C46.8618 19.7978 46.8618 19.9805 47.1383 20.2546C47.8756 20.9854 48.2442 21.4421 48.9815 22.2643L52.3915 27.1973L52.5758 27.5627C53.0367 28.2935 53.5896 29.2984 53.774 30.2119C54.5113 32.4957 53.221 34.8709 51.5621 36.4239C51.2856 36.6979 51.1934 36.8806 50.9169 37.1547C49.811 38.4336 48.4285 39.4385 47.2304 41.0828C46.2166 42.3618 47.1383 43.0012 47.5069 43.6407C48.2442 44.9196 48.152 46.7467 47.3226 47.9342C45.9401 49.8526 42.6223 49.4872 40.5947 49.0305C40.3182 48.9391 40.2261 48.9391 39.8574 48.8477C39.4888 48.7564 39.3966 48.7564 39.1201 48.665C38.7515 48.5737 38.1063 48.4823 37.7377 48.2083C37.5533 48.0256 37.369 48.0256 37.369 47.6602C37.369 45.1937 37.5533 45.4677 39.3966 44.0974C40.0417 43.6407 41.5163 42.7272 41.5163 41.7223C41.5163 41.5396 40.779 41.1742 40.6869 40.9915C39.6731 40.4434 37.922 40.2607 36.7239 40.2607L34.3277 40.352C34.1433 40.4434 33.959 40.4434 33.7747 40.5347C33.3139 40.6261 31.7471 41.0828 31.7471 41.6309C31.7471 42.5445 33.959 44.0061 34.6041 44.4629C35.065 44.7369 35.8944 45.1937 35.8944 46.4726C35.8944 47.5688 36.0787 47.8429 35.5258 48.1169C34.9728 48.4823 34.1433 48.5737 33.4982 48.7564L31.9314 49.1218C30.1803 49.4872 27.8763 49.6699 26.4017 48.391C26.033 48.0256 25.9409 47.9342 25.6644 47.3861C25.2036 46.1985 25.2036 44.8283 25.8487 43.732C26.033 42.7272 26.3095 43.0926 26.3095 41.905ZM6.12222 35.6931C6.12222 36.8806 6.49087 37.8855 7.04384 38.799C7.22817 39.0731 7.22817 39.1644 7.41249 39.3471L11.8363 44.5542C13.2187 46.3812 12.9422 47.6602 13.2187 49.4872L13.4031 52.9586C13.5874 54.4202 13.8639 56.1559 14.8777 57.1608C15.615 57.8916 16.3523 58.1656 17.3661 58.5311C18.2877 58.7138 20.5917 59.0792 21.4212 58.9878C22.435 58.8965 24.5547 59.1705 25.5685 59.4446C26.5823 59.6273 27.3196 60.1754 28.1491 60.7235C29.808 61.9111 31.0061 63.5554 32.665 64.6516L34.4161 65.6565C35.7064 66.2046 37.2732 66.2046 38.4713 65.5652L40.1302 64.5603C41.4205 63.6468 42.3421 62.3678 43.6324 61.4543C44.6462 60.5408 45.8443 59.81 47.1346 59.4446C47.4111 59.2619 47.6875 59.3532 47.964 59.2619C48.4248 59.1705 48.1484 59.1705 48.7013 59.0792L51.2819 58.8965C52.6643 58.8051 54.1389 58.8051 55.5214 58.4397C55.7978 58.3484 55.89 58.3484 56.1665 58.257C59.0235 57.2521 59.1157 53.7808 59.3 51.2229C59.3922 50.7661 59.3 50.4921 59.3922 49.8526C59.4844 49.3045 59.5765 48.665 59.5765 48.1169C59.7608 46.4726 60.5903 44.9196 61.6041 43.6407L63.816 41.1742C65.4749 39.1644 67.1338 37.1547 66.1201 34.5055C65.8436 33.6833 65.2906 32.8611 64.7376 32.2217C64.5533 32.039 64.4611 31.9476 64.2768 31.6736L63.3552 30.6687L63.263 30.5773L61.9727 29.2071C61.1433 28.1108 60.2217 27.1973 59.7608 25.827C59.3 24.4568 59.3 22.9951 59.2079 21.6248L58.7471 17.3313C58.6549 16.9659 58.6549 16.8745 58.5627 16.6918C58.5013 16.4482 58.4091 16.2046 58.2862 15.961C57.6411 14.5907 56.3508 13.9513 55.0605 13.4945C52.7565 12.855 48.7935 13.4032 46.1208 12.3983C46.1208 12.3983 46.0286 12.3983 46.0286 12.3069C43.5402 11.3021 41.4205 8.3788 39.0243 6.91717C38.5634 6.64311 38.287 6.46041 37.734 6.18635C36.0751 5.45553 34.5083 6.00365 33.1259 6.82581C32.3886 7.28257 31.6513 7.83069 31.0061 8.47015L27.5039 11.5761C25.9372 12.6723 24.2782 12.7637 22.435 13.0378C21.4212 13.2205 19.8544 13.0378 18.8407 13.2205C18.5642 13.3118 18.3798 13.4032 18.1034 13.4032L16.5366 13.7686C15.5228 14.134 14.4169 14.8648 13.956 15.8697C13.2187 17.3313 13.2187 18.9756 13.0344 20.62C12.9422 21.6248 12.8501 24 12.6658 24.8222C12.4814 25.553 12.2971 26.1924 11.9285 26.9233C11.7441 27.2887 11.4676 27.6541 11.1912 28.0195C10.4539 29.0244 9.53223 30.0292 8.51845 31.0341C7.87331 31.6736 7.41249 32.4044 6.85952 33.1352C6.58303 33.7747 6.12222 34.7795 6.12222 35.6931Z" fill="#051341"/>
<path fill-rule="evenodd" clip-rule="evenodd" d="M24.9861 27.8039L25.539 28.9001C25.539 28.9001 25.539 28.9915 25.6312 28.9915C26.092 29.6309 26.7371 29.7223 27.5666 30.0877C27.9353 30.179 30.7001 31.458 30.8845 31.3666C31.2531 31.2753 31.1609 31.458 31.3453 30.4531C31.7139 27.9866 31.5296 27.4385 29.1334 27.4385C28.3039 27.3471 25.4469 27.5298 24.9861 27.8039Z" fill="#051341"/>
<path fill-rule="evenodd" clip-rule="evenodd" d="M41.214 28.9111C41.214 29.6419 41.3062 30.8295 41.6749 31.3776C42.4122 31.1949 44.1632 30.3727 45.0849 30.0073C45.5457 29.8246 46.4673 29.5505 46.7438 29.2765C47.0203 29.0024 47.4811 28.2716 47.4811 27.6322C46.9281 27.6322 46.0987 27.4494 45.5457 27.4494C44.8084 27.3581 42.4122 27.2667 41.6749 27.5408C41.4905 27.8149 41.214 28.2716 41.214 28.9111Z" fill="#051341"/>
<path d="M7.72953 35.3825H13.1671C13.1671 30.8149 14.2731 26.6127 16.2085 22.8672C14.8261 22.4105 13.5358 21.8624 12.2455 21.4056C12.1533 21.3142 12.0612 21.3142 12.0612 21.3142C12.1226 21.2533 12.1533 21.1924 12.1533 21.1315C12.2455 21.2229 12.3377 21.2229 12.3377 21.2229C13.5358 21.771 14.9182 22.2278 16.3007 22.6845C17.6831 20.1267 19.342 17.8429 21.2774 15.8331C22.1991 14.8283 23.2128 14.0061 24.1345 13.2753C23.3972 13.0012 22.8442 12.7272 22.1991 12.3617C22.1069 12.2704 21.9226 12.179 21.8304 12.179C21.8919 12.1181 21.9533 12.0877 22.0147 12.0877C22.1376 12.1486 22.2298 12.2095 22.2912 12.2704C22.9364 12.6358 23.5815 12.9099 24.2266 13.2753C27.0837 11.1742 30.3094 9.62119 33.6272 8.70767C33.9959 8.61631 34.3645 8.61631 34.641 8.61631C30.8623 9.43848 27.268 11.0828 24.3188 13.3666C25.7934 14.0061 27.4523 14.4628 29.2956 14.8283C29.7564 14.1888 30.3094 13.5493 30.7702 13.0012C32.2448 11.3569 33.9037 9.89524 35.6548 8.70767H36.0234C34.1802 9.98659 32.5213 11.5396 31.0467 13.1839C30.4937 13.732 30.0329 14.2801 29.6642 14.9196C31.6918 15.3764 33.9959 15.5591 36.2999 15.5591V8.70767H36.4843V15.5591C38.7883 15.5591 41.0924 15.3764 43.12 14.9196C42.6592 14.2801 42.1062 13.732 41.6454 13.1839C40.0786 11.5396 38.4197 9.98659 36.6686 8.70767H36.9451C38.6962 9.98659 40.3551 11.4482 41.8297 13.0012C42.3827 13.5493 42.8435 14.1888 43.3965 14.8283C45.1475 14.4628 46.8065 14.0061 48.3732 13.3666C45.3319 11.1742 41.8297 9.43848 38.051 8.61631C38.4197 8.61631 38.7883 8.70767 39.0648 8.70767C42.567 9.62119 45.7927 11.1742 48.4654 13.2753C49.2027 13.0012 49.8478 12.7272 50.4008 12.2704C50.493 12.179 50.5851 12.179 50.6773 12.0877C50.7387 12.1486 50.8002 12.179 50.8616 12.179C50.7695 12.2704 50.5851 12.3617 50.493 12.3617C49.94 12.7272 49.2949 13.0012 48.5576 13.2753C49.5713 14.0061 50.5851 14.9196 51.4146 15.8331C53.35 17.8429 55.1011 20.1267 56.3914 22.6845C57.7738 22.2278 59.0641 21.6797 60.3544 21.2229C60.4465 21.1315 60.5387 21.1315 60.5387 21.1315C60.6001 21.1924 60.6616 21.2533 60.723 21.3142C60.6001 21.3751 60.508 21.4056 60.4465 21.4056C59.2484 21.9537 57.866 22.4105 56.4835 22.8672C58.419 26.6127 59.4327 30.8149 59.5249 35.3825H65.0547V35.5652H59.6171C59.6171 40.1328 58.5111 44.335 56.5757 48.0804C57.9581 48.5371 59.2484 49.0853 60.5387 49.542C60.6616 49.6029 60.7537 49.6334 60.8152 49.6334C60.7537 49.6943 60.723 49.7552 60.723 49.8161C60.6309 49.7247 60.5387 49.7247 60.5387 49.7247C59.3406 49.1766 57.9581 48.7199 56.5757 48.2631C55.1933 50.8209 53.5343 53.1047 51.5989 55.1145C50.6773 56.028 49.6635 56.8502 48.7419 57.6723C49.4792 57.9464 50.0322 58.2205 50.6773 58.5859C50.7695 58.6772 50.9538 58.7686 51.0459 58.7686C50.9845 58.8295 50.9231 58.8599 50.8616 58.8599C50.7387 58.799 50.6466 58.7381 50.5851 58.6772C49.94 58.4032 49.2949 58.0378 48.6497 57.6723C45.7927 59.7734 42.567 61.3264 39.2491 62.2399C38.8805 62.3313 38.5118 62.3313 38.2353 62.3313C42.014 61.5091 45.6084 59.8648 48.5576 57.581C47.083 56.9415 45.424 56.4848 43.5808 56.1194C43.12 56.7588 42.567 57.3983 42.014 57.9464C40.5394 59.5907 38.8805 61.0524 37.1294 62.2399H36.8529C38.6962 60.8697 40.3551 59.408 41.8297 57.7637C42.3827 57.2156 42.8435 56.5761 43.3043 56.028C41.2767 55.5712 38.9726 55.3885 36.6686 55.3885V62.2399H36.4843V55.3885C34.1802 55.3885 31.8761 55.5712 29.8486 56.028C30.3094 56.6675 30.8623 57.2156 31.231 57.7637C32.7978 59.408 34.4567 60.961 36.2078 62.2399H35.8391C34.088 60.961 32.4291 59.4994 30.9545 57.9464C30.4015 57.3983 29.9407 56.7588 29.4799 56.1194C27.6367 56.4848 26.0699 56.9415 24.5031 57.581C27.5445 59.7734 31.0467 61.5091 34.8253 62.3313C34.4567 62.3313 34.088 62.2399 33.8115 62.2399C30.3094 61.3264 27.0837 59.7734 24.411 57.6723C23.6737 57.9464 23.0285 58.2205 22.4755 58.5859C22.3834 58.6772 22.2912 58.7686 22.1991 58.7686C22.1376 58.7077 22.0762 58.6772 22.0147 58.6772C22.1991 58.5859 22.2912 58.4945 22.3834 58.4945C22.9364 58.1291 23.5815 57.855 24.3188 57.581C23.305 56.8502 22.2912 55.9367 21.4618 55.0231C19.4342 53.0134 17.7753 50.7296 16.485 48.1717C15.1025 48.6285 13.7201 49.1766 12.522 49.6334C12.4298 49.7247 12.3377 49.7247 12.3377 49.7247C12.2762 49.6638 12.2455 49.6029 12.2455 49.542C12.3377 49.4507 12.4298 49.4507 12.4298 49.4507C13.6279 48.9026 15.0104 48.4458 16.3928 47.989C14.4574 44.2436 13.4436 40.0414 13.3515 35.4738H7.91386V35.3825H7.72953ZM43.4001 14.8246C45.612 17.6565 47.271 20.9452 48.3769 24.5079C51.234 24.0512 53.8145 23.503 56.3029 22.6809C54.9205 20.123 53.3537 17.8392 51.3261 15.9208C50.4045 15.0073 49.3907 14.0938 48.3769 13.2716C46.9023 14.0024 45.2434 14.4592 43.4001 14.8246ZM48.4691 24.6906C49.4829 27.9793 50.128 31.542 50.128 35.1961H59.3443C59.3443 30.7198 58.2383 26.4263 56.3029 22.7722C53.9988 23.5944 51.4183 24.2339 48.4691 24.6906ZM50.128 35.4702C50.128 39.2156 49.575 42.7783 48.4691 45.9756C51.3261 46.4324 53.9988 47.0719 56.3951 47.8027C58.3305 44.0572 59.3443 39.855 59.4364 35.3788L50.128 35.4702ZM48.4691 46.2497C47.271 49.8124 45.612 53.1011 43.4923 55.933C45.3356 56.2984 46.9945 56.8465 48.4691 57.3946C49.4829 56.6638 50.4967 55.7503 51.4183 54.7454C53.3537 52.7357 55.1048 50.4519 56.3951 47.9854C53.9067 47.2546 51.3261 46.7065 48.4691 46.2497ZM43.2158 55.8417C45.4277 53.0097 47.1788 49.7211 48.2848 46.1583C44.5983 45.6102 40.6353 45.2448 36.4879 45.1535V55.1108C38.8842 55.2935 41.0961 55.4762 43.2158 55.8417ZM48.3769 46.067C49.3907 42.7783 50.0358 39.2156 50.0358 35.5615H36.5764V45.2448C40.6316 45.1535 44.5946 45.4275 48.3732 46.067H48.3769ZM49.9437 35.3788C49.9437 31.7247 49.3907 28.0706 48.2848 24.8733C44.5983 25.4214 40.6353 25.8782 36.4879 25.8782V35.4702H49.9474V35.3788H49.9437ZM48.2848 24.5993C47.0866 21.0365 45.4277 17.7479 43.2158 14.9159C41.0961 15.3727 38.8842 15.5554 36.4879 15.5554V25.5128C40.6353 25.5128 44.5983 25.2387 48.2848 24.5993ZM29.5721 14.9159C27.3602 17.7479 25.6091 21.0365 24.5031 24.5993C28.2818 25.1474 32.1526 25.6041 36.2999 25.6041V15.6468C33.9037 15.4641 31.6918 15.2814 29.5721 14.9159ZM24.5031 24.782C23.4893 28.0706 22.8442 31.6334 22.8442 35.2874H36.3036V25.6041C32.1563 25.6955 28.1012 25.3301 24.5068 24.782H24.5031ZM22.8442 35.4702C22.8442 39.2156 23.3972 42.7783 24.5031 45.9756C28.1896 45.4275 32.1526 44.9708 36.2999 44.9708V35.2874L22.8405 35.4702H22.8442ZM24.5031 46.1583C25.6091 49.7211 27.3602 53.0097 29.5721 55.8417C31.6918 55.3849 33.9037 55.2022 36.2999 55.2022V45.3362C32.1526 45.2448 28.0975 45.6102 24.5031 46.1583ZM29.3877 55.8417C27.1758 53.0097 25.5169 49.7211 24.411 46.1583C21.5539 46.6151 18.9734 47.2546 16.485 47.9854C17.8674 50.5432 19.4342 52.7357 21.4618 54.7454C22.4755 55.7503 23.3972 56.5725 24.411 57.3946C25.8856 56.7552 27.5445 56.2984 29.3877 55.8417ZM24.2266 46.067C23.2128 42.7783 22.5677 39.2156 22.5677 35.5615H13.2593C13.2593 40.0378 14.3652 44.2399 16.2085 47.9854C18.789 47.0719 21.4618 46.5237 24.2266 46.067ZM22.6599 35.3788C22.6599 31.6334 23.2128 28.0706 24.3188 24.8733C21.4618 24.4166 18.789 23.7771 16.3928 23.0463C14.4574 26.7917 13.4436 30.9939 13.3515 35.4702L22.6599 35.3788ZM24.3188 24.5993C25.5169 21.0365 27.1758 17.7479 29.2956 14.9159C27.4523 14.5505 25.7934 14.0024 24.3188 13.4543C23.305 14.1851 22.2912 15.0987 21.3696 16.1035C19.4342 18.1133 17.6831 20.3971 16.3928 22.8636C18.789 23.503 21.4618 24.1425 24.3188 24.5993Z" fill="white"/>
<path fill-rule="evenodd" clip-rule="evenodd" d="M24.2103 13.0125C27.0603 10.9385 30.2683 9.40306 33.5675 8.49466L33.5703 8.49389L33.5731 8.49319C33.9685 8.39522 34.3598 8.39523 34.6337 8.39524H38.051C38.2519 8.39524 38.4497 8.42009 38.622 8.44286L38.6532 8.447C38.8183 8.46887 38.9521 8.48659 39.0648 8.48659H39.0937L39.1216 8.49387C42.6076 9.40318 45.8252 10.942 48.5045 13.0243C49.1847 12.7675 49.759 12.5108 50.2513 12.1061C50.3205 12.0401 50.3901 12.0056 50.4349 11.9835L50.4393 11.9813C50.4853 11.9585 50.5016 11.9492 50.5196 11.9314L50.6773 11.775L50.835 11.9314C50.8519 11.9481 50.8632 11.9553 50.8682 11.958H51.4001L51.0193 12.3354C50.9512 12.4029 50.86 12.4613 50.777 12.5024C50.7208 12.5302 50.647 12.561 50.5718 12.575C50.1077 12.8752 49.5863 13.1135 49.0149 13.3378C49.9299 14.0319 50.8281 14.8571 51.5782 15.6828C53.4809 17.6589 55.2103 19.9024 56.5033 22.4138C57.1248 22.2038 57.7292 21.9762 58.3271 21.7475C58.4332 21.7069 58.5392 21.6662 58.645 21.6256C59.1782 21.421 59.7081 21.2178 60.2377 21.0295C60.2981 20.9798 60.3588 20.9503 60.4106 20.9332C60.4419 20.9229 60.4695 20.9172 60.4913 20.9141C60.5022 20.9126 60.5118 20.9117 60.5197 20.9111C60.5237 20.9109 60.5273 20.9107 60.5304 20.9106L60.5349 20.9105L60.5369 20.9105L60.5378 20.9105L60.5383 20.9105C60.5383 20.9105 60.5387 20.9105 60.5387 21.1315V20.9105H60.6311L61.0995 21.3748L60.8228 21.512C60.7179 21.564 60.6068 21.6097 60.5037 21.6229C59.3727 22.137 58.0844 22.5708 56.7992 22.9959C58.6451 26.6561 59.6253 30.7397 59.7428 35.1614H65.2777V35.7862H59.8392C59.8049 40.2124 58.7388 44.2959 56.8909 47.9527C57.5006 48.1602 58.0922 48.3831 58.6721 48.605C58.779 48.6459 58.8855 48.6867 58.9917 48.7275C59.5389 48.9374 60.0762 49.1436 60.6137 49.3338L60.6264 49.3383L60.6384 49.3443C60.694 49.3718 60.7376 49.3899 60.7705 49.4008C60.805 49.4122 60.8178 49.4123 60.8153 49.4123H61.3536L60.9729 49.7897C60.956 49.8064 60.9488 49.8176 60.946 49.8226V50.3498L60.5653 49.9724C60.5465 49.9537 60.5314 49.9477 60.5258 49.9459V49.9459L60.4897 49.9458L60.4452 49.9254C59.3112 49.4067 58.0074 48.9695 56.683 48.5316C55.3095 51.04 53.6687 53.2854 51.7603 55.2671L51.7567 55.2709C51.1226 55.8994 50.4409 56.4887 49.782 57.0584C49.5722 57.2399 49.3646 57.4193 49.1617 57.5974C49.7508 57.8347 50.2378 58.0823 50.788 58.3939L50.8139 58.4086L50.835 58.4295C50.859 58.4533 50.9061 58.4863 50.9614 58.5137C50.9877 58.5268 51.0114 58.5363 51.0301 58.5422C51.0418 58.5459 51.0484 58.5471 51.0502 58.5475H51.5844L51.2037 58.9249C51.1179 59.0099 51.0031 59.081 50.8616 59.081H50.809L50.7619 59.0577C50.6453 58.9999 50.5421 58.9364 50.461 58.8649C49.8573 58.6054 49.2559 58.2699 48.6653 57.9357C45.8154 60.0095 42.6078 61.5446 39.3088 62.453L39.306 62.4537L39.3032 62.4544C38.9079 62.5524 38.5165 62.5524 38.2427 62.5524H34.8253C34.6244 62.5524 34.4267 62.5275 34.2544 62.5048L34.2229 62.5006C34.058 62.4787 33.9243 62.461 33.8115 62.461H33.7827L33.7548 62.4537C30.2688 61.5444 27.0511 60.0056 24.3718 57.9233C23.6966 58.178 23.1157 58.4317 22.6175 58.7578C22.5765 58.7984 22.5252 58.8482 22.4711 58.8883C22.4122 58.9321 22.3179 58.9896 22.1991 58.9896H22.1067L22.0413 58.9249C22.0245 58.9082 22.0132 58.901 22.0081 58.8983H21.0699L21.915 58.4795C21.9756 58.4494 22.0213 58.4215 22.0682 58.3927C22.0847 58.3826 22.1014 58.3725 22.1189 58.362C22.1594 58.338 22.2238 58.2996 22.3028 58.2824C22.7673 57.9817 23.2893 57.743 23.8614 57.5185C22.9471 56.8249 22.0496 56.0005 21.2999 55.1754C19.3026 53.1948 17.6602 50.9502 16.3729 48.4423C15.3106 48.7993 14.2535 49.2057 13.2807 49.5795C13.063 49.6632 12.8494 49.7453 12.641 49.8249C12.5798 49.8757 12.5182 49.9057 12.4658 49.923C12.4344 49.9334 12.4068 49.9391 12.385 49.9421C12.3741 49.9437 12.3646 49.9446 12.3566 49.9451C12.3527 49.9454 12.3491 49.9456 12.3459 49.9457L12.3415 49.9458L12.3395 49.9458H12.3386H12.3381C12.3381 49.9458 12.3377 49.9458 12.3377 49.7247V49.9458H12.2453L12.18 49.881C12.0942 49.796 12.0225 49.6822 12.0225 49.542V49.4504L12.0878 49.3857C12.1611 49.313 12.2382 49.2733 12.3017 49.2524C12.3264 49.2442 12.3488 49.2389 12.3679 49.2356C13.4553 48.7408 14.6883 48.3205 15.9244 47.9109C14.136 44.2188 13.058 40.0897 13.0366 35.6949H7.69083V35.3825H7.72953V35.1614H12.945C12.9793 30.7352 14.0454 26.6517 15.8933 22.9949C15.2836 22.7874 14.6919 22.5645 14.1121 22.3427C14.0052 22.3018 13.8988 22.2609 13.7927 22.2202C13.2454 22.0102 12.708 21.8041 12.1705 21.6138L12.1233 21.5971L12.0878 21.5619C12.069 21.5432 12.0539 21.5372 12.0482 21.5354V21.5354L11.5227 21.5353L11.9035 21.1579C11.9203 21.1412 11.9276 21.13 11.9303 21.125V20.5978L12.311 20.9752C12.3299 20.9939 12.345 20.9999 12.3506 21.0017V21.0017L12.3867 21.0018L12.4311 21.0222C13.5652 21.541 14.8689 21.9781 16.1933 22.416C17.5664 19.9084 19.2066 17.6636 21.1142 15.6824C21.9479 14.7738 22.8542 14.0142 23.6944 13.342C23.1144 13.1072 22.6322 12.8617 22.0884 12.5537L22.0625 12.539L22.0413 12.5181C22.0173 12.4943 21.9703 12.4613 21.915 12.4339C21.8887 12.4208 21.8649 12.4113 21.8463 12.4054C21.8345 12.4017 21.828 12.4005 21.8262 12.4001H21.292L21.6727 12.0227C21.7585 11.9377 21.8733 11.8666 22.0147 11.8666H22.0674L22.1145 11.89C22.236 11.9502 22.3429 12.0165 22.4254 12.0917C22.734 12.2654 23.0433 12.4188 23.3587 12.5751L23.3612 12.5764C23.6407 12.7149 23.9249 12.8557 24.2103 13.0125ZM24.9628 57.636C27.9067 59.7032 31.2651 61.3303 34.8732 62.1154L35.4734 62.246C33.7983 61.0013 32.2119 59.5929 30.7944 58.1003C30.2618 57.572 29.8144 56.9632 29.3824 56.3644C27.7586 56.693 26.3514 57.0954 24.9628 57.636ZM36.4618 62.461L36.5303 62.4759L36.5989 62.461H36.4618ZM37.4777 62.2698L38.1875 62.1154C41.8071 61.3278 45.2547 59.7798 48.1183 57.6367C46.7896 57.0968 45.3105 56.6938 43.6774 56.3642C43.2282 56.9732 42.7024 57.5762 42.1764 58.0981C40.754 59.6835 39.1609 61.101 37.4777 62.2698ZM47.8573 13.2723C44.927 11.2237 41.5884 9.61231 38.0032 8.83224L37.2725 8.67327C38.9617 9.92484 40.5615 11.3434 41.9898 12.8472C42.3523 13.2069 42.6835 13.6138 43.0172 14.0239C43.1696 14.2111 43.3225 14.399 43.4791 14.5833C43.5307 14.5729 43.5821 14.5624 43.6334 14.5519C44.5744 14.3489 45.4866 14.118 46.3705 13.8448C46.8858 13.6756 47.3813 13.4868 47.8573 13.2723ZM36.4146 8.48659H36.2774L36.346 8.47167L36.4146 8.48659ZM35.2646 8.70697L34.6888 8.83224C31.0693 9.6198 27.6216 11.1678 24.7581 13.311C26.0868 13.8508 27.5659 14.2538 29.1989 14.5834C29.581 14.0651 30.0153 13.5509 30.4015 13.0937C30.4689 13.0139 30.5349 12.9358 30.5988 12.8597L30.6011 12.857L30.6035 12.8543C32.0151 11.2802 33.5951 9.87136 35.2646 8.70697ZM30.2346 56.1708C30.3913 56.3705 30.5546 56.5632 30.7166 56.7542L30.7451 56.7879C30.9813 57.0666 31.2155 57.3447 31.4059 57.6253C32.94 59.2344 34.5583 60.7504 36.2612 62.0041V55.6102C34.1699 55.621 32.092 55.7857 30.2346 56.1708ZM48.4146 13.5888C47.7924 13.8411 47.1563 14.0649 46.5066 14.2658C45.6494 14.547 44.7444 14.7731 43.7933 14.9705C45.8775 17.7117 47.4567 20.8609 48.5324 24.2589C51.2105 23.825 53.6404 23.3072 55.9801 22.5535C54.6356 20.1025 53.116 17.9199 51.1721 16.0807L51.1684 16.0772C50.306 15.2224 49.3625 14.3676 48.4146 13.5888ZM24.3535 13.7032C23.3855 14.4122 22.4179 15.2892 21.5346 16.2522L21.5328 16.2542L21.5309 16.2562C19.6709 18.1876 17.9854 20.3705 16.7201 22.7217C18.9897 23.3219 21.4973 23.9153 24.1677 24.3509C25.3279 20.9532 26.9083 17.804 28.9106 15.0626C27.2336 14.7059 25.7138 14.2055 24.3535 13.7032ZM16.5068 23.312C14.6754 26.9197 13.6989 30.9521 13.5799 35.2468L22.4375 35.1599C22.4581 31.5693 22.9859 28.1455 24.0234 25.0494C21.3244 24.6058 18.7929 24.0009 16.5068 23.312ZM13.5822 35.7826C13.7101 40.1058 14.6752 44.0901 16.4742 47.6588C18.8888 46.836 21.3793 46.3197 23.9398 45.8905C22.9832 42.7183 22.3702 39.2955 22.3455 35.7826H13.5822ZM16.8121 48.1203C18.1539 50.5598 19.6731 52.6599 21.6195 54.5891C22.5929 55.554 23.4803 56.3489 24.4473 57.1382C25.8187 56.5569 27.3409 56.1271 29.0049 55.7092C26.9156 52.9649 25.333 49.8109 24.2555 46.4075C21.5862 46.8437 19.1567 47.4398 16.8121 48.1203ZM29.6629 55.5963C31.6936 55.1707 33.8061 54.9925 36.0769 54.9816V45.5528C32.1195 45.4808 28.2505 45.8226 24.7935 46.3382C25.8801 49.7349 27.558 52.8752 29.6629 55.5963ZM36.8916 55.6102V61.9342C38.6563 60.6084 40.2461 59.1968 41.663 57.6168L41.6673 57.612L41.672 57.6074C42.0461 57.2365 42.3717 56.8294 42.6933 56.4272C42.7628 56.3403 42.8322 56.2535 42.9018 56.1674C41.0486 55.7847 38.9768 55.621 36.8916 55.6102ZM43.8773 55.7863C45.5542 56.143 47.074 56.6434 48.4344 57.1458C49.4024 56.4367 50.37 55.5598 51.2533 54.5967L51.2551 54.5947L51.257 54.5928C53.1185 52.6597 54.8053 50.4749 56.0709 48.1215C53.7284 47.4473 51.2967 46.9315 48.6202 46.498C47.46 49.8957 45.8796 53.045 43.8773 55.7863ZM56.281 47.5369C58.1124 43.9293 59.089 39.8969 59.2079 35.6021L50.3504 35.6891C50.3298 39.2796 49.802 42.7034 48.7644 45.7995C51.4635 46.2431 53.9949 46.848 56.281 47.5369ZM59.1203 34.975C59.0851 30.6835 58.0265 26.5698 56.1947 23.0452C53.9889 23.8182 51.5352 24.4259 48.7565 24.8693C49.7128 28.0409 50.3255 31.4629 50.3503 34.975H59.1203ZM42.7338 14.7768C42.496 14.4747 42.2445 14.1951 41.9945 13.9172C41.82 13.7233 41.6463 13.5302 41.4785 13.3307C39.9697 11.7476 38.3795 10.2542 36.7073 9.01163V15.3338C37.6065 15.3296 38.479 15.2988 39.3297 15.2367C40.5115 15.1486 41.6595 14.9996 42.7338 14.7768ZM36.0769 15.3374V8.94065C34.2809 10.1975 32.6595 11.7182 31.2134 13.3308L31.209 13.3356L31.2044 13.3402C30.7391 13.8014 30.3451 14.2577 30.0183 14.7661C31.5735 15.016 33.1829 15.1748 34.8863 15.3141C35.2817 15.3277 35.6791 15.3354 36.0769 15.3374ZM29.8524 15.1872C31.4126 15.5192 33.1218 15.6951 34.8599 15.7556C35.2608 15.7883 35.6663 15.82 36.0769 15.8514V25.3826C32.1239 25.367 28.4187 24.9389 24.794 24.4179C25.8813 21.0196 27.5603 17.8782 29.6667 15.1564C29.7285 15.1668 29.7904 15.1771 29.8524 15.1872ZM36.711 54.9062C38.9785 55.0799 41.0914 55.2591 43.1212 55.6012C45.2277 52.8793 46.9068 49.7375 47.9941 46.339C45.0687 45.9124 41.9713 45.6016 38.7478 45.452C38.0718 45.4453 37.3927 45.449 36.711 45.463V54.9062ZM47.9903 24.4252C46.8212 21.0216 45.2261 17.8804 43.125 15.1613C41.9061 15.4168 40.6577 15.5831 39.3634 15.6776C38.4901 15.7427 37.6007 15.7749 36.711 15.7795V25.2914C40.6719 25.282 44.4583 25.0196 47.9903 24.4252ZM36.0806 25.8297C32.069 25.9021 28.1518 25.5527 24.6607 25.0289C23.7046 28.1828 23.0929 31.5823 23.068 35.0664H36.0806V25.8297ZM23.0679 35.6882C23.0885 39.2646 23.6183 42.6654 24.6545 45.7297C28.2274 45.2028 32.0638 44.7658 36.0769 44.7501V35.5116L23.0679 35.6882ZM36.711 35.2491H49.7204C49.7077 31.7256 49.1778 28.2108 48.1333 25.1193C44.5604 25.6461 40.7241 26.0831 36.711 26.0988V35.2491ZM36.7995 44.9397C37.458 44.9564 38.1117 44.9799 38.7605 45.01C41.9992 45.0424 45.1685 45.3114 48.2202 45.8172C49.1758 42.6641 49.7871 39.2656 49.812 35.7826H36.7995V44.9397Z" fill="white"/>
<path fill-rule="evenodd" clip-rule="evenodd" d="M11.5746 10.1291C12.3119 10.1291 12.8649 10.6772 12.8649 11.408C12.8649 12.1389 12.3119 12.687 11.5746 12.687C10.8373 12.687 10.2843 12.1389 10.2843 11.408C10.1921 10.7686 10.8373 10.1291 11.5746 10.1291Z" fill="#051341"/>
<path fill-rule="evenodd" clip-rule="evenodd" d="M61.0733 10.1291C61.8106 10.1291 62.3635 10.6772 62.3635 11.408C62.3635 12.1389 61.8106 12.687 61.0733 12.687C60.336 12.687 59.783 12.1389 59.783 11.408C59.6908 10.7686 60.336 10.1291 61.0733 10.1291Z" fill="#051341"/>
<path fill-rule="evenodd" clip-rule="evenodd" d="M11.5746 59.4629C12.3119 59.4629 12.8649 60.011 12.8649 60.7418C12.8649 61.4726 12.3119 62.0207 11.5746 62.0207C10.8373 62.0207 10.2843 61.4726 10.2843 60.7418C10.1921 60.011 10.8373 59.4629 11.5746 59.4629Z" fill="#051341"/>
<path fill-rule="evenodd" clip-rule="evenodd" d="M61.0733 59.4629C61.8106 59.4629 62.3635 60.011 62.3635 60.7418C62.3635 61.4726 61.8106 62.0207 61.0733 62.0207C60.336 62.0207 59.783 61.4726 59.783 60.7418C59.6908 60.011 60.336 59.4629 61.0733 59.4629Z" fill="#051341"/>
<path fill-rule="evenodd" clip-rule="evenodd" d="M1.30029 34.7942C2.03759 34.7942 2.59057 35.3423 2.59057 36.0731C2.59057 36.8039 2.03759 37.352 1.30029 37.352C0.562989 37.352 0.0100132 36.8039 0.0100132 36.0731C-0.0821494 35.3423 0.470826 34.7942 1.30029 34.7942Z" fill="#051341"/>
<path fill-rule="evenodd" clip-rule="evenodd" d="M71.2554 34.7942C71.9927 34.7942 72.5456 35.3423 72.5456 36.0731C72.5456 36.8039 71.9927 37.352 71.2554 37.352C70.5181 37.352 69.9651 36.8039 69.9651 36.0731C69.9651 35.3423 70.6102 34.7942 71.2554 34.7942Z" fill="#051341"/>
<path fill-rule="evenodd" clip-rule="evenodd" d="M34.9581 70.7211C34.9581 69.9903 35.511 69.4421 36.2483 69.4421C36.9856 69.4421 37.5386 69.9903 37.5386 70.7211C37.5386 71.4519 36.9856 72 36.2483 72C35.6032 72 34.9581 71.4519 34.9581 70.7211Z" fill="#051341"/>
<path fill-rule="evenodd" clip-rule="evenodd" d="M34.9581 1.27893C34.9581 0.548112 35.511 0 36.2483 0C36.9856 0 37.5386 0.548112 37.5386 1.27893C37.5386 2.00974 36.9856 2.55786 36.2483 2.55786C35.6032 2.55786 34.9581 2.00974 34.9581 1.27893Z" fill="#051341"/>
<path fill-rule="evenodd" clip-rule="evenodd" d="M30.7333 52.3191C30.7333 52.0451 31.102 51.8624 31.1941 51.771C31.9314 51.2229 32.5766 51.1315 33.2217 50.7661C33.6825 50.5834 34.2355 50.4921 34.6963 50.218C35.065 50.1267 35.2493 50.0353 35.5258 50.0353C36.5396 49.6699 35.9866 49.6699 37.1847 50.0353L39.4888 50.7661C40.2261 51.1315 40.8712 51.2229 41.6085 51.771C42.6223 52.5018 41.4242 53.9635 40.2261 54.6943C38.0142 56.0646 35.4336 55.9732 33.1295 55.151C32.4844 54.9683 31.6549 54.3289 31.1941 53.7808C30.7333 53.2326 30.7333 52.9586 30.7333 52.3191ZM26.3095 41.905C26.3095 41.1742 24.3741 39.4385 24.0976 39.0731L22.2544 37.0633C22.07 36.7893 21.8857 36.6979 21.7014 36.3325C20.0425 34.6882 18.8443 32.4044 19.5816 30.1206L21.7935 25.9184C22.7152 24.5481 24.0054 22.6297 25.1114 21.5335C25.2036 21.3508 25.2957 21.3508 25.48 21.1681L25.6644 20.9854L27.6919 18.8843C29.1666 17.6054 29.443 17.7881 30.2725 18.6102C30.549 18.8843 30.6412 19.067 31.0098 19.341C31.8393 20.1632 33.2217 21.2594 34.3277 21.7162C35.8944 22.3557 37.5533 22.2643 39.1201 21.8075C39.5809 21.6248 39.6731 21.5335 40.1339 21.3508C41.7928 20.3459 42.3458 19.7065 43.5439 18.2448C43.8204 17.8794 43.7282 17.9708 44.2812 17.9708C44.8342 17.9708 46.2166 19.1583 46.5853 19.5237C46.8618 19.7978 46.8618 19.9805 47.1383 20.2546C47.8756 20.9854 48.2442 21.4421 48.9815 22.2643L52.3915 27.1973L52.5758 27.5627C53.0367 28.2935 53.5896 29.2984 53.774 30.2119C54.5113 32.4957 53.221 34.8709 51.5621 36.4239C51.2856 36.6979 51.1934 36.8806 50.9169 37.1547C49.811 38.4336 48.4285 39.4385 47.2304 41.0828C46.2166 42.3618 47.1383 43.0012 47.5069 43.6407C48.2442 44.9196 48.152 46.7467 47.3226 47.9342C45.9401 49.8526 42.6223 49.4872 40.5947 49.0305C40.3182 48.9391 40.2261 48.9391 39.8574 48.8477C39.4888 48.7564 39.3966 48.7564 39.1201 48.665C38.7515 48.5737 38.1063 48.4823 37.7377 48.2083C37.5533 48.0256 37.369 48.0256 37.369 47.6602C37.369 45.1937 37.5533 45.4677 39.3966 44.0974C40.0417 43.6407 41.5163 42.7272 41.5163 41.7223C41.5163 41.5396 40.779 41.1742 40.6869 40.9915C39.6731 40.4434 37.922 40.2607 36.7239 40.2607L34.3277 40.352C34.1433 40.4434 33.959 40.4434 33.7747 40.5347C33.3139 40.6261 31.7471 41.0828 31.7471 41.6309C31.7471 42.5445 33.959 44.0061 34.6041 44.4629C35.065 44.7369 35.8944 45.1937 35.8944 46.4726C35.8944 47.5688 36.0787 47.8429 35.5258 48.1169C34.9728 48.4823 34.1433 48.5737 33.4982 48.7564L31.9314 49.1218C30.1803 49.4872 27.8763 49.6699 26.4017 48.391C26.033 48.0256 25.9409 47.9342 25.6644 47.3861C25.2036 46.1985 25.2036 44.8283 25.8487 43.732C26.033 42.7272 26.3095 43.0926 26.3095 41.905ZM6.12222 35.6931C6.12222 36.8806 6.49087 37.8855 7.04384 38.799C7.22817 39.0731 7.22817 39.1644 7.41249 39.3471L11.8363 44.5542C13.2187 46.3812 12.9422 47.6602 13.2187 49.4872L13.4031 52.9586C13.5874 54.4202 13.8639 56.1559 14.8777 57.1608C15.615 57.8916 16.3523 58.1656 17.3661 58.5311C18.2877 58.7138 20.5917 59.0792 21.4212 58.9878C22.435 58.8965 24.5547 59.1705 25.5685 59.4446C26.5823 59.6273 27.3196 60.1754 28.1491 60.7235C29.808 61.9111 31.0061 63.5554 32.665 64.6516L34.4161 65.6565C35.7064 66.2046 37.2732 66.2046 38.4713 65.5652L40.1302 64.5603C41.4205 63.6468 42.3421 62.3678 43.6324 61.4543C44.6462 60.5408 45.8443 59.81 47.1346 59.4446C47.4111 59.2619 47.6875 59.3532 47.964 59.2619C48.4248 59.1705 48.1484 59.1705 48.7013 59.0792L51.2819 58.8965C52.6643 58.8051 54.1389 58.8051 55.5214 58.4397C55.7978 58.3484 55.89 58.3484 56.1665 58.257C59.0235 57.2521 59.1157 53.7808 59.3 51.2229C59.3922 50.7661 59.3 50.4921 59.3922 49.8526C59.4844 49.3045 59.5765 48.665 59.5765 48.1169C59.7608 46.4726 60.5903 44.9196 61.6041 43.6407L63.816 41.1742C65.4749 39.1644 67.1338 37.1547 66.1201 34.5055C65.8436 33.6833 65.2906 32.8611 64.7376 32.2217C64.5533 32.039 64.4611 31.9476 64.2768 31.6736L63.3552 30.6687L63.263 30.5773L61.9727 29.2071C61.1433 28.1108 60.2217 27.1973 59.7608 25.827C59.3 24.4568 59.3 22.9951 59.2079 21.6248L58.7471 17.3313C58.6549 16.9659 58.6549 16.8745 58.5627 16.6918C58.5013 16.4482 58.4091 16.2046 58.2862 15.961C57.6411 14.5907 56.3508 13.9513 55.0605 13.4945C52.7565 12.855 48.7935 13.4032 46.1208 12.3983C46.1208 12.3983 46.0286 12.3983 46.0286 12.3069C43.5402 11.3021 41.4205 8.3788 39.0243 6.91717C38.5634 6.64311 38.287 6.46041 37.734 6.18635C36.0751 5.45553 34.5083 6.00365 33.1259 6.82581C32.3886 7.28257 31.6513 7.83069 31.0061 8.47015L27.5039 11.5761C25.9372 12.6723 24.2782 12.7637 22.435 13.0378C21.4212 13.2205 19.8544 13.0378 18.8407 13.2205C18.5642 13.3118 18.3798 13.4032 18.1034 13.4032L16.5366 13.7686C15.5228 14.134 14.4169 14.8648 13.956 15.8697C13.2187 17.3313 13.2187 18.9756 13.0344 20.62C12.9422 21.6248 12.8501 24 12.6658 24.8222C12.4814 25.553 12.2971 26.1924 11.9285 26.9233C11.7441 27.2887 11.4676 27.6541 11.1912 28.0195C10.4539 29.0244 9.53223 30.0292 8.51845 31.0341C7.87331 31.6736 7.41249 32.4044 6.85952 33.1352C6.58303 33.7747 6.12222 34.7795 6.12222 35.6931Z" fill="#051341"/>
<path fill-rule="evenodd" clip-rule="evenodd" d="M24.9861 27.8039L25.539 28.9001C25.539 28.9001 25.539 28.9915 25.6312 28.9915C26.092 29.6309 26.7371 29.7223 27.5666 30.0877C27.9353 30.179 30.7001 31.458 30.8845 31.3666C31.2531 31.2753 31.1609 31.458 31.3453 30.4531C31.7139 27.9866 31.5296 27.4385 29.1334 27.4385C28.3039 27.3471 25.4469 27.5298 24.9861 27.8039Z" fill="#051341"/>
<path fill-rule="evenodd" clip-rule="evenodd" d="M41.214 28.9111C41.214 29.6419 41.3062 30.8295 41.6749 31.3776C42.4122 31.1949 44.1632 30.3727 45.0849 30.0073C45.5457 29.8246 46.4673 29.5505 46.7438 29.2765C47.0203 29.0024 47.4811 28.2716 47.4811 27.6322C46.9281 27.6322 46.0987 27.4494 45.5457 27.4494C44.8084 27.3581 42.4122 27.2667 41.6749 27.5408C41.4905 27.8149 41.214 28.2716 41.214 28.9111Z" fill="#051341"/>
<path d="M7.72953 35.3825H13.1671C13.1671 30.8149 14.2731 26.6127 16.2085 22.8672C14.8261 22.4105 13.5358 21.8624 12.2455 21.4056C12.1533 21.3142 12.0612 21.3142 12.0612 21.3142C12.1226 21.2533 12.1533 21.1924 12.1533 21.1315C12.2455 21.2229 12.3377 21.2229 12.3377 21.2229C13.5358 21.771 14.9182 22.2278 16.3007 22.6845C17.6831 20.1267 19.342 17.8429 21.2774 15.8331C22.1991 14.8283 23.2128 14.0061 24.1345 13.2753C23.3972 13.0012 22.8442 12.7272 22.1991 12.3617C22.1069 12.2704 21.9226 12.179 21.8304 12.179C21.8919 12.1181 21.9533 12.0877 22.0147 12.0877C22.1376 12.1486 22.2298 12.2095 22.2912 12.2704C22.9364 12.6358 23.5815 12.9099 24.2266 13.2753C27.0837 11.1742 30.3094 9.62119 33.6272 8.70767C33.9959 8.61631 34.3645 8.61631 34.641 8.61631C30.8623 9.43848 27.268 11.0828 24.3188 13.3666C25.7934 14.0061 27.4523 14.4628 29.2956 14.8283C29.7564 14.1888 30.3094 13.5493 30.7702 13.0012C32.2448 11.3569 33.9037 9.89524 35.6548 8.70767H36.0234C34.1802 9.98659 32.5213 11.5396 31.0467 13.1839C30.4937 13.732 30.0329 14.2801 29.6642 14.9196C31.6918 15.3764 33.9959 15.5591 36.2999 15.5591V8.70767H36.4843V15.5591C38.7883 15.5591 41.0924 15.3764 43.12 14.9196C42.6592 14.2801 42.1062 13.732 41.6454 13.1839C40.0786 11.5396 38.4197 9.98659 36.6686 8.70767H36.9451C38.6962 9.98659 40.3551 11.4482 41.8297 13.0012C42.3827 13.5493 42.8435 14.1888 43.3965 14.8283C45.1475 14.4628 46.8065 14.0061 48.3732 13.3666C45.3319 11.1742 41.8297 9.43848 38.051 8.61631C38.4197 8.61631 38.7883 8.70767 39.0648 8.70767C42.567 9.62119 45.7927 11.1742 48.4654 13.2753C49.2027 13.0012 49.8478 12.7272 50.4008 12.2704C50.493 12.179 50.5851 12.179 50.6773 12.0877C50.7387 12.1486 50.8002 12.179 50.8616 12.179C50.7695 12.2704 50.5851 12.3617 50.493 12.3617C49.94 12.7272 49.2949 13.0012 48.5576 13.2753C49.5713 14.0061 50.5851 14.9196 51.4146 15.8331C53.35 17.8429 55.1011 20.1267 56.3914 22.6845C57.7738 22.2278 59.0641 21.6797 60.3544 21.2229C60.4465 21.1315 60.5387 21.1315 60.5387 21.1315C60.6001 21.1924 60.6616 21.2533 60.723 21.3142C60.6001 21.3751 60.508 21.4056 60.4465 21.4056C59.2484 21.9537 57.866 22.4105 56.4835 22.8672C58.419 26.6127 59.4327 30.8149 59.5249 35.3825H65.0547V35.5652H59.6171C59.6171 40.1328 58.5111 44.335 56.5757 48.0804C57.9581 48.5371 59.2484 49.0853 60.5387 49.542C60.6616 49.6029 60.7537 49.6334 60.8152 49.6334C60.7537 49.6943 60.723 49.7552 60.723 49.8161C60.6309 49.7247 60.5387 49.7247 60.5387 49.7247C59.3406 49.1766 57.9581 48.7199 56.5757 48.2631C55.1933 50.8209 53.5343 53.1047 51.5989 55.1145C50.6773 56.028 49.6635 56.8502 48.7419 57.6723C49.4792 57.9464 50.0322 58.2205 50.6773 58.5859C50.7695 58.6772 50.9538 58.7686 51.0459 58.7686C50.9845 58.8295 50.9231 58.8599 50.8616 58.8599C50.7387 58.799 50.6466 58.7381 50.5851 58.6772C49.94 58.4032 49.2949 58.0378 48.6497 57.6723C45.7927 59.7734 42.567 61.3264 39.2491 62.2399C38.8805 62.3313 38.5118 62.3313 38.2353 62.3313C42.014 61.5091 45.6084 59.8648 48.5576 57.581C47.083 56.9415 45.424 56.4848 43.5808 56.1194C43.12 56.7588 42.567 57.3983 42.014 57.9464C40.5394 59.5907 38.8805 61.0524 37.1294 62.2399H36.8529C38.6962 60.8697 40.3551 59.408 41.8297 57.7637C42.3827 57.2156 42.8435 56.5761 43.3043 56.028C41.2767 55.5712 38.9726 55.3885 36.6686 55.3885V62.2399H36.4843V55.3885C34.1802 55.3885 31.8761 55.5712 29.8486 56.028C30.3094 56.6675 30.8623 57.2156 31.231 57.7637C32.7978 59.408 34.4567 60.961 36.2078 62.2399H35.8391C34.088 60.961 32.4291 59.4994 30.9545 57.9464C30.4015 57.3983 29.9407 56.7588 29.4799 56.1194C27.6367 56.4848 26.0699 56.9415 24.5031 57.581C27.5445 59.7734 31.0467 61.5091 34.8253 62.3313C34.4567 62.3313 34.088 62.2399 33.8115 62.2399C30.3094 61.3264 27.0837 59.7734 24.411 57.6723C23.6737 57.9464 23.0285 58.2205 22.4755 58.5859C22.3834 58.6772 22.2912 58.7686 22.1991 58.7686C22.1376 58.7077 22.0762 58.6772 22.0147 58.6772C22.1991 58.5859 22.2912 58.4945 22.3834 58.4945C22.9364 58.1291 23.5815 57.855 24.3188 57.581C23.305 56.8502 22.2912 55.9367 21.4618 55.0231C19.4342 53.0134 17.7753 50.7296 16.485 48.1717C15.1025 48.6285 13.7201 49.1766 12.522 49.6334C12.4298 49.7247 12.3377 49.7247 12.3377 49.7247C12.2762 49.6638 12.2455 49.6029 12.2455 49.542C12.3377 49.4507 12.4298 49.4507 12.4298 49.4507C13.6279 48.9026 15.0104 48.4458 16.3928 47.989C14.4574 44.2436 13.4436 40.0414 13.3515 35.4738H7.91386V35.3825H7.72953ZM43.4001 14.8246C45.612 17.6565 47.271 20.9452 48.3769 24.5079C51.234 24.0512 53.8145 23.503 56.3029 22.6809C54.9205 20.123 53.3537 17.8392 51.3261 15.9208C50.4045 15.0073 49.3907 14.0938 48.3769 13.2716C46.9023 14.0024 45.2434 14.4592 43.4001 14.8246ZM48.4691 24.6906C49.4829 27.9793 50.128 31.542 50.128 35.1961H59.3443C59.3443 30.7198 58.2383 26.4263 56.3029 22.7722C53.9988 23.5944 51.4183 24.2339 48.4691 24.6906ZM50.128 35.4702C50.128 39.2156 49.575 42.7783 48.4691 45.9756C51.3261 46.4324 53.9988 47.0719 56.3951 47.8027C58.3305 44.0572 59.3443 39.855 59.4364 35.3788L50.128 35.4702ZM48.4691 46.2497C47.271 49.8124 45.612 53.1011 43.4923 55.933C45.3356 56.2984 46.9945 56.8465 48.4691 57.3946C49.4829 56.6638 50.4967 55.7503 51.4183 54.7454C53.3537 52.7357 55.1048 50.4519 56.3951 47.9854C53.9067 47.2546 51.3261 46.7065 48.4691 46.2497ZM43.2158 55.8417C45.4277 53.0097 47.1788 49.7211 48.2848 46.1583C44.5983 45.6102 40.6353 45.2448 36.4879 45.1535V55.1108C38.8842 55.2935 41.0961 55.4762 43.2158 55.8417ZM48.3769 46.067C49.3907 42.7783 50.0358 39.2156 50.0358 35.5615H36.5764V45.2448C40.6316 45.1535 44.5946 45.4275 48.3732 46.067H48.3769ZM49.9437 35.3788C49.9437 31.7247 49.3907 28.0706 48.2848 24.8733C44.5983 25.4214 40.6353 25.8782 36.4879 25.8782V35.4702H49.9474V35.3788H49.9437ZM48.2848 24.5993C47.0866 21.0365 45.4277 17.7479 43.2158 14.9159C41.0961 15.3727 38.8842 15.5554 36.4879 15.5554V25.5128C40.6353 25.5128 44.5983 25.2387 48.2848 24.5993ZM29.5721 14.9159C27.3602 17.7479 25.6091 21.0365 24.5031 24.5993C28.2818 25.1474 32.1526 25.6041 36.2999 25.6041V15.6468C33.9037 15.4641 31.6918 15.2814 29.5721 14.9159ZM24.5031 24.782C23.4893 28.0706 22.8442 31.6334 22.8442 35.2874H36.3036V25.6041C32.1563 25.6955 28.1012 25.3301 24.5068 24.782H24.5031ZM22.8442 35.4702C22.8442 39.2156 23.3972 42.7783 24.5031 45.9756C28.1896 45.4275 32.1526 44.9708 36.2999 44.9708V35.2874L22.8405 35.4702H22.8442ZM24.5031 46.1583C25.6091 49.7211 27.3602 53.0097 29.5721 55.8417C31.6918 55.3849 33.9037 55.2022 36.2999 55.2022V45.3362C32.1526 45.2448 28.0975 45.6102 24.5031 46.1583ZM29.3877 55.8417C27.1758 53.0097 25.5169 49.7211 24.411 46.1583C21.5539 46.6151 18.9734 47.2546 16.485 47.9854C17.8674 50.5432 19.4342 52.7357 21.4618 54.7454C22.4755 55.7503 23.3972 56.5725 24.411 57.3946C25.8856 56.7552 27.5445 56.2984 29.3877 55.8417ZM24.2266 46.067C23.2128 42.7783 22.5677 39.2156 22.5677 35.5615H13.2593C13.2593 40.0378 14.3652 44.2399 16.2085 47.9854C18.789 47.0719 21.4618 46.5237 24.2266 46.067ZM22.6599 35.3788C22.6599 31.6334 23.2128 28.0706 24.3188 24.8733C21.4618 24.4166 18.789 23.7771 16.3928 23.0463C14.4574 26.7917 13.4436 30.9939 13.3515 35.4702L22.6599 35.3788ZM24.3188 24.5993C25.5169 21.0365 27.1758 17.7479 29.2956 14.9159C27.4523 14.5505 25.7934 14.0024 24.3188 13.4543C23.305 14.1851 22.2912 15.0987 21.3696 16.1035C19.4342 18.1133 17.6831 20.3971 16.3928 22.8636C18.789 23.503 21.4618 24.1425 24.3188 24.5993Z" fill="white"/>
<path fill-rule="evenodd" clip-rule="evenodd" d="M24.2103 13.0125C27.0603 10.9385 30.2683 9.40306 33.5675 8.49466L33.5703 8.49389L33.5731 8.49319C33.9685 8.39522 34.3598 8.39523 34.6337 8.39524H38.051C38.2519 8.39524 38.4497 8.42009 38.622 8.44286L38.6532 8.447C38.8183 8.46887 38.9521 8.48659 39.0648 8.48659H39.0937L39.1216 8.49387C42.6076 9.40318 45.8252 10.942 48.5045 13.0243C49.1847 12.7675 49.759 12.5108 50.2513 12.1061C50.3205 12.0401 50.3901 12.0056 50.4349 11.9835L50.4393 11.9813C50.4853 11.9585 50.5016 11.9492 50.5196 11.9314L50.6773 11.775L50.835 11.9314C50.8519 11.9481 50.8632 11.9553 50.8682 11.958H51.4001L51.0193 12.3354C50.9512 12.4029 50.86 12.4613 50.777 12.5024C50.7208 12.5302 50.647 12.561 50.5718 12.575C50.1077 12.8752 49.5863 13.1135 49.0149 13.3378C49.9299 14.0319 50.8281 14.8571 51.5782 15.6828C53.4809 17.6589 55.2103 19.9024 56.5033 22.4138C57.1248 22.2038 57.7292 21.9762 58.3271 21.7475C58.4332 21.7069 58.5392 21.6662 58.645 21.6256C59.1782 21.421 59.7081 21.2178 60.2377 21.0295C60.2981 20.9798 60.3588 20.9503 60.4106 20.9332C60.4419 20.9229 60.4695 20.9172 60.4913 20.9141C60.5022 20.9126 60.5118 20.9117 60.5197 20.9111C60.5237 20.9109 60.5273 20.9107 60.5304 20.9106L60.5349 20.9105L60.5369 20.9105L60.5378 20.9105L60.5383 20.9105C60.5383 20.9105 60.5387 20.9105 60.5387 21.1315V20.9105H60.6311L61.0995 21.3748L60.8228 21.512C60.7179 21.564 60.6068 21.6097 60.5037 21.6229C59.3727 22.137 58.0844 22.5708 56.7992 22.9959C58.6451 26.6561 59.6253 30.7397 59.7428 35.1614H65.2777V35.7862H59.8392C59.8049 40.2124 58.7388 44.2959 56.8909 47.9527C57.5006 48.1602 58.0922 48.3831 58.6721 48.605C58.779 48.6459 58.8855 48.6867 58.9917 48.7275C59.5389 48.9374 60.0762 49.1436 60.6137 49.3338L60.6264 49.3383L60.6384 49.3443C60.694 49.3718 60.7376 49.3899 60.7705 49.4008C60.805 49.4122 60.8178 49.4123 60.8153 49.4123H61.3536L60.9729 49.7897C60.956 49.8064 60.9488 49.8176 60.946 49.8226V50.3498L60.5653 49.9724C60.5465 49.9537 60.5314 49.9477 60.5258 49.9459V49.9459L60.4897 49.9458L60.4452 49.9254C59.3112 49.4067 58.0074 48.9695 56.683 48.5316C55.3095 51.04 53.6687 53.2854 51.7603 55.2671L51.7567 55.2709C51.1226 55.8994 50.4409 56.4887 49.782 57.0584C49.5722 57.2399 49.3646 57.4193 49.1617 57.5974C49.7508 57.8347 50.2378 58.0823 50.788 58.3939L50.8139 58.4086L50.835 58.4295C50.859 58.4533 50.9061 58.4863 50.9614 58.5137C50.9877 58.5268 51.0114 58.5363 51.0301 58.5422C51.0418 58.5459 51.0484 58.5471 51.0502 58.5475H51.5844L51.2037 58.9249C51.1179 59.0099 51.0031 59.081 50.8616 59.081H50.809L50.7619 59.0577C50.6453 58.9999 50.5421 58.9364 50.461 58.8649C49.8573 58.6054 49.2559 58.2699 48.6653 57.9357C45.8154 60.0095 42.6078 61.5446 39.3088 62.453L39.306 62.4537L39.3032 62.4544C38.9079 62.5524 38.5165 62.5524 38.2427 62.5524H34.8253C34.6244 62.5524 34.4267 62.5275 34.2544 62.5048L34.2229 62.5006C34.058 62.4787 33.9243 62.461 33.8115 62.461H33.7827L33.7548 62.4537C30.2688 61.5444 27.0511 60.0056 24.3718 57.9233C23.6966 58.178 23.1157 58.4317 22.6175 58.7578C22.5765 58.7984 22.5252 58.8482 22.4711 58.8883C22.4122 58.9321 22.3179 58.9896 22.1991 58.9896H22.1067L22.0413 58.9249C22.0245 58.9082 22.0132 58.901 22.0081 58.8983H21.0699L21.915 58.4795C21.9756 58.4494 22.0213 58.4215 22.0682 58.3927C22.0847 58.3826 22.1014 58.3725 22.1189 58.362C22.1594 58.338 22.2238 58.2996 22.3028 58.2824C22.7673 57.9817 23.2893 57.743 23.8614 57.5185C22.9471 56.8249 22.0496 56.0005 21.2999 55.1754C19.3026 53.1948 17.6602 50.9502 16.3729 48.4423C15.3106 48.7993 14.2535 49.2057 13.2807 49.5795C13.063 49.6632 12.8494 49.7453 12.641 49.8249C12.5798 49.8757 12.5182 49.9057 12.4658 49.923C12.4344 49.9334 12.4068 49.9391 12.385 49.9421C12.3741 49.9437 12.3646 49.9446 12.3566 49.9451C12.3527 49.9454 12.3491 49.9456 12.3459 49.9457L12.3415 49.9458L12.3395 49.9458H12.3386H12.3381C12.3381 49.9458 12.3377 49.9458 12.3377 49.7247V49.9458H12.2453L12.18 49.881C12.0942 49.796 12.0225 49.6822 12.0225 49.542V49.4504L12.0878 49.3857C12.1611 49.313 12.2382 49.2733 12.3017 49.2524C12.3264 49.2442 12.3488 49.2389 12.3679 49.2356C13.4553 48.7408 14.6883 48.3205 15.9244 47.9109C14.136 44.2188 13.058 40.0897 13.0366 35.6949H7.69083V35.3825H7.72953V35.1614H12.945C12.9793 30.7352 14.0454 26.6517 15.8933 22.9949C15.2836 22.7874 14.6919 22.5645 14.1121 22.3427C14.0052 22.3018 13.8988 22.2609 13.7927 22.2202C13.2454 22.0102 12.708 21.8041 12.1705 21.6138L12.1233 21.5971L12.0878 21.5619C12.069 21.5432 12.0539 21.5372 12.0482 21.5354V21.5354L11.5227 21.5353L11.9035 21.1579C11.9203 21.1412 11.9276 21.13 11.9303 21.125V20.5978L12.311 20.9752C12.3299 20.9939 12.345 20.9999 12.3506 21.0017V21.0017L12.3867 21.0018L12.4311 21.0222C13.5652 21.541 14.8689 21.9781 16.1933 22.416C17.5664 19.9084 19.2066 17.6636 21.1142 15.6824C21.9479 14.7738 22.8542 14.0142 23.6944 13.342C23.1144 13.1072 22.6322 12.8617 22.0884 12.5537L22.0625 12.539L22.0413 12.5181C22.0173 12.4943 21.9703 12.4613 21.915 12.4339C21.8887 12.4208 21.8649 12.4113 21.8463 12.4054C21.8345 12.4017 21.828 12.4005 21.8262 12.4001H21.292L21.6727 12.0227C21.7585 11.9377 21.8733 11.8666 22.0147 11.8666H22.0674L22.1145 11.89C22.236 11.9502 22.3429 12.0165 22.4254 12.0917C22.734 12.2654 23.0433 12.4188 23.3587 12.5751L23.3612 12.5764C23.6407 12.7149 23.9249 12.8557 24.2103 13.0125ZM24.9628 57.636C27.9067 59.7032 31.2651 61.3303 34.8732 62.1154L35.4734 62.246C33.7983 61.0013 32.2119 59.5929 30.7944 58.1003C30.2618 57.572 29.8144 56.9632 29.3824 56.3644C27.7586 56.693 26.3514 57.0954 24.9628 57.636ZM36.4618 62.461L36.5303 62.4759L36.5989 62.461H36.4618ZM37.4777 62.2698L38.1875 62.1154C41.8071 61.3278 45.2547 59.7798 48.1183 57.6367C46.7896 57.0968 45.3105 56.6938 43.6774 56.3642C43.2282 56.9732 42.7024 57.5762 42.1764 58.0981C40.754 59.6835 39.1609 61.101 37.4777 62.2698ZM47.8573 13.2723C44.927 11.2237 41.5884 9.61231 38.0032 8.83224L37.2725 8.67327C38.9617 9.92484 40.5615 11.3434 41.9898 12.8472C42.3523 13.2069 42.6835 13.6138 43.0172 14.0239C43.1696 14.2111 43.3225 14.399 43.4791 14.5833C43.5307 14.5729 43.5821 14.5624 43.6334 14.5519C44.5744 14.3489 45.4866 14.118 46.3705 13.8448C46.8858 13.6756 47.3813 13.4868 47.8573 13.2723ZM36.4146 8.48659H36.2774L36.346 8.47167L36.4146 8.48659ZM35.2646 8.70697L34.6888 8.83224C31.0693 9.6198 27.6216 11.1678 24.7581 13.311C26.0868 13.8508 27.5659 14.2538 29.1989 14.5834C29.581 14.0651 30.0153 13.5509 30.4015 13.0937C30.4689 13.0139 30.5349 12.9358 30.5988 12.8597L30.6011 12.857L30.6035 12.8543C32.0151 11.2802 33.5951 9.87136 35.2646 8.70697ZM30.2346 56.1708C30.3913 56.3705 30.5546 56.5632 30.7166 56.7542L30.7451 56.7879C30.9813 57.0666 31.2155 57.3447 31.4059 57.6253C32.94 59.2344 34.5583 60.7504 36.2612 62.0041V55.6102C34.1699 55.621 32.092 55.7857 30.2346 56.1708ZM48.4146 13.5888C47.7924 13.8411 47.1563 14.0649 46.5066 14.2658C45.6494 14.547 44.7444 14.7731 43.7933 14.9705C45.8775 17.7117 47.4567 20.8609 48.5324 24.2589C51.2105 23.825 53.6404 23.3072 55.9801 22.5535C54.6356 20.1025 53.116 17.9199 51.1721 16.0807L51.1684 16.0772C50.306 15.2224 49.3625 14.3676 48.4146 13.5888ZM24.3535 13.7032C23.3855 14.4122 22.4179 15.2892 21.5346 16.2522L21.5328 16.2542L21.5309 16.2562C19.6709 18.1876 17.9854 20.3705 16.7201 22.7217C18.9897 23.3219 21.4973 23.9153 24.1677 24.3509C25.3279 20.9532 26.9083 17.804 28.9106 15.0626C27.2336 14.7059 25.7138 14.2055 24.3535 13.7032ZM16.5068 23.312C14.6754 26.9197 13.6989 30.9521 13.5799 35.2468L22.4375 35.1599C22.4581 31.5693 22.9859 28.1455 24.0234 25.0494C21.3244 24.6058 18.7929 24.0009 16.5068 23.312ZM13.5822 35.7826C13.7101 40.1058 14.6752 44.0901 16.4742 47.6588C18.8888 46.836 21.3793 46.3197 23.9398 45.8905C22.9832 42.7183 22.3702 39.2955 22.3455 35.7826H13.5822ZM16.8121 48.1203C18.1539 50.5598 19.6731 52.6599 21.6195 54.5891C22.5929 55.554 23.4803 56.3489 24.4473 57.1382C25.8187 56.5569 27.3409 56.1271 29.0049 55.7092C26.9156 52.9649 25.333 49.8109 24.2555 46.4075C21.5862 46.8437 19.1567 47.4398 16.8121 48.1203ZM29.6629 55.5963C31.6936 55.1707 33.8061 54.9925 36.0769 54.9816V45.5528C32.1195 45.4808 28.2505 45.8226 24.7935 46.3382C25.8801 49.7349 27.558 52.8752 29.6629 55.5963ZM36.8916 55.6102V61.9342C38.6563 60.6084 40.2461 59.1968 41.663 57.6168L41.6673 57.612L41.672 57.6074C42.0461 57.2365 42.3717 56.8294 42.6933 56.4272C42.7628 56.3403 42.8322 56.2535 42.9018 56.1674C41.0486 55.7847 38.9768 55.621 36.8916 55.6102ZM43.8773 55.7863C45.5542 56.143 47.074 56.6434 48.4344 57.1458C49.4024 56.4367 50.37 55.5598 51.2533 54.5967L51.2551 54.5947L51.257 54.5928C53.1185 52.6597 54.8053 50.4749 56.0709 48.1215C53.7284 47.4473 51.2967 46.9315 48.6202 46.498C47.46 49.8957 45.8796 53.045 43.8773 55.7863ZM56.281 47.5369C58.1124 43.9293 59.089 39.8969 59.2079 35.6021L50.3504 35.6891C50.3298 39.2796 49.802 42.7034 48.7644 45.7995C51.4635 46.2431 53.9949 46.848 56.281 47.5369ZM59.1203 34.975C59.0851 30.6835 58.0265 26.5698 56.1947 23.0452C53.9889 23.8182 51.5352 24.4259 48.7565 24.8693C49.7128 28.0409 50.3255 31.4629 50.3503 34.975H59.1203ZM42.7338 14.7768C42.496 14.4747 42.2445 14.1951 41.9945 13.9172C41.82 13.7233 41.6463 13.5302 41.4785 13.3307C39.9697 11.7476 38.3795 10.2542 36.7073 9.01163V15.3338C37.6065 15.3296 38.479 15.2988 39.3297 15.2367C40.5115 15.1486 41.6595 14.9996 42.7338 14.7768ZM36.0769 15.3374V8.94065C34.2809 10.1975 32.6595 11.7182 31.2134 13.3308L31.209 13.3356L31.2044 13.3402C30.7391 13.8014 30.3451 14.2577 30.0183 14.7661C31.5735 15.016 33.1829 15.1748 34.8863 15.3141C35.2817 15.3277 35.6791 15.3354 36.0769 15.3374ZM29.8524 15.1872C31.4126 15.5192 33.1218 15.6951 34.8599 15.7556C35.2608 15.7883 35.6663 15.82 36.0769 15.8514V25.3826C32.1239 25.367 28.4187 24.9389 24.794 24.4179C25.8813 21.0196 27.5603 17.8782 29.6667 15.1564C29.7285 15.1668 29.7904 15.1771 29.8524 15.1872ZM36.711 54.9062C38.9785 55.0799 41.0914 55.2591 43.1212 55.6012C45.2277 52.8793 46.9068 49.7375 47.9941 46.339C45.0687 45.9124 41.9713 45.6016 38.7478 45.452C38.0718 45.4453 37.3927 45.449 36.711 45.463V54.9062ZM47.9903 24.4252C46.8212 21.0216 45.2261 17.8804 43.125 15.1613C41.9061 15.4168 40.6577 15.5831 39.3634 15.6776C38.4901 15.7427 37.6007 15.7749 36.711 15.7795V25.2914C40.6719 25.282 44.4583 25.0196 47.9903 24.4252ZM36.0806 25.8297C32.069 25.9021 28.1518 25.5527 24.6607 25.0289C23.7046 28.1828 23.0929 31.5823 23.068 35.0664H36.0806V25.8297ZM23.0679 35.6882C23.0885 39.2646 23.6183 42.6654 24.6545 45.7297C28.2274 45.2028 32.0638 44.7658 36.0769 44.7501V35.5116L23.0679 35.6882ZM36.711 35.2491H49.7204C49.7077 31.7256 49.1778 28.2108 48.1333 25.1193C44.5604 25.6461 40.7241 26.0831 36.711 26.0988V35.2491ZM36.7995 44.9397C37.458 44.9564 38.1117 44.9799 38.7605 45.01C41.9992 45.0424 45.1685 45.3114 48.2202 45.8172C49.1758 42.6641 49.7871 39.2656 49.812 35.7826H36.7995V44.9397Z" fill="white"/>
<path fill-rule="evenodd" clip-rule="evenodd" d="M11.5746 10.1291C12.3119 10.1291 12.8649 10.6772 12.8649 11.408C12.8649 12.1389 12.3119 12.687 11.5746 12.687C10.8373 12.687 10.2843 12.1389 10.2843 11.408C10.1921 10.7686 10.8373 10.1291 11.5746 10.1291Z" fill="#051341"/>
<path fill-rule="evenodd" clip-rule="evenodd" d="M61.0733 10.1291C61.8106 10.1291 62.3635 10.6772 62.3635 11.408C62.3635 12.1389 61.8106 12.687 61.0733 12.687C60.336 12.687 59.783 12.1389 59.783 11.408C59.6908 10.7686 60.336 10.1291 61.0733 10.1291Z" fill="#051341"/>
<path fill-rule="evenodd" clip-rule="evenodd" d="M11.5746 59.4629C12.3119 59.4629 12.8649 60.011 12.8649 60.7418C12.8649 61.4726 12.3119 62.0207 11.5746 62.0207C10.8373 62.0207 10.2843 61.4726 10.2843 60.7418C10.1921 60.011 10.8373 59.4629 11.5746 59.4629Z" fill="#051341"/>
<path fill-rule="evenodd" clip-rule="evenodd" d="M61.0733 59.4629C61.8106 59.4629 62.3635 60.011 62.3635 60.7418C62.3635 61.4726 61.8106 62.0207 61.0733 62.0207C60.336 62.0207 59.783 61.4726 59.783 60.7418C59.6908 60.011 60.336 59.4629 61.0733 59.4629Z" fill="#051341"/>
<path fill-rule="evenodd" clip-rule="evenodd" d="M1.30029 34.7942C2.03759 34.7942 2.59057 35.3423 2.59057 36.0731C2.59057 36.8039 2.03759 37.352 1.30029 37.352C0.562989 37.352 0.0100132 36.8039 0.0100132 36.0731C-0.0821494 35.3423 0.470826 34.7942 1.30029 34.7942Z" fill="#051341"/>
<path fill-rule="evenodd" clip-rule="evenodd" d="M71.2554 34.7942C71.9927 34.7942 72.5456 35.3423 72.5456 36.0731C72.5456 36.8039 71.9927 37.352 71.2554 37.352C70.5181 37.352 69.9651 36.8039 69.9651 36.0731C69.9651 35.3423 70.6102 34.7942 71.2554 34.7942Z" fill="#051341"/>
<path fill-rule="evenodd" clip-rule="evenodd" d="M34.9581 70.7211C34.9581 69.9903 35.511 69.4421 36.2483 69.4421C36.9856 69.4421 37.5386 69.9903 37.5386 70.7211C37.5386 71.4519 36.9856 72 36.2483 72C35.6032 72 34.9581 71.4519 34.9581 70.7211Z" fill="#051341"/>
<path fill-rule="evenodd" clip-rule="evenodd" d="M34.9581 1.27893C34.9581 0.548112 35.511 0 36.2483 0C36.9856 0 37.5386 0.548112 37.5386 1.27893C37.5386 2.00974 36.9856 2.55786 36.2483 2.55786C35.6032 2.55786 34.9581 2.00974 34.9581 1.27893Z" fill="#051341"/>
</g>
<defs>
<clipPath id="clip0_112_129">
<rect width="216" height="72" fill="white"/>
</clipPath>
</defs>
</svg>
