<svg width="120" height="41" viewBox="0 0 120 41" fill="none" xmlns="http://www.w3.org/2000/svg">
<g clip-path="url(#clip0_112_129)">
<path fill-rule="evenodd" clip-rule="evenodd" d="M82.4153 33.3969C82.9785 33.3969 83.4393 33.8536 83.4393 34.4119C83.4393 34.9702 82.9785 35.4269 82.4153 35.4269C81.852 35.4269 81.3912 34.9702 81.3912 34.4119C81.34 33.8536 81.852 33.3969 82.4153 33.3969Z" fill="#105A01"/>
<path d="M84.4264 24.9905C84.4264 25.8857 84.4265 26.584 84.4736 26.9758C84.5022 27.2458 84.5575 27.4509 84.8402 27.4874C84.9712 27.5057 85.1781 27.5239 85.3112 27.5239C85.4341 27.5239 85.471 27.5524 85.471 27.5991C85.471 27.664 85.4054 27.6924 85.2641 27.6924C84.6722 27.6924 84.0783 27.664 83.8346 27.664C83.5908 27.664 82.9969 27.6924 82.6405 27.6924C82.5095 27.6924 82.4439 27.6742 82.4439 27.5991C82.4439 27.5524 82.4808 27.5239 82.5852 27.5239C82.7266 27.5239 82.8392 27.5057 82.9232 27.4874C83.1116 27.4509 83.1587 27.2458 83.1956 26.9758C83.2427 26.584 83.2427 25.8857 83.2427 24.9905V23.3502C83.2427 21.9332 83.2427 21.6734 83.2242 21.3749C83.2058 21.0583 83.13 20.908 82.8208 20.8431C82.745 20.8248 82.5853 20.8147 82.4542 20.8147C82.36 20.8147 82.2944 20.7964 82.2944 20.7395C82.2944 20.6644 82.3702 20.6462 82.5115 20.6462C82.7552 20.6462 83.0297 20.6563 83.2734 20.6563C83.5171 20.6665 83.7342 20.6746 83.8653 20.6746C84.2216 20.6746 86.1304 20.6746 86.3475 20.6644C86.5257 20.6543 86.6384 20.6543 86.7326 20.6279C86.7899 20.6096 86.837 20.571 86.8841 20.571C86.921 20.571 86.9497 20.6076 86.9497 20.6543C86.9497 20.7192 86.9026 20.8309 86.8739 21.0745C86.8636 21.1679 86.8452 21.718 86.8268 21.8297C86.8165 21.9048 86.7981 21.9596 86.7326 21.9596C86.667 21.9596 86.6486 21.9129 86.6384 21.8114C86.6384 21.7363 86.6384 21.5881 86.581 21.4582C86.5155 21.3283 86.3168 21.1882 85.9604 21.178L84.5125 21.1496C84.4551 21.1496 84.4285 21.178 84.4285 21.2795V23.61C84.4285 23.6669 84.4387 23.6933 84.494 23.6933L85.6983 23.6831C85.858 23.6831 85.9891 23.6831 86.1222 23.673C86.3004 23.6628 86.4335 23.6263 86.5257 23.5045C86.5728 23.4476 86.5912 23.4111 86.6486 23.4111C86.6855 23.4111 86.7059 23.4395 86.7059 23.4943C86.7059 23.5491 86.6588 23.7826 86.6302 24.0729C86.6117 24.2596 86.5933 24.688 86.5933 24.7529C86.5933 24.8362 86.5933 24.9296 86.4991 24.9296C86.4417 24.9296 86.4233 24.8646 86.4233 24.7996C86.4233 24.7347 86.4049 24.623 86.366 24.5114C86.3189 24.3814 86.1775 24.2129 85.8867 24.1764C85.6512 24.148 84.6558 24.148 84.4961 24.148C84.449 24.148 84.4305 24.1663 84.4305 24.2312V24.9864L84.4264 24.9905Z" fill="#105A01"/>
<path d="M88.0659 24.1703C88.0659 22.5767 89.1288 20.5162 91.949 20.5162C94.2899 20.5162 95.7481 21.8682 95.7481 24.0018C95.7481 26.1354 94.2428 27.8224 91.8548 27.8224C89.1554 27.8224 88.0659 25.8187 88.0659 24.1683V24.1703ZM94.4312 24.3469C94.4312 22.26 93.2188 20.9628 91.6766 20.9628C90.5952 20.9628 89.3643 21.5597 89.3643 23.88C89.3643 25.8187 90.4457 27.3575 92.2521 27.3575C92.9095 27.3575 94.4333 27.0408 94.4333 24.3469H94.4312Z" fill="#105A01"/>
<path d="M96.7824 24.1703C96.7824 22.5767 97.8453 20.5162 100.665 20.5162C103.006 20.5162 104.465 21.8682 104.465 24.0018C104.465 26.1354 102.959 27.8224 100.571 27.8224C97.872 27.8224 96.7824 25.8187 96.7824 24.1683V24.1703ZM103.148 24.3469C103.148 22.26 101.935 20.9628 100.393 20.9628C99.3117 20.9628 98.0809 21.5597 98.0809 23.88C98.0809 25.8187 99.1622 27.3575 100.969 27.3575C101.626 27.3575 103.15 27.0408 103.15 24.3469H103.148Z" fill="#105A01"/>
<path d="M106.431 23.3502C106.431 21.9332 106.431 21.6734 106.412 21.3749C106.394 21.0583 106.318 20.908 106.009 20.8431C105.933 20.8248 105.773 20.8147 105.642 20.8147C105.54 20.8147 105.483 20.7964 105.483 20.7314C105.483 20.6665 105.548 20.6482 105.689 20.6482C106.187 20.6482 106.781 20.6766 107.043 20.6766C107.334 20.6766 107.928 20.6482 108.491 20.6482C109.667 20.6482 111.238 20.6482 112.262 21.7099C112.733 22.1951 113.173 22.9685 113.173 24.0769C113.173 25.2523 112.675 26.1455 112.149 26.6774C111.717 27.1159 110.738 27.7777 108.999 27.7777C108.661 27.7777 108.274 27.7493 107.918 27.7209C107.561 27.6924 107.232 27.664 106.996 27.664C106.892 27.664 106.685 27.664 106.459 27.6742C106.242 27.6742 105.999 27.6924 105.81 27.6924C105.687 27.6924 105.622 27.664 105.622 27.5991C105.622 27.5524 105.659 27.5239 105.771 27.5239C105.913 27.5239 106.025 27.5057 106.109 27.4874C106.298 27.4509 106.345 27.2458 106.382 26.9758C106.429 26.584 106.429 25.8471 106.429 24.9905V23.3502H106.431ZM107.606 24.3754C107.606 25.364 107.617 26.0806 107.625 26.2572C107.635 26.4907 107.653 26.8622 107.727 26.9657C107.85 27.1423 108.217 27.3392 108.958 27.3392C109.917 27.3392 110.556 27.1525 111.121 26.6673C111.723 26.1537 111.911 25.3071 111.911 24.3469C111.911 23.1634 111.414 22.3981 111.008 22.0164C110.144 21.1963 109.071 21.0846 108.338 21.0846C108.149 21.0846 107.801 21.1131 107.727 21.1496C107.643 21.1862 107.615 21.2328 107.615 21.3364C107.604 21.6531 107.604 22.4651 107.604 23.2V24.3754H107.606Z" fill="#105A01"/>
<path d="M114.715 27.5828C114.564 27.5179 114.537 27.4712 114.537 27.2661C114.537 26.7525 114.574 26.1943 114.584 26.0461C114.594 25.906 114.621 25.8045 114.697 25.8045C114.781 25.8045 114.791 25.8877 114.791 25.9628C114.791 26.0846 114.828 26.2795 114.875 26.4379C115.082 27.1281 115.637 27.3798 116.22 27.3798C117.066 27.3798 117.48 26.8114 117.48 26.3181C117.48 25.8613 117.339 25.433 116.558 24.826L116.126 24.4911C115.092 23.6892 114.736 23.0376 114.736 22.2824C114.736 21.2572 115.6 20.5203 116.909 20.5203C117.519 20.5203 117.914 20.6137 118.16 20.6786C118.244 20.6969 118.291 20.7253 118.291 20.7903C118.291 20.9121 118.254 21.1821 118.254 21.9088C118.254 22.1139 118.226 22.189 118.15 22.189C118.084 22.189 118.056 22.1322 118.056 22.0205C118.056 21.9373 118.008 21.647 117.812 21.4054C117.671 21.2288 117.398 20.9486 116.788 20.9486C116.091 20.9486 115.67 21.3486 115.67 21.9088C115.67 22.3372 115.887 22.664 116.667 23.2507L116.931 23.4456C118.07 24.2941 118.473 24.9377 118.473 25.8228C118.473 26.3628 118.267 27.0063 117.589 27.4448C117.12 27.7432 116.591 27.8264 116.094 27.8264C115.549 27.8264 115.125 27.7615 114.721 27.5849L114.715 27.5828Z" fill="#105A01"/>
<path d="M46.4657 15.2422C46.2097 15.9019 45.9536 16.4602 45.3392 16.511C45.2368 16.511 45.032 16.5617 44.9296 16.5617C44.8272 16.5617 44.8272 16.6125 44.8272 16.6125C44.8272 16.714 44.8784 16.714 45.0832 16.714C45.7488 16.714 46.5169 16.6632 46.6705 16.6632C46.8241 16.6632 47.3873 16.714 47.7457 16.714C47.8481 16.714 47.9505 16.6632 47.9505 16.6125C47.9505 16.5617 47.8993 16.5617 47.7969 16.5617H47.6433C47.3873 16.5617 47.1313 16.4602 47.1313 16.1557C47.1313 15.9019 47.1825 15.5974 47.3361 15.2422L48.1553 12.8061C48.1894 12.7385 48.2406 12.7046 48.3089 12.7046H51.3298C51.381 12.7046 51.4322 12.7554 51.4322 12.8061L52.7122 16.2065C52.7634 16.4095 52.7122 16.5617 52.661 16.6125C52.6098 16.6125 52.5586 16.6632 52.5586 16.714C52.5586 16.7647 52.7122 16.7647 52.9682 16.8155C53.9411 16.8662 54.9139 16.8662 55.1699 16.8662C55.3235 16.8662 55.4259 16.8155 55.4259 16.7647C55.4259 16.714 55.3235 16.6632 55.2211 16.6632C55.0675 16.6632 54.8627 16.6632 54.6579 16.6125C54.3507 16.511 53.9411 16.308 53.4803 15.0899C52.661 13.0091 50.4594 7.32298 50.2546 6.81546C50.101 6.40946 49.9986 6.30795 49.9474 6.30795C49.8962 6.30795 49.7938 6.3587 49.6402 6.81546L46.4657 15.2422ZM48.3601 12.1971C48.3089 12.1971 48.3089 12.1464 48.3089 12.0956L49.5378 8.39078C49.589 8.18777 49.6914 8.18777 49.7426 8.39078L51.0226 12.0956C51.0226 12.1464 51.0226 12.1971 50.9714 12.1971H48.3601ZM65.5658 8.08627C65.5146 7.88327 65.4634 7.78177 65.361 7.78177C65.2586 7.78177 65.2074 7.83252 65.1562 7.98477L61.6233 15.2422L57.9368 7.98477C57.8856 7.83252 57.7832 7.78177 57.732 7.78177C57.6808 7.78177 57.6296 7.83252 57.5784 7.98477L56.708 15.5995C56.6568 16.0562 56.6568 16.4622 56.2472 16.5637C56.0424 16.6145 55.9912 16.6145 55.8888 16.6145C55.8376 16.6145 55.7864 16.6652 55.7864 16.6652C55.7864 16.7667 55.8376 16.7667 55.9912 16.7667C56.3496 16.7667 56.9128 16.716 57.0152 16.716C57.1176 16.716 57.732 16.7667 58.1928 16.7667C58.3464 16.7667 58.3976 16.716 58.3976 16.6652C58.3976 16.6145 58.3464 16.6145 58.2952 16.6145C58.244 16.6145 58.0392 16.6145 57.8344 16.513C57.6296 16.4622 57.5272 16.3607 57.5272 16.1577V15.5995L57.988 10.3214H58.0392C58.244 10.8289 59.2169 12.7574 59.5753 13.5187C59.8825 14.1784 60.7017 15.6502 61.0089 16.2085C61.2649 16.6145 61.3161 16.7667 61.4185 16.7667C61.5209 16.7667 61.6233 16.6652 61.8281 16.1577L64.7466 10.2198H64.7978L65.361 16.1577C65.4122 16.3607 65.361 16.5637 65.3098 16.5637C65.2586 16.5637 65.2586 16.6145 65.2586 16.6652C65.2586 16.716 65.3098 16.7667 65.617 16.7667C66.0779 16.8175 67.4091 16.8175 67.7163 16.8175C67.8699 16.8175 67.9723 16.7667 67.9723 16.716C67.9723 16.6652 67.9211 16.6145 67.8699 16.6145C67.7675 16.6145 67.4091 16.6145 67.0507 16.513C66.5387 16.3607 66.4875 15.701 66.4363 15.295L65.5658 8.0883V8.08627ZM70.0716 13.3644C70.0716 14.5317 70.0716 15.4452 70.0204 15.9019C69.9692 16.2572 69.918 16.4602 69.7132 16.511C69.6108 16.511 69.4572 16.5617 69.3035 16.5617C69.2523 16.5617 69.2011 16.6125 69.2011 16.6632C69.2011 16.714 69.2523 16.7647 69.406 16.7647C69.6108 16.7647 69.8668 16.7647 70.0716 16.714H70.6348C70.8396 16.714 71.1468 16.714 71.6076 16.7647C72.1196 16.7647 72.7852 16.8155 73.7069 16.8155C74.1677 16.8155 74.3213 16.8155 74.3725 16.511C74.4749 16.308 74.5261 15.4959 74.5261 15.3944C74.5261 15.3437 74.5261 15.1914 74.4237 15.1914C74.3725 15.1914 74.3213 15.2422 74.3213 15.3944C74.2189 15.8512 74.1165 16.1049 73.7581 16.2065C73.4509 16.308 72.8876 16.308 72.5292 16.308C71.3516 16.308 71.0956 16.1557 71.0956 15.3437V12.4509C71.0956 12.417 71.1127 12.4001 71.1468 12.4001C71.3516 12.4001 72.6316 12.4001 72.9901 12.4509C73.4509 12.5016 73.5533 12.6539 73.6045 12.8061C73.6557 12.9584 73.6557 13.0599 73.6557 13.2121C73.6557 13.2629 73.7069 13.3136 73.7069 13.3136C73.8093 13.3136 73.8093 13.2121 73.8093 13.1106C73.8093 13.0599 73.8605 12.5524 73.8605 12.3494C73.9117 11.9434 73.9629 11.7911 73.9629 11.6896C73.9629 11.6389 73.9117 11.5881 73.9117 11.5881C73.9117 11.5881 73.8093 11.6389 73.7069 11.7404C73.6045 11.8419 73.3997 11.8926 73.0925 11.8926C72.8364 11.9434 71.198 11.9434 71.0444 11.9434C70.942 11.9434 70.942 11.8926 70.942 11.8419V8.69529C70.942 8.64453 70.942 8.59378 71.0444 8.59378C71.198 8.59378 72.5804 8.59378 72.7852 8.64453C73.4509 8.74604 73.6045 8.79679 73.6557 8.99979C73.7069 9.15205 73.7069 9.35505 73.7069 9.4058C73.7069 9.5073 73.7581 9.55805 73.8093 9.55805C73.8605 9.55805 73.9117 9.45655 73.9117 9.45655C73.9629 9.3043 73.9629 8.79679 74.0141 8.69529C74.0653 8.34003 74.1165 8.23853 74.1165 8.18777C74.1165 8.13702 74.1165 8.08627 74.0653 8.08627C74.0141 8.08627 73.9629 8.13702 73.9117 8.13702C73.8093 8.13702 73.6045 8.18777 73.3997 8.23853H70.4812C70.43 8.23853 69.6108 8.18777 69.0475 8.18777C68.8939 8.18777 68.8427 8.23853 68.8427 8.28928C68.8427 8.34003 68.8939 8.39078 68.9451 8.39078C69.0475 8.39078 69.2523 8.39078 69.3547 8.44153C69.7644 8.49228 69.8156 8.64453 69.8668 9.10129C69.918 9.5073 69.918 9.81181 69.918 11.6389L70.0716 13.3644ZM77.7026 13.3644C77.7026 14.5317 77.7026 15.4452 77.6002 15.9019C77.549 16.2572 77.549 16.4602 77.293 16.511C77.1906 16.5617 77.037 16.5617 76.8834 16.5617C76.781 16.5617 76.781 16.6125 76.781 16.6632C76.781 16.714 76.8834 16.7647 76.9858 16.7647C77.3954 16.7647 78.1634 16.714 78.1634 16.714C78.2146 16.714 78.9827 16.7647 79.6483 16.7647C79.8019 16.7647 79.8531 16.714 79.8531 16.6632C79.8531 16.6125 79.8531 16.5617 79.7507 16.5617C79.6483 16.5617 79.3411 16.511 79.2387 16.511C78.8291 16.4602 78.7779 16.2572 78.7267 15.9019C78.6755 15.3944 78.6755 14.5317 78.6755 13.3644V13.1106C78.6755 13.0091 78.7267 13.0091 78.7779 13.0091L80.3139 13.0599C80.3822 13.0599 80.4334 13.0768 80.4675 13.1106C80.7235 13.4151 81.2867 14.1764 81.7987 14.8362C82.4644 15.6989 82.9252 16.308 83.4372 16.5617C83.7444 16.714 84.0516 16.8155 84.7684 16.8155H85.5365C85.7413 16.8155 85.8437 16.7647 85.8437 16.714C85.8437 16.6632 85.7925 16.6125 85.7413 16.6125C85.6901 16.6125 85.5365 16.6125 85.3316 16.5617C85.0244 16.511 84.6148 16.4095 84.0004 15.7497C83.3348 15.0392 82.4644 13.9734 81.4915 12.7554C82.618 11.7911 82.9764 10.9791 82.9764 10.1163C82.9764 9.3043 82.4132 8.74604 82.106 8.49228C81.4403 8.03552 80.6211 7.98477 79.8531 7.98477C79.4435 7.98477 78.4707 8.03552 78.3171 8.03552C78.2146 8.03552 77.4466 7.98477 76.8834 7.98477C76.7298 7.98477 76.6786 8.03552 76.6786 8.08627C76.6786 8.13702 76.7298 8.18777 76.781 8.18777C76.8834 8.18777 77.0882 8.18777 77.1906 8.23853C77.6002 8.28928 77.6514 8.44153 77.7026 8.89829C77.7538 9.3043 77.7538 9.60881 77.7538 11.4358L77.7026 13.3644ZM78.7267 8.54303C78.7267 8.44153 78.7779 8.44153 78.8291 8.39078C78.9315 8.34003 79.3411 8.28928 79.6995 8.28928C81.0307 8.28928 81.7987 9.15205 81.7987 10.5731C81.7987 11.4358 81.4915 12.0956 81.0819 12.3494C80.7747 12.5524 80.4675 12.5524 80.1603 12.5524C79.5971 12.5524 79.0339 12.5016 78.8291 12.3494C78.7779 12.2986 78.7267 12.2986 78.7267 12.1971V8.54303ZM88.0986 8.79679C88.1498 8.39078 88.201 8.23853 88.5082 8.13702C88.6618 8.08627 88.713 8.08627 88.8154 8.08627C88.8666 8.08627 88.9178 8.03552 88.9178 7.98477C88.9178 7.93402 88.8666 7.88327 88.713 7.88327C88.3034 7.88327 87.5866 7.93402 87.4842 7.93402C87.3818 7.93402 86.6137 7.88327 86.2553 7.88327C86.1017 7.88327 86.0505 7.93402 86.0505 7.98477C86.0505 8.03552 86.1017 8.08627 86.1529 8.08627C86.2041 8.08627 86.3577 8.08627 86.5625 8.13702C86.8185 8.18777 86.9209 8.39078 86.9721 8.79679C87.0233 9.2028 87.0233 9.45655 87.0233 11.2836V13.3644C87.0233 14.5317 87.0233 15.4452 86.9209 15.9019C86.8697 16.2572 86.8185 16.4602 86.6137 16.511C86.5113 16.5617 86.3577 16.5617 86.2041 16.5617C86.1017 16.5617 86.1017 16.6125 86.1017 16.6632C86.1017 16.714 86.2041 16.7647 86.3065 16.7647C86.7161 16.7647 87.433 16.714 87.4842 16.714C87.5354 16.714 88.3546 16.7647 89.0202 16.7647C89.1738 16.7647 89.225 16.714 89.225 16.6632C89.225 16.6125 89.1738 16.5617 89.1226 16.5617C89.0202 16.5617 88.713 16.511 88.6106 16.511C88.2522 16.4602 88.201 16.2572 88.1498 15.9019C88.0986 15.3944 88.0986 14.4809 88.0986 13.3644V8.79679ZM96.2928 16.8662C97.1121 16.8662 97.9825 16.8155 98.4945 16.6125C98.6993 16.511 98.7505 16.511 98.8017 16.2572C98.9041 15.8512 99.1089 14.8362 99.1089 14.7854C99.1089 14.7347 99.0577 14.6332 99.0065 14.6332C98.9553 14.6332 98.9041 14.6839 98.9041 14.7854C98.8529 14.9884 98.6993 15.4959 98.4433 15.7497C97.9313 16.2572 97.3681 16.308 96.4465 16.308C93.8352 16.308 92.0431 14.3287 92.0431 12.0956C92.0431 10.9283 92.2479 9.91331 93.1184 9.05054C93.528 8.64453 94.296 8.23853 95.832 8.23853C96.9073 8.23853 97.7777 8.54303 98.2385 8.89829C98.5457 9.15205 98.7505 9.60881 98.7505 10.0656C98.7505 10.2178 98.7505 10.2686 98.8529 10.2686C98.9553 10.2686 98.9553 10.2178 99.0065 10.0656C99.0065 9.91331 99.0065 9.25355 99.0577 8.89829C99.1089 8.49228 99.1089 8.34003 99.1089 8.23853C99.1089 8.13702 99.0577 8.13702 98.9553 8.13702C98.5457 8.13702 98.1361 8.03552 97.7265 7.93402C97.1121 7.83252 96.4465 7.78177 95.9856 7.78177C94.0912 7.78177 92.9648 8.34003 92.2479 9.05054C91.1727 10.0656 90.8655 11.4358 90.8655 12.2479C90.8655 13.3644 91.1727 14.6839 92.3503 15.6989C93.272 16.4602 94.5008 16.8662 96.2928 16.8662ZM101.003 15.4452C100.799 16.0542 100.543 16.4095 99.9793 16.511C99.8769 16.511 99.7233 16.5617 99.6209 16.5617C99.5697 16.5617 99.5185 16.6125 99.5185 16.6632C99.5185 16.714 99.6209 16.7647 99.7233 16.7647C100.235 16.7647 100.85 16.714 100.952 16.714C101.106 16.714 101.771 16.7647 102.027 16.7647C102.13 16.7647 102.232 16.714 102.232 16.6632C102.232 16.6125 102.181 16.5617 102.13 16.5617H102.027C101.823 16.5617 101.618 16.511 101.618 16.2572C101.618 16.0542 101.669 15.7497 101.823 15.4452L102.539 13.5674C102.574 13.4997 102.608 13.4659 102.642 13.4659H105.458C105.492 13.4659 105.526 13.4997 105.56 13.5674L106.636 16.2065C106.738 16.4095 106.584 16.511 106.533 16.511C106.533 16.6125 106.482 16.6125 106.482 16.6125C106.482 16.714 106.687 16.714 106.892 16.714C107.711 16.7647 108.632 16.7647 108.837 16.7647C108.991 16.7647 109.093 16.714 109.093 16.6632C109.093 16.5617 109.042 16.5617 108.94 16.5617C108.837 16.5617 108.632 16.5617 108.428 16.4602C108.172 16.4095 107.813 16.2572 107.404 15.1407C106.687 13.3644 104.741 8.54303 104.485 8.03552C104.383 7.78177 104.331 7.62951 104.178 7.62951C104.127 7.62951 104.024 7.68026 103.871 8.08627L101.003 15.4452ZM102.744 13.0091C102.693 13.0091 102.693 12.9584 102.693 12.9076L103.819 9.71031C103.871 9.5073 103.973 9.5073 104.024 9.71031L105.202 12.9076C105.202 12.9584 105.202 13.0091 105.151 13.0091H102.744ZM110.99 9.65956C111.399 10.0656 112.731 11.4866 114.113 12.9584C115.393 14.2779 117.134 16.0034 117.287 16.1049C118.004 16.714 118.107 16.8155 118.209 16.8155C118.26 16.8155 118.312 16.7647 118.312 15.9527L118.363 9.10129C118.363 8.39078 118.414 8.13702 118.772 8.08627C118.926 8.03552 118.977 8.03552 119.08 8.03552C119.182 8.03552 119.233 7.93402 119.233 7.93402C119.233 7.88327 119.131 7.88327 119.028 7.88327C118.516 7.88327 118.158 7.93402 118.004 7.93402C117.851 7.93402 117.287 7.88327 116.724 7.88327C116.571 7.88327 116.519 7.88327 116.519 7.93402C116.519 7.98477 116.519 8.03552 116.622 8.03552C116.724 8.03552 117.031 8.03552 117.236 8.08627C117.646 8.18777 117.697 8.44153 117.697 9.15205L117.799 15.0392C117.39 14.6332 116.11 13.2629 114.932 12.0449C113.038 10.1163 111.297 8.28928 111.092 8.03552C110.99 7.93402 110.734 7.68026 110.631 7.68026C110.529 7.68026 110.478 7.78177 110.478 8.28928V14.9884C110.478 16.0542 110.426 16.3587 110.119 16.4602C109.914 16.511 109.71 16.511 109.607 16.511C109.556 16.511 109.505 16.5617 109.505 16.6125C109.505 16.6632 109.556 16.714 109.71 16.714C110.273 16.714 110.785 16.6632 110.887 16.6632C110.99 16.6632 111.502 16.714 112.167 16.714C112.321 16.714 112.372 16.6632 112.372 16.6125C112.372 16.5617 112.321 16.511 112.27 16.511C112.167 16.511 111.86 16.511 111.655 16.4602C111.297 16.3587 111.246 16.0542 111.195 15.1407L110.99 9.65956Z" fill="#051341"/>
<path d="M47.5429 25.2442V26.9697C47.5429 27.2235 47.4917 27.3758 47.3381 27.4265C47.2869 27.4773 47.1845 27.4773 47.0821 27.4773C47.0309 27.4773 46.9797 27.528 46.9797 27.528C46.9797 27.5788 47.0309 27.6295 47.1333 27.6295C47.3893 27.6295 47.8502 27.5788 48.0038 27.5788C48.2086 27.5788 48.6182 27.6295 49.079 27.6295C49.1302 27.6295 49.1814 27.5788 49.1814 27.528C49.1814 27.4773 49.1814 27.4773 49.079 27.4773C48.9766 27.4773 48.823 27.4265 48.7206 27.4265C48.5158 27.3758 48.4646 27.2235 48.4646 26.9697V21.9454L49.335 21.9961C49.9494 22.0469 50.1542 22.2499 50.1542 22.4529V22.5544C50.1542 22.6559 50.1542 22.7067 50.2054 22.7067C50.2566 22.7067 50.2566 22.6559 50.2566 22.6052V21.6916C50.2566 21.5901 50.2566 21.5394 50.2054 21.5394C50.2054 21.5394 50.1542 21.5901 50.0518 21.5901C49.9494 21.4886 49.7958 21.4886 49.591 21.4886H46.8261C46.6213 21.4886 46.3141 21.4379 46.1093 21.4379C45.9557 21.3871 45.8533 21.3364 45.8021 21.3364C45.7509 21.3364 45.7509 21.3871 45.7509 21.4886C45.7509 21.5394 45.5973 22.3006 45.5973 22.4021C45.5973 22.5037 45.5973 22.5037 45.6485 22.5037C45.6997 22.5037 45.6997 22.4529 45.6997 22.4021C45.6997 22.3514 45.7509 22.2499 45.8021 22.0976C45.9045 21.9454 46.0581 21.8946 46.4677 21.8439L47.4917 21.7931L47.5429 25.2442ZM51.383 25.5995V27.0713C51.383 27.2743 51.3318 27.3758 51.2294 27.4265C51.1782 27.4773 51.127 27.4773 51.0246 27.4773C50.9734 27.4773 50.9222 27.528 50.9222 27.528C50.9222 27.5788 50.9734 27.5788 51.0246 27.5788C51.2806 27.5788 51.6391 27.528 51.7927 27.528C51.8951 27.528 52.4071 27.5788 52.7655 27.5788C52.8167 27.5788 52.8679 27.528 52.8679 27.528C52.8679 27.528 52.8679 27.4773 52.8167 27.4773C52.7655 27.4773 52.6119 27.4773 52.5095 27.4265C52.3559 27.3758 52.3047 27.2743 52.3047 27.0713V25.498C52.3047 25.4641 52.3217 25.4472 52.3559 25.4472L52.9191 25.498C52.9532 25.498 52.9874 25.5149 53.0215 25.5487C53.0727 25.6502 53.3287 26.107 53.5847 26.4622C53.8919 26.9697 54.1479 27.325 54.4039 27.4773C54.5575 27.5788 54.7111 27.6295 55.0695 27.6295H55.5816C55.6328 27.6295 55.684 27.5788 55.684 27.5788C55.684 27.5449 55.6669 27.528 55.6328 27.528C55.5986 27.528 55.5474 27.5111 55.4792 27.4773C55.3768 27.4265 55.172 27.4265 54.8135 27.0205C54.4551 26.5637 53.9943 25.9547 53.4823 25.1935C54.0967 24.6352 54.3527 24.1784 54.3527 23.6709C54.3527 23.2142 54.0967 22.8589 53.9431 22.7574C53.6359 22.5037 53.1751 22.4529 52.7655 22.4529C52.6119 22.4529 52.0487 22.5037 51.7927 22.5037C51.6903 22.5037 51.2806 22.4529 50.9734 22.4529C50.871 22.4529 50.8198 22.5037 50.8198 22.5037C50.8198 22.5544 50.871 22.5544 50.9222 22.5544C51.0246 22.5544 51.127 22.5544 51.1782 22.6052C51.383 22.6559 51.4342 22.7574 51.4342 22.9604V24.4322L51.383 25.5995ZM52.2023 22.8589C52.2023 22.8082 52.2023 22.7574 52.2535 22.7574C52.3047 22.7067 52.4583 22.7067 52.6119 22.7067C52.9703 22.7067 53.5335 22.9604 53.5335 23.9247C53.5335 24.4829 53.3287 24.7875 53.1239 24.9397C53.0215 25.0412 52.9703 25.0412 52.7143 25.0412C52.5607 25.0412 52.4071 24.9905 52.2535 24.9905C52.2193 24.9566 52.2023 24.9228 52.2023 24.889V22.8589ZM57.8856 25.8532C57.8856 25.8532 57.9368 25.8532 57.9368 25.904L58.3976 27.2743C58.3976 27.3758 58.3976 27.4265 58.3464 27.4265C58.2952 27.4265 58.2952 27.4773 58.2952 27.4773C58.2952 27.528 58.3464 27.528 58.4488 27.528C58.9609 27.5788 59.4217 27.5788 59.6265 27.5788C59.8313 27.5788 59.8825 27.528 59.8825 27.528C59.8825 27.4942 59.8654 27.4773 59.8313 27.4773C59.7801 27.4773 59.6777 27.4773 59.6265 27.4265C59.5241 27.3758 59.3705 27.325 59.1145 26.716C58.6536 25.6502 57.6296 22.9097 57.476 22.5037C57.4248 22.3514 57.3736 22.3006 57.3224 22.3006C57.2712 22.3006 57.22 22.4021 57.1688 22.5544L55.5816 26.8175C55.4792 27.1728 55.3768 27.3758 55.0695 27.4265H54.9159C54.8647 27.4265 54.8647 27.4773 54.8647 27.4773C54.8647 27.5111 54.8989 27.528 54.9671 27.528C55.2744 27.528 55.6328 27.4773 55.684 27.4773C55.8888 27.4773 56.1448 27.528 56.3496 27.528C56.4008 27.528 56.452 27.4773 56.452 27.4773C56.452 27.4773 56.452 27.4265 56.3496 27.4265H56.2472C56.0936 27.4265 55.9912 27.3758 55.9912 27.2235C55.9912 27.122 55.9912 26.9697 56.0936 26.8175L56.4008 25.904C56.4008 25.8701 56.4179 25.8532 56.452 25.8532H57.8856ZM56.5544 25.4472L57.1176 23.7217L57.6808 25.4472V25.498H56.5544V25.4472ZM60.5481 25.5995V27.0713C60.5481 27.2743 60.4969 27.3758 60.3945 27.4265C60.3433 27.4773 60.2921 27.4773 60.1897 27.4773C60.1385 27.4773 60.0873 27.528 60.0873 27.528C60.0873 27.5788 60.1385 27.5788 60.1897 27.5788C60.2921 27.5788 60.4457 27.5788 60.5993 27.528H60.9577C61.1113 27.528 61.3161 27.5788 61.5721 27.5788C61.8281 27.6295 62.0841 27.6295 62.289 27.6295C63.4154 27.6295 64.081 27.122 64.337 26.8175C64.6954 26.4622 65.0026 25.7517 65.0026 24.9397C65.0026 24.1277 64.7466 23.5694 64.4394 23.2142C63.7738 22.4021 62.7498 22.4021 61.9817 22.4021C61.6233 22.4021 61.1625 22.4529 61.0089 22.4529C60.8553 22.4529 60.4457 22.4021 60.1385 22.4021C60.0361 22.4021 59.9849 22.4529 59.9849 22.4529C59.9849 22.5037 60.0361 22.5037 60.0873 22.5037C60.1897 22.5037 60.2921 22.5037 60.3433 22.5544C60.5481 22.6052 60.5993 22.7067 60.5993 22.9097V25.5995H60.5481ZM61.3673 22.9097C61.3673 22.842 61.3844 22.7912 61.4185 22.7574C61.4697 22.7067 61.6745 22.7067 61.7769 22.7067C62.2378 22.7067 62.9034 22.7574 63.5178 23.3664C63.7738 23.6202 64.081 24.2292 64.081 25.0412C64.081 25.7517 63.9786 26.3607 63.569 26.716C63.2106 27.0713 62.801 27.1728 62.2378 27.1728C61.7769 27.1728 61.5209 27.0205 61.4185 26.919C61.3673 26.8682 61.3673 26.6145 61.3673 26.4115V22.9097ZM66.2827 27.0713C66.2827 27.2743 66.2315 27.3758 66.1291 27.3758C66.0779 27.4265 66.0267 27.4265 65.9243 27.4265C65.8731 27.4265 65.8218 27.4773 65.8218 27.4773C65.8218 27.528 65.8731 27.528 65.9243 27.528C66.1803 27.528 66.5899 27.4773 66.7435 27.4773C66.8971 27.4773 67.3067 27.528 67.7163 27.528C67.7675 27.528 67.8187 27.4773 67.8187 27.4773C67.8187 27.4773 67.8187 27.4265 67.7163 27.4265C67.6139 27.4265 67.5115 27.4265 67.4091 27.3758C67.2555 27.325 67.2043 27.2235 67.1531 27.0713V22.9097C67.1531 22.6559 67.2043 22.5544 67.3579 22.5544C67.4091 22.5037 67.4603 22.5037 67.5115 22.5037C67.5627 22.5037 67.6139 22.4529 67.6139 22.4021C67.6139 22.3514 67.5627 22.3514 67.5115 22.3514C67.3067 22.3514 66.8971 22.4021 66.7435 22.4021C66.5899 22.4021 66.1803 22.3514 65.9243 22.3514C65.8218 22.3514 65.7706 22.4021 65.7706 22.4021C65.7706 22.4529 65.7706 22.5037 65.8731 22.5037C65.9755 22.5037 66.0267 22.5037 66.0779 22.5544C66.1803 22.6052 66.2827 22.6559 66.2827 22.9097V27.0713ZM69.4572 23.8739C69.6108 23.9754 70.2252 24.7875 70.942 25.5487C71.5564 26.2592 72.3756 27.122 72.734 27.528C72.7852 27.5788 72.8876 27.6803 72.9901 27.6803C73.0413 27.6803 73.0925 27.6295 73.0925 27.4773L73.1437 23.1634C73.1437 22.8082 73.1949 22.6559 73.3485 22.6052C73.3997 22.5544 73.4509 22.5544 73.5021 22.5544C73.5533 22.5544 73.6045 22.5037 73.6045 22.5037C73.6045 22.4529 73.5533 22.4529 73.4509 22.4529C73.1437 22.4529 72.9389 22.5037 72.8364 22.5037C72.734 22.5037 72.3756 22.4529 72.0684 22.4529C71.966 22.4529 71.9148 22.4529 71.9148 22.5037C71.9148 22.5544 71.9148 22.5544 72.0172 22.5544C72.0684 22.5544 72.222 22.5544 72.3244 22.6052C72.478 22.6559 72.5292 22.7574 72.5292 23.2142L72.5804 26.2592C72.478 26.1577 71.6588 25.1935 71.2492 24.6859C70.3788 23.6709 69.406 22.5544 69.3547 22.5037C69.2523 22.4021 69.2011 22.2499 69.0987 22.2499C69.0475 22.2499 68.9963 22.3514 68.9963 22.5037L68.9451 26.5637C68.9451 27.1728 68.9451 27.3758 68.7915 27.3758C68.7403 27.4265 68.5867 27.4265 68.5355 27.4265C68.4843 27.4265 68.4331 27.4773 68.4331 27.4773C68.4331 27.528 68.4843 27.528 68.5867 27.528C68.8939 27.528 69.2011 27.4773 69.2523 27.4773C69.3547 27.4773 69.662 27.528 70.0204 27.528C70.0716 27.528 70.174 27.4773 70.174 27.4773C70.174 27.4773 70.174 27.4265 70.0716 27.4265C69.9692 27.4265 69.8668 27.4265 69.7644 27.3758C69.662 27.325 69.5596 27.1728 69.5596 26.6652L69.4572 23.8739ZM78.6243 26.3607V25.5487C78.6243 25.295 78.6755 25.1935 78.8291 25.1935C78.8803 25.1427 78.9315 25.1427 78.9827 25.1427C79.0339 25.1427 79.1363 25.092 79.1363 25.0412C79.1363 24.9905 79.0851 24.9905 79.0339 24.9905C78.8291 24.9905 78.5219 25.0412 78.3171 25.0412C78.1634 25.0412 77.7026 24.9905 77.3954 24.9905C77.3442 24.9905 77.293 24.9905 77.293 25.0412C77.293 25.092 77.3442 25.092 77.3954 25.092C77.4466 25.092 77.549 25.092 77.6002 25.1427C77.805 25.1935 77.8562 25.295 77.8562 25.498V26.919C77.8562 27.0205 77.8562 27.122 77.7538 27.1728C77.6002 27.2235 77.4978 27.2235 77.3442 27.2235C76.013 27.2235 75.245 26.1577 75.245 24.6859C75.245 23.8232 75.4498 23.3157 75.8082 23.0112C76.2178 22.6559 76.6786 22.6052 76.9858 22.6052C77.6514 22.6052 78.1122 22.9097 78.3171 23.1127C78.4707 23.3157 78.5219 23.5187 78.5219 23.6709C78.5219 23.7217 78.5219 23.7724 78.5731 23.7724C78.6243 23.7724 78.6243 23.7217 78.6243 23.6202C78.6243 22.7574 78.6755 22.5544 78.6755 22.5037C78.6755 22.4529 78.6755 22.4529 78.6243 22.4021C78.4707 22.4021 78.2659 22.3514 78.1634 22.3514C78.061 22.3006 77.4978 22.2499 77.0882 22.2499C76.5762 22.2499 76.013 22.3006 75.4498 22.7067C74.8866 23.0619 74.3745 23.8232 74.3745 24.9397C74.3745 26.8175 75.7058 27.6295 77.1906 27.6295C77.6514 27.6295 78.2659 27.5788 78.6755 27.325C78.7096 27.2912 78.7267 27.2066 78.7267 27.0713L78.6243 26.3607Z" fill="#051341"/>
<path d="M45.1406 34.8159C45.1406 35.2219 45.1406 35.5264 45.0894 35.7294C45.0894 35.8309 45.0382 35.9324 44.987 35.9324H44.8334C44.7992 35.9324 44.7822 35.9493 44.7822 35.9831C44.7822 36.0339 44.8334 36.0339 44.8334 36.0339H46.011C46.0451 36.0339 46.0622 36.017 46.0622 35.9831C46.0622 35.9324 46.011 35.9324 46.011 35.9324H45.755C45.6526 35.9324 45.6014 35.8816 45.6014 35.7294V33.2426C45.6014 33.0903 45.6526 33.0396 45.755 33.0396H45.8574C45.8915 33.0396 45.9086 33.0227 45.9086 32.9888C45.9086 32.9381 45.8574 32.9381 45.8574 32.9381H44.8334C44.7822 32.9381 44.731 32.9381 44.731 32.9888C44.731 33.0396 44.7822 33.0396 44.7822 33.0396H44.9358C44.987 33.0903 45.0382 33.0903 45.0894 33.2426V34.1054L45.1406 34.8159ZM49.5951 35.5771C49.5439 35.7294 49.5439 35.8816 49.4415 35.9324H49.3391C49.305 35.9324 49.2879 35.9493 49.2879 35.9831C49.2879 36.0339 49.3391 36.0339 49.3391 36.0339H50.1583C50.2095 36.0339 50.2607 36.0339 50.2607 35.9831C50.2607 35.9324 50.2095 35.9324 50.2095 35.9324C50.1583 35.9324 50.1071 35.9324 50.0047 35.8816C49.9535 35.8816 49.9023 35.8309 49.9023 35.7801V35.5771L50.1583 34.0039C50.3119 34.3084 50.5679 34.8159 50.5679 34.8666C50.6191 34.9681 50.9775 35.6279 51.0799 35.8309C51.1311 35.9324 51.1823 36.0339 51.2335 36.0339C51.2847 36.0339 51.2847 35.9831 51.3871 35.8309L52.3088 34.0039L52.5648 35.7801C52.5648 35.8816 52.5648 35.9324 52.5136 35.9831C52.4624 35.9831 52.4624 36.0339 52.4624 36.0339C52.4624 36.0846 52.5136 36.0846 52.5648 36.0846C52.7184 36.0846 53.2816 36.1354 53.384 36.1354C53.4352 36.1354 53.4864 36.1354 53.4864 36.0846C53.4864 36.0339 53.4352 36.0339 53.4352 36.0339C53.384 36.0339 53.2816 36.0339 53.1792 35.9831C53.0768 35.9324 53.0256 35.8309 52.9744 35.5771L52.5648 33.0396C52.5648 32.9888 52.5136 32.9381 52.5136 32.9381C52.4624 32.9381 52.4624 32.9888 52.4624 33.0396L51.2847 35.3741L50.1583 32.9888C50.1242 32.9212 50.09 32.8873 50.0559 32.8873C50.0047 32.8873 50.0047 32.9381 50.0047 32.9888L49.5951 35.5771ZM57.0193 34.8159C57.0193 35.2219 57.0193 35.5264 56.9681 35.6786C56.9681 35.7801 56.9169 35.8816 56.8657 35.8816H56.7121C56.678 35.8816 56.6609 35.8986 56.6609 35.9324C56.6609 35.9831 56.7121 35.9831 56.7121 35.9831H57.9409C57.9751 35.9831 57.9921 35.9662 57.9921 35.9324C57.9921 35.8816 57.9409 35.8816 57.9409 35.8816H57.6849C57.5825 35.8816 57.5313 35.7801 57.5313 35.6786C57.4801 35.4756 57.4801 35.1711 57.4801 34.8159V33.1411C57.4801 33.1073 57.4972 33.0903 57.5313 33.0903H57.6849C57.7361 33.0903 57.9409 33.1411 58.0945 33.2426C58.3505 33.4456 58.3505 33.7501 58.3505 33.8516C58.3505 34.2576 58.0433 34.5621 57.7873 34.5621C57.7361 34.5621 57.6849 34.5621 57.6849 34.6129C57.6849 34.6636 57.7361 34.6636 57.7361 34.6636H57.7873C58.3505 34.6636 58.8114 34.2576 58.8114 33.6993C58.8114 33.4963 58.709 33.2933 58.6065 33.1918C58.5553 33.1411 58.3505 32.9888 57.8385 32.9888H56.6097C56.5756 32.9888 56.5585 33.0057 56.5585 33.0396C56.5585 33.0903 56.6097 33.0903 56.6097 33.0903H56.7633C56.8657 33.1242 56.934 33.1918 56.9681 33.2933V34.9174H57.0193V34.8159ZM63.8291 36.0846C64.9043 36.0846 65.5699 35.3234 65.5699 34.3591C65.5699 33.3948 64.9043 32.7858 63.8803 32.7858C62.6003 32.7858 62.1394 33.6993 62.1394 34.4099C62.1394 35.1711 62.6003 36.0846 63.8291 36.0846ZM63.9827 35.8309C63.1635 35.8309 62.7027 35.1204 62.7027 34.2576C62.7027 33.2426 63.2659 32.9381 63.7267 32.9381C64.4435 32.9381 64.9555 33.4963 64.9555 34.4099C64.9555 35.7294 64.2899 35.8309 63.9827 35.8309ZM69.2564 34.8159C69.2564 35.2219 69.2564 35.5264 69.2052 35.6786C69.2052 35.7801 69.154 35.8816 69.1028 35.8816H68.9492C68.9151 35.8816 68.898 35.8986 68.898 35.9324C68.898 35.9831 68.9492 35.9831 68.9492 35.9831H70.0757C70.1269 35.9831 70.1781 35.9831 70.1781 35.9324C70.1781 35.8816 70.1781 35.8816 70.1269 35.8816H69.9221C69.8197 35.8816 69.7685 35.7801 69.7685 35.6786C69.7173 35.4756 69.7173 35.1711 69.7173 34.8159V34.7651C69.7173 34.7313 69.7343 34.7144 69.7685 34.7144H70.1269C70.161 34.7144 70.1781 34.7313 70.1781 34.7651C70.2293 34.8159 70.3829 35.1204 70.5877 35.3234C70.8437 35.6279 70.9973 35.8309 71.1509 35.9324C71.2533 35.9831 71.4069 35.9831 71.6117 35.9831H72.0213C72.0725 35.9831 72.1237 35.9831 72.1237 35.9324C72.1237 35.8816 72.1237 35.8816 72.0725 35.8816H71.9701C71.8677 35.8816 71.7653 35.8309 71.5093 35.6279C71.3045 35.3741 70.9461 35.0189 70.5877 34.5114C70.9973 34.1561 71.1509 33.9023 71.1509 33.5978C71.1509 33.3441 70.9973 33.0903 70.8949 33.0396C70.6389 32.8873 70.3829 32.8366 70.1269 32.8366H69.0004C68.9663 32.8366 68.9492 32.8535 68.9492 32.8873C68.9492 32.9381 69.0004 32.9381 69.0004 32.9381H69.154C69.2564 32.9719 69.3247 33.0396 69.3588 33.1411V34.0039L69.2564 34.8159ZM69.7173 33.1411C69.7173 33.1073 69.7173 33.1073 69.7173 33.1411C69.8197 33.0903 69.8709 33.0903 69.9733 33.0903C70.2293 33.0903 70.6389 33.2426 70.6389 33.8516C70.6389 34.2069 70.5365 34.4099 70.4341 34.4606C70.3658 34.4944 70.2634 34.5114 70.1269 34.5114C70.0245 34.5114 69.9221 34.5114 69.8197 34.4606C69.7685 34.4606 69.7685 34.4099 69.7685 34.4099L69.7173 33.1411ZM75.6054 34.8159C75.6054 35.2219 75.6054 35.5264 75.5542 35.6786C75.5542 35.7801 75.503 35.8816 75.4518 35.8816H75.2982C75.2641 35.8816 75.247 35.8986 75.247 35.9324C75.247 35.9831 75.2982 35.9831 75.2982 35.9831H76.5271C76.5612 35.9831 76.5783 35.9662 76.5783 35.9324C76.5783 35.8816 76.5271 35.8816 76.5271 35.8816H76.3222C76.2198 35.8816 76.1686 35.7801 76.1686 35.6786C76.1174 35.4756 76.1174 35.1711 76.1174 34.8159V33.0903H76.6295C77.0391 33.0903 77.1415 33.1918 77.1415 33.2933V33.3441C77.1415 33.3779 77.1585 33.3948 77.1927 33.3948C77.2439 33.3948 77.2439 33.3441 77.2439 33.3441V32.8366C77.2439 32.8027 77.2268 32.7858 77.1927 32.7858C77.1927 32.7858 77.1415 32.7858 77.0903 32.8366C76.9879 32.8366 76.9367 32.8873 76.7831 32.8873H75.1446C74.991 32.8873 74.8374 32.8873 74.735 32.8366C74.6326 32.8366 74.5814 32.7858 74.5302 32.7858C74.479 32.7858 74.479 32.8366 74.479 32.8366C74.479 32.8366 74.3766 33.2426 74.3766 33.3441C74.3766 33.3779 74.3937 33.3948 74.4278 33.3948C74.4619 33.3948 74.479 33.3779 74.479 33.3441C74.479 33.2933 74.5302 33.2933 74.5302 33.1918C74.6326 33.1411 74.6838 33.0903 74.9398 33.0903H75.5542L75.6054 34.8159ZM88.3566 34.8159C88.3566 35.2219 88.3566 35.5264 88.3054 35.6786C88.3054 35.7801 88.2542 35.8816 88.203 35.8816H88.0494C87.9982 35.8816 87.947 35.8816 87.947 35.9324C87.947 35.9831 87.9982 35.9831 88.0494 35.9831H89.7391C89.8927 35.9831 89.9439 35.9831 89.9439 35.8816C89.9951 35.8309 89.9951 35.4756 89.9951 35.4249C89.9951 35.3741 89.9951 35.3741 89.9439 35.3741C89.8927 35.3741 89.8927 35.3741 89.8927 35.4249C89.8415 35.5771 89.7903 35.6786 89.6879 35.7294C89.5855 35.7801 89.4319 35.7801 89.2783 35.7801C88.8686 35.7801 88.7662 35.7294 88.7662 35.4249V34.4099C88.7662 34.376 88.7833 34.3591 88.8174 34.3591H89.3807C89.5343 34.3591 89.5855 34.4099 89.5855 34.5114V34.6636C89.5855 34.6975 89.6025 34.7144 89.6367 34.7144C89.6879 34.7144 89.6879 34.6636 89.6879 34.6636V34.4099C89.6879 34.2069 89.7391 34.1561 89.7391 34.1054C89.7391 34.0546 89.7391 34.0546 89.6879 34.0546C89.6367 34.0546 89.6367 34.1054 89.5855 34.1054C89.5343 34.1561 89.4831 34.1561 89.3807 34.1561H88.715C88.6809 34.1561 88.6638 34.1392 88.6638 34.1054V33.0396C88.6638 33.0057 88.6809 32.9888 88.715 32.9888H89.2783C89.4831 33.0396 89.5343 33.0396 89.5343 33.1411C89.5855 33.1918 89.5855 33.2426 89.5855 33.2933C89.5855 33.3441 89.5855 33.3441 89.6367 33.3441C89.6879 33.3441 89.6879 33.2933 89.6879 33.2933C89.6879 33.2426 89.6879 33.0903 89.7391 33.0396C89.7391 32.8366 89.7903 32.8366 89.7903 32.7858C89.7903 32.7351 89.7903 32.7351 89.7391 32.7351H89.6367C89.5855 32.7351 89.5343 32.7351 89.4319 32.7858H87.7934C87.7251 32.7858 87.691 32.8027 87.691 32.8366C87.691 32.8873 87.7422 32.8873 87.7934 32.8873H87.947C88.0494 32.9212 88.1177 32.9888 88.1518 33.0903V33.9531L88.3566 34.8159ZM95.6272 33.2933C95.7296 33.0903 95.832 32.9888 95.9344 32.9888C96.0368 32.9888 96.0368 32.9381 96.088 32.9381C96.1392 32.9381 96.1904 32.9381 96.1904 32.8873C96.1904 32.8366 96.1392 32.8366 96.088 32.8366H95.2688C95.2347 32.8366 95.2176 32.8535 95.2176 32.8873C95.2176 32.9381 95.2688 32.9381 95.2688 32.9381H95.3712C95.4224 32.9381 95.4736 32.9888 95.4736 32.9888C95.4736 32.9888 95.4736 33.0903 95.4224 33.1411C95.32 33.2426 94.9616 33.8516 94.8592 34.0039C94.7056 33.7501 94.5008 33.4456 94.296 33.0903C94.2619 33.0565 94.2448 33.0227 94.2448 32.9888C94.2448 32.955 94.2619 32.9381 94.296 32.9381H94.3984C94.3984 32.9381 94.5008 32.9381 94.5008 32.8873C94.5008 32.8366 94.4496 32.8366 94.3984 32.8366H93.272C93.2208 32.8366 93.1696 32.8366 93.1696 32.8873C93.1696 32.9381 93.1696 32.9381 93.2208 32.9381C93.272 32.9381 93.3232 32.9381 93.4256 32.9888C93.5792 33.0396 93.6304 33.1411 93.784 33.2933L94.5008 34.4606L93.6816 35.6279C93.528 35.8309 93.4768 35.8816 93.3232 35.9324C93.2208 35.9324 93.2208 35.9831 93.1696 35.9831C93.1184 35.9831 93.0672 35.9831 93.0672 36.0339C93.0672 36.0846 93.1184 36.0846 93.1696 36.0846H94.1424C94.1936 36.0846 94.2448 36.0846 94.2448 36.0339C94.2448 35.9831 94.1936 35.9831 94.1936 35.9831H94.0912C94.04 35.9831 93.9888 35.9324 93.9888 35.9324C93.9888 35.9324 93.9888 35.8309 94.0912 35.7294L94.7056 34.7651C94.9104 35.0696 95.1152 35.4756 95.3712 35.9324C95.4224 35.9831 95.3712 35.9831 95.3712 36.0339C95.32 36.0339 95.2688 36.0846 95.2688 36.0846C95.2688 36.1354 95.32 36.1354 95.4224 36.1354H96.2928C96.344 36.1354 96.3952 36.1354 96.3952 36.0846C96.3952 36.0339 96.344 36.0339 96.344 36.0339C96.2928 36.0339 96.2416 36.0339 96.1904 35.9831C96.088 35.9324 96.0368 35.9324 95.9856 35.7801C95.8832 35.6786 95.2176 34.5114 95.064 34.3084L95.6272 33.2933ZM99.6721 34.8159C99.6721 35.2219 99.6721 35.5264 99.6209 35.6786C99.6209 35.7801 99.5697 35.8816 99.5185 35.8816H99.3649C99.3137 35.8816 99.2625 35.8816 99.2625 35.9324C99.2625 35.9831 99.3137 35.9831 99.3649 35.9831H100.543C100.577 35.9831 100.594 35.9662 100.594 35.9324C100.594 35.8816 100.543 35.8816 100.543 35.8816H100.338C100.235 35.8816 100.184 35.7801 100.184 35.6786C100.133 35.4756 100.133 35.1711 100.133 34.8159V33.1411C100.133 33.1073 100.15 33.0903 100.184 33.0903H100.338C100.389 33.0903 100.594 33.1411 100.747 33.2426C100.952 33.4456 100.952 33.7501 100.952 33.8516C100.952 34.2576 100.645 34.5621 100.389 34.5621C100.338 34.5621 100.287 34.5621 100.287 34.6129C100.287 34.6636 100.338 34.6636 100.338 34.6636H100.389C100.952 34.6636 101.413 34.2576 101.413 33.6993C101.413 33.4963 101.311 33.2933 101.208 33.1918C101.106 33.1411 100.952 32.9888 100.44 32.9888H99.2113C99.1772 32.9888 99.1601 33.0057 99.1601 33.0396C99.1601 33.0903 99.2113 33.0903 99.2113 33.0903H99.3649C99.4673 33.1242 99.5356 33.1918 99.5697 33.2933V34.9174H99.6721V34.8159ZM106.482 36.0846C107.557 36.0846 108.223 35.3234 108.223 34.3591C108.223 33.3948 107.557 32.7858 106.533 32.7858C105.253 32.7858 104.792 33.6993 104.792 34.4099C104.843 35.1711 105.304 36.0846 106.482 36.0846ZM106.687 35.8309C105.868 35.8309 105.407 35.1204 105.407 34.2576C105.407 33.2426 105.97 32.9381 106.431 32.9381C107.096 32.9381 107.66 33.4963 107.66 34.4099C107.66 35.7294 106.994 35.8309 106.687 35.8309ZM111.96 34.8159C111.96 35.2219 111.96 35.5264 111.909 35.6786C111.909 35.7801 111.858 35.8816 111.807 35.8816H111.653C111.619 35.8816 111.602 35.8986 111.602 35.9324C111.602 35.9831 111.653 35.9831 111.653 35.9831H112.78C112.814 35.9831 112.831 35.9662 112.831 35.9324C112.831 35.8986 112.814 35.8816 112.78 35.8816H112.575C112.473 35.8816 112.421 35.7801 112.421 35.6786C112.37 35.4756 112.37 35.1711 112.37 34.8159V34.7651C112.37 34.7313 112.387 34.7144 112.421 34.7144H112.78C112.814 34.7144 112.848 34.7313 112.882 34.7651C112.933 34.8159 113.087 35.1204 113.292 35.3234C113.497 35.6279 113.701 35.8309 113.855 35.9324C113.957 35.9831 114.06 35.9831 114.316 35.9831H114.725C114.777 35.9831 114.828 35.9831 114.828 35.9324C114.828 35.8816 114.828 35.8816 114.777 35.8816H114.674C114.623 35.8816 114.469 35.8309 114.213 35.6279C113.957 35.3741 113.65 34.9681 113.292 34.5114C113.701 34.1561 113.804 33.9023 113.804 33.5978C113.804 33.3441 113.65 33.0903 113.548 33.0396C113.343 32.8873 113.036 32.8366 112.78 32.8366H111.653C111.585 32.8366 111.551 32.8535 111.551 32.8873C111.551 32.9381 111.602 32.9381 111.653 32.9381H111.807C111.909 32.9719 111.978 33.0396 112.012 33.1411V34.0039L111.96 34.8159ZM112.421 33.1411C112.421 33.1073 112.438 33.0903 112.473 33.0903H112.677C112.882 33.0903 113.343 33.2426 113.343 33.8516C113.343 34.2069 113.241 34.4099 113.138 34.4606C113.087 34.5114 113.036 34.5114 112.831 34.5114C112.729 34.5114 112.626 34.5114 112.524 34.4606C112.473 34.4606 112.473 34.4099 112.473 34.4099L112.421 33.1411ZM118.309 34.8159C118.309 35.2219 118.309 35.5264 118.258 35.6786C118.258 35.7801 118.207 35.8816 118.156 35.8816H118.002C117.951 35.8816 117.9 35.8816 117.9 35.9324C117.9 35.9831 117.951 35.9831 118.002 35.9831H119.231C119.282 35.9831 119.333 35.9831 119.333 35.9324C119.333 35.8816 119.282 35.8816 119.231 35.8816H119.026C118.924 35.8816 118.873 35.7801 118.873 35.6786C118.821 35.4756 118.821 35.1711 118.821 34.8159V33.0903H119.385C119.794 33.0903 119.897 33.1918 119.897 33.2933V33.3441C119.897 33.3779 119.914 33.3948 119.948 33.3948C119.999 33.3948 119.999 33.3441 119.999 33.3441V32.8366C119.999 32.8027 119.982 32.7858 119.948 32.7858C119.948 32.7858 119.897 32.7858 119.846 32.8366C119.794 32.8366 119.692 32.8873 119.538 32.8873H117.951C117.797 32.8873 117.644 32.8873 117.541 32.8366C117.439 32.8366 117.388 32.7858 117.337 32.7858C117.285 32.7858 117.285 32.8366 117.285 32.8366C117.285 32.8366 117.183 33.2426 117.183 33.3441C117.183 33.3779 117.2 33.3948 117.234 33.3948C117.268 33.3948 117.285 33.3779 117.285 33.3441C117.285 33.2933 117.337 33.2933 117.388 33.1918C117.439 33.1411 117.541 33.0903 117.797 33.0903H118.412V34.8159" fill="#051341"/>
<path fill-rule="evenodd" clip-rule="evenodd" d="M13.449 2.25397C14.5242 2.25397 15.3434 3.11674 15.3434 4.13176C15.3434 5.14678 14.473 6.00955 13.449 6.00955C12.4249 6.00955 11.5545 5.14678 11.5545 4.13176C11.5545 3.06599 12.3737 2.25397 13.449 2.25397Z" fill="#105A01"/>
<path fill-rule="evenodd" clip-rule="evenodd" d="M27.0153 2.25397C28.0905 2.25397 28.9097 3.11674 28.9097 4.13176C28.9097 5.14678 28.0393 6.00955 27.0153 6.00955C25.9913 6.00955 25.1208 5.14678 25.1208 4.13176C25.0696 3.06599 25.9401 2.25397 27.0153 2.25397Z" fill="#105A01"/>
<path fill-rule="evenodd" clip-rule="evenodd" d="M13.449 35.1732C14.5242 35.1732 15.3434 36.0359 15.3434 37.051C15.3434 38.066 14.473 38.9288 13.449 38.9288C12.4249 38.9288 11.5545 38.066 11.5545 37.051C11.5545 36.0359 12.3737 35.1732 13.449 35.1732Z" fill="#105A01"/>
<path fill-rule="evenodd" clip-rule="evenodd" d="M27.0153 35.1732C28.0905 35.1732 28.9097 36.0359 28.9097 37.051C28.9097 38.066 28.0393 38.9288 27.0153 38.9288C25.9913 38.9288 25.1208 38.066 25.1208 37.051C25.1208 36.0359 25.9401 35.1732 27.0153 35.1732Z" fill="#105A01"/>
<path fill-rule="evenodd" clip-rule="evenodd" d="M3.76164 11.9373C4.83687 11.9373 5.65609 12.8 5.65609 13.8151C5.65609 14.8301 4.78567 15.6929 3.76164 15.6929C2.73761 15.6929 1.86719 14.8301 1.86719 13.8151C1.91839 12.7493 2.73761 11.9373 3.76164 11.9373Z" fill="#105A01"/>
<path fill-rule="evenodd" clip-rule="evenodd" d="M36.9135 11.9373C37.9888 11.9373 38.808 12.8 38.808 13.8151C38.808 14.8301 37.9376 15.6929 36.9135 15.6929C35.8895 15.6929 35.0191 14.8301 35.0191 13.8151C34.9679 12.7493 35.8383 11.9373 36.9135 11.9373Z" fill="#105A01"/>
<path fill-rule="evenodd" clip-rule="evenodd" d="M3.76164 25.3417C4.83687 25.3417 5.65609 26.2044 5.65609 27.2195C5.65609 28.2345 4.78567 29.0972 3.76164 29.0972C2.73761 29.0972 1.86719 28.2345 1.86719 27.2195C1.91839 26.2044 2.73761 25.3417 3.76164 25.3417Z" fill="#105A01"/>
<path fill-rule="evenodd" clip-rule="evenodd" d="M36.9135 25.3417C37.9888 25.3417 38.808 26.2044 38.808 27.2195C38.808 28.2345 37.9376 29.0972 36.9135 29.0972C35.8895 29.0972 35.0191 28.2345 35.0191 27.2195C34.9679 26.2044 35.8383 25.3417 36.9135 25.3417Z" fill="#105A01"/>
<path fill-rule="evenodd" clip-rule="evenodd" d="M17.0741 29.5662C17.0741 29.4139 17.2789 29.3124 17.3301 29.2617C17.7397 28.9572 18.0981 28.9064 18.4565 28.7034C18.7125 28.6019 19.0197 28.5512 19.2757 28.3989C19.4805 28.3482 19.5829 28.2974 19.7365 28.2974C20.2998 28.0944 19.9925 28.0944 20.6582 28.2974L21.9382 28.7034C22.3478 28.9064 22.7062 28.9572 23.1158 29.2617C23.679 29.6677 23.0134 30.4797 22.3478 30.8857C21.119 31.647 19.6853 31.5962 18.4053 31.1395C18.0469 31.038 17.5861 30.6827 17.3301 30.3782C17.0741 30.0737 17.0741 29.9214 17.0741 29.5662ZM14.6164 23.7806C14.6164 23.3745 13.5412 22.4103 13.3876 22.2073L12.3635 21.0907C12.2611 20.9385 12.1587 20.8877 12.0563 20.6847C11.1347 19.7712 10.4691 18.5024 10.8787 17.2337L12.1075 14.8991C12.6195 14.1378 13.3364 13.0721 13.9508 12.463C14.002 12.3615 14.0532 12.3615 14.1556 12.26L14.258 12.1585L15.3844 10.9913C16.2036 10.2808 16.3572 10.3823 16.8181 10.839C16.9717 10.9913 17.0229 11.0928 17.2277 11.245C17.6885 11.7018 18.4565 12.3108 19.0709 12.5646C19.9413 12.9198 20.863 12.8691 21.7334 12.6153C21.9894 12.5138 22.0406 12.463 22.2966 12.3615C23.2182 11.8033 23.5254 11.448 24.1911 10.636C24.3447 10.433 24.2935 10.4838 24.6007 10.4838C24.9079 10.4838 25.6759 11.1435 25.8807 11.3465C26.0343 11.4988 26.0343 11.6003 26.1879 11.7525C26.5975 12.1585 26.8023 12.4123 27.2119 12.8691L29.1064 15.6096L29.2088 15.8126C29.4648 16.2186 29.772 16.7769 29.8744 17.2844C30.284 18.5532 29.5672 19.8727 28.6456 20.7355C28.492 20.8877 28.4408 20.9892 28.2872 21.1415C27.6728 21.852 26.9047 22.4103 26.2391 23.3238C25.6759 24.0343 26.1879 24.3896 26.3927 24.7448C26.8023 25.4553 26.7511 26.4704 26.2903 27.1301C25.5223 28.1959 23.679 27.9929 22.5526 27.7391C22.399 27.6884 22.3478 27.6884 22.143 27.6376C21.9382 27.5869 21.887 27.5869 21.7334 27.5361C21.5286 27.4854 21.1702 27.4346 20.9654 27.2824C20.863 27.1809 20.7606 27.1809 20.7606 26.9779C20.7606 25.6076 20.863 25.7598 21.887 24.9986C22.2454 24.7448 23.0646 24.2373 23.0646 23.6791C23.0646 23.5775 22.655 23.3745 22.6038 23.273C22.0406 22.9685 21.0678 22.867 20.4022 22.867L19.0709 22.9178C18.9685 22.9685 18.8661 22.9685 18.7637 23.0193C18.5077 23.07 17.6373 23.3238 17.6373 23.6283C17.6373 24.1358 18.8661 24.9478 19.2245 25.2016C19.4805 25.3538 19.9413 25.6076 19.9413 26.3181C19.9413 26.9271 20.0437 27.0794 19.7365 27.2316C19.4293 27.4346 18.9685 27.4854 18.6101 27.5869L17.7397 27.7899C16.7669 27.9929 15.4868 28.0944 14.6676 27.3839C14.4628 27.1809 14.4116 27.1301 14.258 26.8256C14.002 26.1659 14.002 25.4046 14.3604 24.7956C14.4628 24.2373 14.6164 24.4403 14.6164 23.7806ZM3.40123 20.3295C3.40123 20.9892 3.60604 21.5475 3.91325 22.055C4.01565 22.2073 4.01565 22.258 4.11805 22.3595L6.57572 25.2523C7.34374 26.2674 7.19014 26.9779 7.34374 27.9929L7.44615 29.9214C7.54855 30.7335 7.70215 31.6977 8.26537 32.256C8.67498 32.662 9.08459 32.8142 9.64781 33.0173C10.1598 33.1188 11.4399 33.3218 11.9007 33.271C12.4639 33.2203 13.6415 33.3725 14.2047 33.5248C14.768 33.6263 15.1776 33.9308 15.6384 34.2353C16.56 34.895 17.2256 35.8086 18.1472 36.4176L19.1201 36.9758C19.8369 37.2803 20.7073 37.2803 21.3729 36.9251L22.2946 36.3668C23.0114 35.8593 23.5234 35.1488 24.2402 34.6413C24.8034 34.1338 25.469 33.7278 26.1859 33.5248C26.3395 33.4233 26.4931 33.474 26.6467 33.4233C26.9027 33.3725 26.7491 33.3725 27.0563 33.3218L28.4899 33.2203C29.258 33.1695 30.0772 33.1695 30.8452 32.9665C30.9988 32.9158 31.05 32.9158 31.2036 32.865C32.7909 32.3067 32.8421 30.3782 32.9445 28.9572C32.9957 28.7034 32.9445 28.5512 32.9957 28.1959C33.0469 27.8914 33.0981 27.5361 33.0981 27.2316C33.2005 26.3181 33.6613 25.4553 34.2245 24.7448L35.4533 23.3745C36.375 22.258 37.2966 21.1415 36.7334 19.6697C36.5798 19.2129 36.2726 18.7562 35.9653 18.4009C35.8629 18.2994 35.8117 18.2487 35.7093 18.0964L35.1973 17.5382L35.1461 17.4874L34.4293 16.7261C33.9685 16.1171 33.4565 15.6096 33.2005 14.8484C32.9445 14.0871 32.9445 13.2751 32.8933 12.5138L32.6372 10.1285C32.586 9.92549 32.586 9.87474 32.5348 9.77324C32.5007 9.6379 32.4495 9.50257 32.3812 9.36723C32.0228 8.60596 31.306 8.25071 30.5892 7.99695C29.3092 7.64169 27.1075 7.9462 25.6227 7.38794C25.6227 7.38794 25.5715 7.38794 25.5715 7.33719C24.189 6.77892 23.0114 5.15489 21.6801 4.34287C21.4241 4.19062 21.2705 4.08911 20.9633 3.93686C20.0417 3.53085 19.1713 3.83536 18.4033 4.29212C17.9936 4.54587 17.584 4.85038 17.2256 5.20564L15.28 6.93118C14.4095 7.54019 13.4879 7.59094 12.4639 7.7432C11.9007 7.8447 11.0302 7.7432 10.467 7.8447C10.3134 7.89545 10.211 7.9462 10.0574 7.9462L9.18699 8.1492C8.62378 8.35221 8.00936 8.75822 7.75335 9.31648C7.34374 10.1285 7.34374 11.042 7.24134 11.9555C7.19014 12.5138 7.13894 13.8333 7.03653 14.2901C6.93413 14.6961 6.83173 15.0514 6.62692 15.4574C6.52452 15.6604 6.37092 15.8634 6.21731 16.0664C5.8077 16.6246 5.29569 17.1829 4.73247 17.7412C4.37406 18.0964 4.11805 18.5024 3.81084 18.9084C3.65724 19.2637 3.40123 19.822 3.40123 20.3295Z" fill="#051341"/>
<path fill-rule="evenodd" clip-rule="evenodd" d="M13.8811 15.9466L14.1884 16.5556C14.1884 16.5556 14.1884 16.6064 14.2396 16.6064C14.4956 16.9616 14.854 17.0124 15.3148 17.2154C15.5196 17.2661 17.0556 17.9767 17.158 17.9259C17.3628 17.8751 17.3116 17.9767 17.414 17.4184C17.6188 16.0481 17.5164 15.7436 16.1852 15.7436C15.7244 15.6929 14.1371 15.7944 13.8811 15.9466Z" fill="#051341"/>
<path fill-rule="evenodd" clip-rule="evenodd" d="M22.8967 16.5617C22.8967 16.9677 22.9479 17.6275 23.1527 17.932C23.5623 17.8305 24.5351 17.3737 25.0472 17.1707C25.3032 17.0692 25.8152 16.917 25.9688 16.7647C26.1224 16.6125 26.3784 16.2065 26.3784 15.8512C26.0712 15.8512 25.6104 15.7497 25.3032 15.7497C24.8935 15.6989 23.5623 15.6482 23.1527 15.8004C23.0503 15.9527 22.8967 16.2065 22.8967 16.5617Z" fill="#051341"/>
<path d="M4.29419 20.1569H7.31507C7.31507 17.6194 7.92949 15.2848 9.00472 13.204C8.2367 12.9503 7.51988 12.6458 6.80306 12.392C6.75185 12.3412 6.70065 12.3412 6.70065 12.3412C6.73479 12.3074 6.75185 12.2736 6.75185 12.2397C6.80306 12.2905 6.85426 12.2905 6.85426 12.2905C7.51988 12.595 8.2879 12.8488 9.05592 13.1025C9.82394 11.6815 10.7456 10.4127 11.8208 9.29618C12.3328 8.73792 12.896 8.28116 13.408 7.87515C12.9984 7.7229 12.6912 7.57064 12.3328 7.36764C12.2816 7.31689 12.1792 7.26614 12.128 7.26614C12.1621 7.2323 12.1963 7.21538 12.2304 7.21538C12.2987 7.24922 12.3499 7.28305 12.384 7.31689C12.7424 7.51989 13.1008 7.67214 13.4592 7.87515C15.0465 6.70787 16.8385 5.8451 18.6818 5.33759C18.8866 5.28684 19.0914 5.28684 19.245 5.28684C17.1457 5.7436 15.1489 6.65712 13.5104 7.9259C14.3297 8.28116 15.2513 8.53491 16.2753 8.73792C16.5313 8.38266 16.8385 8.0274 17.0945 7.7229C17.9138 6.80937 18.8354 5.99736 19.8082 5.33759H20.013C18.989 6.04811 18.0674 6.91088 17.2481 7.8244C16.9409 8.1289 16.6849 8.43341 16.4801 8.78867C17.6066 9.04242 18.8866 9.14393 20.1666 9.14393V5.33759H20.269V9.14393C21.5491 9.14393 22.8291 9.04242 23.9555 8.78867C23.6995 8.43341 23.3923 8.1289 23.1363 7.8244C22.2659 6.91088 21.3443 6.04811 20.3714 5.33759H20.525C21.4979 6.04811 22.4195 6.86013 23.2387 7.7229C23.5459 8.0274 23.8019 8.38266 24.1091 8.73792C25.082 8.53491 26.0036 8.28116 26.874 7.9259C25.1844 6.70787 23.2387 5.7436 21.1395 5.28684C21.3443 5.28684 21.5491 5.33759 21.7027 5.33759C23.6483 5.8451 25.4404 6.70787 26.9252 7.87515C27.3348 7.7229 27.6932 7.57064 28.0005 7.31689C28.0517 7.26614 28.1029 7.26614 28.1541 7.21538C28.1882 7.24922 28.2223 7.26614 28.2565 7.26614C28.2053 7.31689 28.1029 7.36764 28.0517 7.36764C27.7444 7.57064 27.386 7.7229 26.9764 7.87515C27.5396 8.28116 28.1029 8.78867 28.5637 9.29618C29.6389 10.4127 30.6117 11.6815 31.3285 13.1025C32.0966 12.8488 32.8134 12.5443 33.5302 12.2905C33.5814 12.2397 33.6326 12.2397 33.6326 12.2397C33.6667 12.2736 33.7009 12.3074 33.735 12.3412C33.6667 12.3751 33.6155 12.392 33.5814 12.392C32.9158 12.6965 32.1478 12.9503 31.3797 13.204C32.455 15.2848 33.0182 17.6194 33.0694 20.1569H36.1415V20.2584H33.1206C33.1206 22.796 32.5062 25.1305 31.4309 27.2113C32.199 27.4651 32.9158 27.7696 33.6326 28.0233C33.7009 28.0572 33.7521 28.0741 33.7862 28.0741C33.7521 28.1079 33.735 28.1418 33.735 28.1756C33.6838 28.1248 33.6326 28.1248 33.6326 28.1248C32.967 27.8203 32.199 27.5666 31.4309 27.3128C30.6629 28.7339 29.7413 30.0026 28.6661 31.1192C28.1541 31.6267 27.5908 32.0834 27.0788 32.5402C27.4884 32.6924 27.7956 32.8447 28.1541 33.0477C28.2053 33.0985 28.3077 33.1492 28.3589 33.1492C28.3247 33.183 28.2906 33.2 28.2565 33.2C28.1882 33.1661 28.137 33.1323 28.1029 33.0985C27.7444 32.9462 27.386 32.7432 27.0276 32.5402C25.4404 33.7075 23.6483 34.5702 21.8051 35.0777C21.6003 35.1285 21.3955 35.1285 21.2419 35.1285C23.3411 34.6717 25.338 33.7582 26.9764 32.4894C26.1572 32.1342 25.2356 31.8804 24.2115 31.6774C23.9555 32.0327 23.6483 32.3879 23.3411 32.6924C22.5219 33.606 21.6003 34.418 20.6274 35.0777H20.4738C21.4979 34.3165 22.4195 33.5045 23.2387 32.5909C23.5459 32.2864 23.8019 31.9312 24.0579 31.6267C22.9315 31.3729 21.6515 31.2714 20.3714 31.2714V35.0777H20.269V31.2714C18.989 31.2714 17.709 31.3729 16.5825 31.6267C16.8385 31.9819 17.1457 32.2864 17.3506 32.5909C18.221 33.5045 19.1426 34.3672 20.1154 35.0777H19.9106C18.9378 34.3672 18.0162 33.5552 17.1969 32.6924C16.8897 32.3879 16.6337 32.0327 16.3777 31.6774C15.3537 31.8804 14.4833 32.1342 13.6128 32.4894C15.3025 33.7075 17.2481 34.6717 19.3474 35.1285C19.1426 35.1285 18.9378 35.0777 18.7842 35.0777C16.8385 34.5702 15.0465 33.7075 13.5616 32.5402C13.152 32.6924 12.7936 32.8447 12.4864 33.0477C12.4352 33.0985 12.384 33.1492 12.3328 33.1492C12.2987 33.1154 12.2645 33.0985 12.2304 33.0985C12.3328 33.0477 12.384 32.997 12.4352 32.997C12.7424 32.7939 13.1008 32.6417 13.5104 32.4894C12.9472 32.0834 12.384 31.5759 11.9232 31.0684C10.7968 29.9519 9.87514 28.6831 9.15832 27.2621C8.3903 27.5158 7.62228 27.8203 6.95666 28.0741C6.90546 28.1248 6.85426 28.1248 6.85426 28.1248C6.82012 28.091 6.80306 28.0572 6.80306 28.0233C6.85426 27.9726 6.90546 27.9726 6.90546 27.9726C7.57108 27.6681 8.3391 27.4143 9.10712 27.1606C8.03189 25.0798 7.46867 22.7452 7.41747 20.2077H4.39659V20.1569H4.29419ZM24.1112 8.73589C25.34 10.3092 26.2616 12.1362 26.8761 14.1155C28.4633 13.8618 29.8969 13.5572 31.2794 13.1005C30.5114 11.6795 29.6409 10.4107 28.5145 9.3449C28.0025 8.83739 27.4393 8.32988 26.8761 7.87312C26.0568 8.27913 25.1352 8.53288 24.1112 8.73589ZM26.9273 14.217C27.4905 16.044 27.8489 18.0233 27.8489 20.0534H32.969C32.969 17.5666 32.3546 15.1813 31.2794 13.1512C29.9994 13.608 28.5657 13.9633 26.9273 14.217ZM27.8489 20.2056C27.8489 22.2864 27.5417 24.2657 26.9273 26.042C28.5145 26.2958 29.9994 26.651 31.3306 27.057C32.4058 24.9762 32.969 22.6417 33.0202 20.1549L27.8489 20.2056ZM26.9273 26.1943C26.2616 28.1736 25.34 30.0006 24.1624 31.5739C25.1864 31.7769 26.108 32.0814 26.9273 32.3859C27.4905 31.9799 28.0537 31.4724 28.5657 30.9141C29.6409 29.7976 30.6138 28.5288 31.3306 27.1585C29.9482 26.7525 28.5145 26.448 26.9273 26.1943ZM24.0088 31.5231C25.2376 29.9499 26.2104 28.1228 26.8249 26.1435C24.7768 25.839 22.5751 25.636 20.2711 25.5853V31.1171C21.6023 31.2186 22.8312 31.3201 24.0088 31.5231ZM26.8761 26.0928C27.4393 24.2657 27.7977 22.2864 27.7977 20.2564H20.3202V25.636C22.5731 25.5853 24.7748 25.7375 26.874 26.0928H26.8761ZM27.7465 20.1549C27.7465 18.1248 27.4393 16.0948 26.8249 14.3185C24.7768 14.623 22.5751 14.8768 20.2711 14.8768V20.2056H27.7485V20.1549H27.7465ZM26.8249 14.1663C26.1592 12.187 25.2376 10.3599 24.0088 8.78664C22.8312 9.04039 21.6023 9.1419 20.2711 9.1419V14.6738C22.5751 14.6738 24.7768 14.5215 26.8249 14.1663ZM16.4289 8.78664C15.2001 10.3599 14.2273 12.187 13.6128 14.1663C15.7121 14.4708 17.8626 14.7245 20.1666 14.7245V9.19265C18.8354 9.09114 17.6066 8.98964 16.4289 8.78664ZM13.6128 14.2678C13.0496 16.0948 12.6912 18.0741 12.6912 20.1041H20.1687V14.7245C17.8646 14.7753 15.6118 14.5723 13.6149 14.2678H13.6128ZM12.6912 20.2056C12.6912 22.2864 12.9984 24.2657 13.6128 26.042C15.6609 25.7375 17.8626 25.4838 20.1666 25.4838V20.1041L12.6892 20.2056H12.6912ZM13.6128 26.1435C14.2273 28.1228 15.2001 29.9499 16.4289 31.5231C17.6066 31.2694 18.8354 31.1679 20.1666 31.1679V25.6868C17.8626 25.636 15.6097 25.839 13.6128 26.1435ZM16.3265 31.5231C15.0977 29.9499 14.1761 28.1228 13.5616 26.1435C11.9744 26.3973 10.5408 26.7525 9.15832 27.1585C9.92634 28.5796 10.7968 29.7976 11.9232 30.9141C12.4864 31.4724 12.9984 31.9291 13.5616 32.3859C14.3809 32.0307 15.3025 31.7769 16.3265 31.5231ZM13.4592 26.0928C12.896 24.2657 12.5376 22.2864 12.5376 20.2564H7.36627C7.36627 22.7432 7.98069 25.0777 9.00472 27.1585C10.4384 26.651 11.9232 26.3465 13.4592 26.0928ZM12.5888 20.1549C12.5888 18.0741 12.896 16.0948 13.5104 14.3185C11.9232 14.0648 10.4384 13.7095 9.10712 13.3035C8.03189 15.3843 7.46867 17.7188 7.41747 20.2056L12.5888 20.1549ZM13.5104 14.1663C14.1761 12.187 15.0977 10.3599 16.2753 8.78664C15.2513 8.58363 14.3297 8.27913 13.5104 7.97462C12.9472 8.38063 12.384 8.88814 11.872 9.4464C10.7968 10.5629 9.82394 11.8317 9.10712 13.202C10.4384 13.5572 11.9232 13.9125 13.5104 14.1663Z" fill="white"/>
<path fill-rule="evenodd" clip-rule="evenodd" d="M13.4501 7.72916C15.0335 6.57692 16.8157 5.72392 18.6486 5.21925L18.6502 5.21883L18.6517 5.21844C18.8714 5.16401 19.0888 5.16402 19.2409 5.16402H21.1395C21.2511 5.16402 21.3609 5.17783 21.4566 5.19048L21.474 5.19278C21.5657 5.20493 21.64 5.21477 21.7027 5.21477H21.7187L21.7342 5.21882C23.6709 5.72399 25.4584 6.5789 26.9469 7.73572C27.3248 7.59303 27.6439 7.45045 27.9174 7.22563C27.9558 7.18894 27.9945 7.1698 28.0194 7.1575L28.0218 7.15628C28.0474 7.14362 28.0565 7.13842 28.0664 7.12854L28.1541 7.04169L28.2417 7.12854C28.251 7.13782 28.2573 7.14183 28.2601 7.14332H28.5556L28.3441 7.35298C28.3062 7.3905 28.2556 7.42293 28.2095 7.44577C28.1782 7.46125 28.1372 7.47831 28.0955 7.48612C27.8376 7.65288 27.548 7.78531 27.2305 7.90988C27.7389 8.29549 28.2378 8.75392 28.6545 9.21268C29.7116 10.3105 30.6724 11.5569 31.3907 12.9521C31.736 12.8354 32.0718 12.709 32.404 12.5819C32.4629 12.5594 32.5218 12.5368 32.5805 12.5142C32.8768 12.4006 33.1712 12.2876 33.4654 12.183C33.4989 12.1555 33.5327 12.1391 33.5614 12.1296C33.5788 12.1238 33.5942 12.1207 33.6063 12.119C33.6124 12.1181 33.6177 12.1176 33.6221 12.1173C33.6243 12.1172 33.6263 12.1171 33.628 12.117L33.6305 12.1169L33.6316 12.1169L33.6321 12.1169L33.6324 12.1169C33.6324 12.1169 33.6326 12.1169 33.6326 12.2397V12.1169H33.6839L33.9442 12.3749L33.7904 12.4511C33.7321 12.48 33.6704 12.5054 33.6132 12.5127C32.9848 12.7983 32.2691 13.0393 31.5551 13.2755C32.5806 15.3089 33.1251 17.5776 33.1905 20.0341H36.2654V20.3812H33.244C33.2249 22.8402 32.6327 25.1089 31.6061 27.1404C31.9448 27.2557 32.2735 27.3795 32.5956 27.5028C32.655 27.5255 32.7142 27.5482 32.7731 27.5708C33.0772 27.6875 33.3757 27.802 33.6743 27.9077L33.6813 27.9102L33.688 27.9135C33.7189 27.9288 33.7431 27.9389 33.7614 27.9449C33.7805 27.9512 33.7877 27.9513 33.7863 27.9513H34.0854L33.8738 28.1609C33.8645 28.1702 33.8604 28.1765 33.8589 28.1792V28.4721L33.6474 28.2624C33.6369 28.2521 33.6286 28.2487 33.6254 28.2477L33.6054 28.2477L33.5807 28.2364C32.9507 27.9481 32.2263 27.7053 31.4906 27.462C30.7275 28.8555 29.8159 30.103 28.7557 31.204L28.7537 31.206C28.4014 31.5552 28.0227 31.8826 27.6567 32.1991C27.5401 32.2999 27.4248 32.3996 27.312 32.4986C27.6393 32.6304 27.9099 32.7679 28.2155 32.9411L28.2299 32.9492L28.2417 32.9609C28.255 32.9741 28.2812 32.9924 28.3119 33.0076C28.3265 33.0149 28.3397 33.0202 28.35 33.0234C28.3566 33.0255 28.3602 33.0262 28.3612 33.0264H28.658L28.4465 33.236C28.3988 33.2833 28.335 33.3228 28.2565 33.3228H28.2272L28.201 33.3098C28.1363 33.2777 28.079 33.2425 28.0339 33.2027C27.6985 33.0585 27.3644 32.8722 27.0363 32.6865C25.453 33.8386 23.671 34.6915 21.8382 35.1961L21.8367 35.1965L21.8351 35.1969C21.6155 35.2513 21.3981 35.2513 21.2459 35.2513H19.3474C19.2358 35.2513 19.1259 35.2375 19.0302 35.2249L19.0127 35.2225C18.9211 35.2104 18.8468 35.2006 18.7842 35.2006H18.7682L18.7527 35.1965C16.816 34.6913 15.0284 33.8364 13.5399 32.6796C13.1648 32.8211 12.842 32.9621 12.5653 33.1432C12.5425 33.1658 12.514 33.1934 12.484 33.2157C12.4512 33.2401 12.3988 33.272 12.3328 33.272H12.2815L12.2452 33.236C12.2358 33.2268 12.2295 33.2228 12.2267 33.2213H11.7055L12.175 32.9886C12.2087 32.9719 12.234 32.9564 12.2601 32.9404C12.2693 32.9348 12.2785 32.9291 12.2883 32.9234C12.3108 32.91 12.3466 32.8887 12.3904 32.8791C12.6485 32.712 12.9385 32.5794 13.2564 32.4547C12.7484 32.0694 12.2498 31.6114 11.8333 31.153C10.7237 30.0527 9.8112 28.8057 9.09604 27.4124C8.50591 27.6107 7.91859 27.8365 7.37819 28.0442C7.2572 28.0907 7.13856 28.1363 7.02278 28.1805C6.9888 28.2087 6.95455 28.2254 6.92544 28.235C6.90802 28.2408 6.89269 28.2439 6.88058 28.2456C6.87452 28.2465 6.86921 28.247 6.8648 28.2473C6.86259 28.2474 6.8606 28.2475 6.85884 28.2476L6.85637 28.2476L6.85527 28.2477H6.85475H6.8545C6.8545 28.2477 6.85426 28.2477 6.85426 28.1248V28.2477H6.80293L6.76664 28.2117C6.719 28.1645 6.67915 28.1012 6.67915 28.0233V27.9725L6.71544 27.9365C6.75618 27.8961 6.799 27.8741 6.83428 27.8624C6.84802 27.8579 6.86046 27.855 6.87104 27.8531C7.47515 27.5782 8.16015 27.3447 8.84686 27.1172C7.85331 25.066 7.25443 22.7721 7.24254 20.3305H4.27268V20.1569H4.29419V20.0341H7.19164C7.21074 17.5751 7.80299 15.3065 8.82959 13.2749C8.49088 13.1597 8.16219 13.0358 7.84007 12.9126C7.78069 12.8899 7.72156 12.8672 7.66263 12.8446C7.35855 12.7279 7.06002 12.6134 6.76138 12.5077L6.73514 12.4984L6.71544 12.4788C6.70498 12.4685 6.6966 12.4651 6.69347 12.4641L6.40151 12.4641L6.61304 12.2544C6.6224 12.2451 6.62644 12.2389 6.62795 12.2361V11.9432L6.83947 12.1529C6.84993 12.1633 6.85831 12.1666 6.86144 12.1676L6.88147 12.1677L6.90618 12.179C7.5362 12.4672 8.26052 12.7101 8.9963 12.9533C9.75912 11.5602 10.6704 10.3131 11.7301 9.21245C12.1933 8.70767 12.6968 8.28567 13.1636 7.91223C12.8413 7.7818 12.5735 7.6454 12.2713 7.47427L12.2569 7.46611L12.2452 7.45448C12.2319 7.44126 12.2057 7.42293 12.175 7.40771C12.1604 7.40047 12.1472 7.39516 12.1368 7.39189C12.1303 7.38983 12.1267 7.38915 12.1256 7.38895H11.8289L12.0404 7.17929C12.088 7.13207 12.1518 7.09257 12.2304 7.09257H12.2597L12.2858 7.10553C12.3533 7.13899 12.4127 7.17583 12.4586 7.21764C12.63 7.31413 12.8018 7.39934 12.977 7.48617L12.9784 7.48686C13.1337 7.56382 13.2916 7.64208 13.4501 7.72916ZM13.8682 32.52C15.5037 33.6685 17.3695 34.5724 19.374 35.0085L19.7074 35.0811C18.7769 34.3896 17.8955 33.6072 17.108 32.778C16.8121 32.4844 16.5636 32.1462 16.3236 31.8136C15.4215 31.9961 14.6397 32.2196 13.8682 32.52ZM20.2565 35.2006L20.2946 35.2089L20.3327 35.2006H20.2565ZM20.8209 35.0943L21.2153 35.0085C23.2262 34.571 25.1415 33.711 26.7324 32.5204C25.9942 32.2204 25.1725 31.9966 24.2652 31.8135C24.0157 32.1518 23.7236 32.4868 23.4313 32.7767C22.6411 33.6575 21.7561 34.445 20.8209 35.0943ZM26.5874 7.87349C24.9594 6.73541 23.1047 5.84017 21.1129 5.4068L20.707 5.31848C21.6454 6.0138 22.5342 6.80187 23.3277 7.63736C23.529 7.83716 23.713 8.06323 23.8985 8.29105C23.9831 8.39505 24.068 8.49942 24.1551 8.60183C24.1837 8.59606 24.2123 8.59025 24.2408 8.58439C24.7635 8.47162 25.2703 8.34333 25.7614 8.19154C26.0477 8.09758 26.3229 7.99265 26.5874 7.87349ZM20.2303 5.21477H20.1541L20.1922 5.20648L20.2303 5.21477ZM19.5914 5.3372L19.2716 5.4068C17.2607 5.84433 15.3453 6.70436 13.7545 7.89497C14.4927 8.1949 15.3144 8.41876 16.2216 8.60188C16.4339 8.31393 16.6752 8.02827 16.8897 7.77429C16.9272 7.72993 16.9638 7.68654 16.9994 7.64427L17.0006 7.64276L17.0019 7.6413C17.7862 6.76677 18.664 5.98409 19.5914 5.3372ZM16.797 31.706C16.884 31.8169 16.9748 31.924 17.0648 32.0301L17.0806 32.0488C17.2118 32.2037 17.3419 32.3582 17.4477 32.5141C18.3 33.408 19.199 34.2502 20.1451 34.9468V31.3945C18.9833 31.4006 17.8289 31.492 16.797 31.706ZM26.897 8.04931C26.5513 8.18951 26.198 8.31386 25.837 8.42547C25.3608 8.58169 24.858 8.7073 24.3296 8.81696C25.4875 10.3399 26.3648 12.0894 26.9625 13.9772C28.4503 13.7361 29.8002 13.4485 31.1 13.0297C30.3531 11.6681 29.5089 10.4555 28.429 9.43374L28.4269 9.43177C27.9478 8.95689 27.4236 8.48198 26.897 8.04931ZM13.5297 8.11288C12.9919 8.5068 12.4544 8.99399 11.9637 9.52902L11.9627 9.53012L11.9616 9.53121C10.9283 10.6042 9.99186 11.8169 9.28895 13.1231C10.5498 13.4566 11.9429 13.7863 13.4265 14.0283C14.0711 12.1407 14.949 10.3911 16.0615 8.86812C15.1298 8.66997 14.2855 8.39196 13.5297 8.11288ZM9.17046 13.4511C8.15302 15.4554 7.61048 17.6956 7.54441 20.0816L12.4653 20.0333C12.4767 18.0385 12.7699 16.1364 13.3464 14.4164C11.8469 14.1699 10.4405 13.8339 9.17046 13.4511ZM7.54568 20.3792C7.61675 22.781 8.15288 24.9945 9.15235 26.9771C10.4938 26.52 11.8774 26.2332 13.2999 25.9947C12.7684 24.2324 12.4279 22.3308 12.4141 20.3792H7.54568ZM9.34004 27.2335C10.0855 28.5888 10.9295 29.7555 12.0108 30.8273C12.5516 31.3633 13.0446 31.8049 13.5818 32.2434C14.3437 31.9205 15.1894 31.6817 16.1138 31.4495C14.9531 29.9249 14.0739 28.1727 13.4753 26.2819C11.9923 26.5243 10.6426 26.8554 9.34004 27.2335ZM16.4794 31.3868C17.6075 31.1504 18.7812 31.0514 20.0427 31.0454V25.8071C17.8442 25.7671 15.6947 25.957 13.7741 26.2434C14.3779 28.1305 15.31 29.8751 16.4794 31.3868ZM20.4953 31.3945V34.9079C21.4757 34.1713 22.359 33.3871 23.1461 32.5093L23.1485 32.5066L23.1511 32.5041C23.359 32.2981 23.5398 32.0719 23.7185 31.8485C23.7571 31.8001 23.7957 31.752 23.8344 31.7041C22.8048 31.4915 21.6538 31.4006 20.4953 31.3945ZM24.3763 31.4924C25.3079 31.6906 26.1522 31.9686 26.908 32.2476C27.4458 31.8537 27.9833 31.3665 28.474 30.8315L28.475 30.8304L28.4761 30.8293C29.5103 29.7554 30.4474 28.5416 31.1505 27.2342C29.8491 26.8596 28.4982 26.573 27.0112 26.3322C26.3667 28.2198 25.4887 29.9694 24.3763 31.4924ZM31.2672 26.9094C32.2847 24.9051 32.8272 22.6649 32.8933 20.279L27.9725 20.3273C27.961 22.322 27.6678 24.2241 27.0914 25.9442C28.5908 26.1906 29.9972 26.5267 31.2672 26.9094ZM32.8446 19.9306C32.8251 17.5464 32.237 15.261 31.2193 13.3029C29.9939 13.7323 28.6307 14.07 27.087 14.3163C27.6182 16.0783 27.9586 17.9794 27.9724 19.9306H32.8446ZM23.741 8.70935C23.6089 8.54152 23.4692 8.38619 23.3303 8.23176C23.2334 8.12404 23.1369 8.01675 23.0436 7.90597C22.2054 7.02645 21.3219 6.1968 20.3929 5.50646V9.01879C20.8925 9.01642 21.3772 8.99933 21.8499 8.96483C22.5064 8.91587 23.1442 8.8331 23.741 8.70935ZM20.0427 9.02079V5.46703C19.0449 6.16526 18.1442 7.01009 17.3408 7.90599L17.3383 7.90869L17.3358 7.91124C17.0773 8.16746 16.8584 8.42094 16.6768 8.70337C17.5408 8.84224 18.4349 8.93042 19.3813 9.00782C19.6009 9.0154 19.8217 9.01964 20.0427 9.02079ZM16.5847 8.93734C17.4515 9.12176 18.401 9.21949 19.3666 9.2531C19.5893 9.2713 19.8146 9.28888 20.0427 9.30636V14.6015C17.8466 14.5928 15.7882 14.3549 13.7744 14.0655C14.3785 12.1776 15.3113 10.4323 16.4815 8.92022C16.5158 8.92601 16.5502 8.93171 16.5847 8.93734ZM20.395 31.0034C21.6547 31.1 22.8285 31.1995 23.9562 31.3896C25.1265 29.8774 26.0593 28.132 26.6634 26.2439C25.0382 26.0069 23.3174 25.8342 21.5265 25.7511C21.151 25.7474 20.7737 25.7494 20.395 25.7572V31.0034ZM26.6613 14.0696C26.0118 12.1787 25.1256 10.4335 23.9583 8.92297C23.2812 9.06486 22.5876 9.15726 21.8685 9.20977C21.3834 9.24595 20.8893 9.26384 20.395 9.26642V14.5508C22.5955 14.5455 24.699 14.3998 26.6613 14.0696ZM20.0448 14.8498C17.8161 14.8901 15.6399 14.6959 13.7004 14.4049C13.1692 16.1571 12.8294 18.0457 12.8156 19.9813H20.0448V14.8498ZM12.8155 20.3268C12.827 22.3137 13.1213 24.203 13.6969 25.9054C15.6819 25.6127 17.8132 25.3699 20.0427 25.3612V20.2286L12.8155 20.3268ZM20.395 20.0828H27.6225C27.6154 18.1253 27.321 16.1727 26.7407 14.4551C24.7558 14.7479 22.6245 14.9906 20.395 14.9993V20.0828ZM20.4441 25.4665C20.81 25.4758 21.1732 25.4888 21.5336 25.5055C23.3329 25.5236 25.0936 25.673 26.789 25.954C27.3199 24.2023 27.6595 22.3142 27.6733 20.3792H20.4441V25.4665Z" fill="white"/>
<path fill-rule="evenodd" clip-rule="evenodd" d="M6.43032 6.12728C6.83993 6.12728 7.14714 6.43179 7.14714 6.8378C7.14714 7.24381 6.83993 7.54832 6.43032 7.54832C6.02071 7.54832 5.7135 7.24381 5.7135 6.8378C5.6623 6.48254 6.02071 6.12728 6.43032 6.12728Z" fill="#051341"/>
<path fill-rule="evenodd" clip-rule="evenodd" d="M33.9296 6.12728C34.3392 6.12728 34.6464 6.43179 34.6464 6.8378C34.6464 7.24381 34.3392 7.54832 33.9296 7.54832C33.52 7.54832 33.2128 7.24381 33.2128 6.8378C33.1616 6.48254 33.52 6.12728 33.9296 6.12728Z" fill="#051341"/>
<path fill-rule="evenodd" clip-rule="evenodd" d="M6.43032 33.5349C6.83993 33.5349 7.14714 33.8394 7.14714 34.2454C7.14714 34.6514 6.83993 34.9559 6.43032 34.9559C6.02071 34.9559 5.7135 34.6514 5.7135 34.2454C5.6623 33.8394 6.02071 33.5349 6.43032 33.5349Z" fill="#051341"/>
<path fill-rule="evenodd" clip-rule="evenodd" d="M33.9296 33.5349C34.3392 33.5349 34.6464 33.8394 34.6464 34.2454C34.6464 34.6514 34.3392 34.9559 33.9296 34.9559C33.52 34.9559 33.2128 34.6514 33.2128 34.2454C33.1616 33.8394 33.52 33.5349 33.9296 33.5349Z" fill="#051341"/>
<path fill-rule="evenodd" clip-rule="evenodd" d="M0.722383 19.8301C1.13199 19.8301 1.4392 20.1346 1.4392 20.5406C1.4392 20.9466 1.13199 21.2511 0.722383 21.2511C0.312771 21.2511 0.00556289 20.9466 0.00556289 20.5406C-0.0456385 20.1346 0.26157 19.8301 0.722383 19.8301Z" fill="#051341"/>
<path fill-rule="evenodd" clip-rule="evenodd" d="M39.5863 19.8301C39.9959 19.8301 40.3031 20.1346 40.3031 20.5406C40.3031 20.9466 39.9959 21.2511 39.5863 21.2511C39.1767 21.2511 38.8695 20.9466 38.8695 20.5406C38.8695 20.1346 39.2279 19.8301 39.5863 19.8301Z" fill="#051341"/>
<path fill-rule="evenodd" clip-rule="evenodd" d="M19.4211 39.7895C19.4211 39.3835 19.7284 39.079 20.138 39.079C20.5476 39.079 20.8548 39.3835 20.8548 39.7895C20.8548 40.1955 20.5476 40.5 20.138 40.5C19.7796 40.5 19.4211 40.1955 19.4211 39.7895Z" fill="#051341"/>
<path fill-rule="evenodd" clip-rule="evenodd" d="M19.4211 1.21052C19.4211 0.804507 19.7284 0.5 20.138 0.5C20.5476 0.5 20.8548 0.804507 20.8548 1.21052C20.8548 1.61652 20.5476 1.92103 20.138 1.92103C19.7796 1.92103 19.4211 1.61652 19.4211 1.21052Z" fill="#051341"/>
</g>
<defs>
<clipPath id="clip0_112_129">
<rect width="120" height="40" fill="white" transform="translate(0 0.5)"/>
</clipPath>
</defs>
</svg>
