<svg width="120" height="40" viewBox="0 0 120 40" fill="none" xmlns="http://www.w3.org/2000/svg">
<g clip-path="url(#clip0_123_333)">
<path fill-rule="evenodd" clip-rule="evenodd" d="M82.4153 32.8967C82.9785 32.8967 83.4393 33.3535 83.4393 33.9118C83.4393 34.47 82.9785 34.9268 82.4153 34.9268C81.852 34.9268 81.3912 34.47 81.3912 33.9118C81.34 33.3535 81.852 32.8967 82.4153 32.8967Z" fill="white"/>
<path d="M84.4264 24.4903C84.4264 25.3856 84.4265 26.0839 84.4736 26.4757C84.5022 26.7457 84.5575 26.9507 84.8402 26.9873C84.9712 27.0056 85.1781 27.0238 85.3112 27.0238C85.4341 27.0238 85.471 27.0522 85.471 27.0989C85.471 27.1639 85.4054 27.1923 85.2641 27.1923C84.6722 27.1923 84.0783 27.1639 83.8346 27.1639C83.5908 27.1639 82.9969 27.1923 82.6405 27.1923C82.5095 27.1923 82.4439 27.1741 82.4439 27.0989C82.4439 27.0522 82.4808 27.0238 82.5852 27.0238C82.7266 27.0238 82.8392 27.0056 82.9232 26.9873C83.1116 26.9507 83.1587 26.7457 83.1956 26.4757C83.2427 26.0839 83.2427 25.3856 83.2427 24.4903V22.8501C83.2427 21.4331 83.2427 21.1732 83.2242 20.8748C83.2058 20.5581 83.13 20.4079 82.8208 20.343C82.745 20.3247 82.5853 20.3145 82.4542 20.3145C82.36 20.3145 82.2944 20.2963 82.2944 20.2394C82.2944 20.1643 82.3702 20.146 82.5115 20.146C82.7552 20.146 83.0297 20.1562 83.2734 20.1562C83.5171 20.1663 83.7342 20.1745 83.8653 20.1745C84.2216 20.1745 86.1304 20.1745 86.3475 20.1643C86.5257 20.1542 86.6384 20.1542 86.7326 20.1278C86.7899 20.1095 86.837 20.0709 86.8841 20.0709C86.921 20.0709 86.9497 20.1075 86.9497 20.1542C86.9497 20.2191 86.9026 20.3308 86.8739 20.5744C86.8636 20.6678 86.8452 21.2179 86.8268 21.3296C86.8165 21.4047 86.7981 21.4595 86.7326 21.4595C86.667 21.4595 86.6486 21.4128 86.6384 21.3113C86.6384 21.2362 86.6384 21.088 86.581 20.9581C86.5155 20.8281 86.3168 20.6881 85.9604 20.6779L84.5125 20.6495C84.4551 20.6495 84.4285 20.6779 84.4285 20.7794V23.1099C84.4285 23.1667 84.4387 23.1931 84.494 23.1931L85.6983 23.183C85.858 23.183 85.9891 23.183 86.1222 23.1728C86.3004 23.1627 86.4335 23.1261 86.5257 23.0043C86.5728 22.9475 86.5912 22.911 86.6486 22.911C86.6855 22.911 86.7059 22.9394 86.7059 22.9942C86.7059 23.049 86.6588 23.2825 86.6302 23.5728C86.6117 23.7595 86.5933 24.1879 86.5933 24.2528C86.5933 24.336 86.5933 24.4294 86.4991 24.4294C86.4417 24.4294 86.4233 24.3645 86.4233 24.2995C86.4233 24.2345 86.4049 24.1229 86.366 24.0112C86.3189 23.8813 86.1775 23.7128 85.8867 23.6763C85.6512 23.6479 84.6558 23.6479 84.4961 23.6479C84.449 23.6479 84.4305 23.6661 84.4305 23.7311V24.4863L84.4264 24.4903Z" fill="white"/>
<path d="M88.0659 23.6702C88.0659 22.0766 89.1288 20.0161 91.949 20.0161C94.2899 20.0161 95.7481 21.3681 95.7481 23.5017C95.7481 25.6353 94.2428 27.3222 91.8548 27.3222C89.1554 27.3222 88.0659 25.3186 88.0659 23.6682V23.6702ZM94.4312 23.8468C94.4312 21.7599 93.2188 20.4627 91.6766 20.4627C90.5952 20.4627 89.3643 21.0596 89.3643 23.3799C89.3643 25.3186 90.4457 26.8574 92.2521 26.8574C92.9095 26.8574 94.4333 26.5407 94.4333 23.8468H94.4312Z" fill="white"/>
<path d="M96.7824 23.6702C96.7824 22.0766 97.8453 20.0161 100.665 20.0161C103.006 20.0161 104.465 21.3681 104.465 23.5017C104.465 25.6353 102.959 27.3222 100.571 27.3222C97.872 27.3222 96.7824 25.3186 96.7824 23.6682V23.6702ZM103.148 23.8468C103.148 21.7599 101.935 20.4627 100.393 20.4627C99.3117 20.4627 98.0809 21.0596 98.0809 23.3799C98.0809 25.3186 99.1622 26.8574 100.969 26.8574C101.626 26.8574 103.15 26.5407 103.15 23.8468H103.148Z" fill="white"/>
<path d="M106.431 22.8501C106.431 21.4331 106.431 21.1732 106.412 20.8748C106.394 20.5581 106.318 20.4079 106.009 20.343C105.933 20.3247 105.773 20.3145 105.642 20.3145C105.54 20.3145 105.483 20.2963 105.483 20.2313C105.483 20.1663 105.548 20.1481 105.689 20.1481C106.187 20.1481 106.781 20.1765 107.043 20.1765C107.334 20.1765 107.928 20.1481 108.491 20.1481C109.667 20.1481 111.238 20.1481 112.262 21.2098C112.733 21.695 113.173 22.4684 113.173 23.5768C113.173 24.7522 112.675 25.6454 112.149 26.1773C111.717 26.6158 110.738 27.2776 108.999 27.2776C108.661 27.2776 108.274 27.2492 107.918 27.2207C107.561 27.1923 107.232 27.1639 106.996 27.1639C106.892 27.1639 106.685 27.1639 106.459 27.1741C106.242 27.1741 105.999 27.1923 105.81 27.1923C105.687 27.1923 105.622 27.1639 105.622 27.0989C105.622 27.0522 105.659 27.0238 105.771 27.0238C105.913 27.0238 106.025 27.0056 106.109 26.9873C106.298 26.9507 106.345 26.7457 106.382 26.4757C106.429 26.0839 106.429 25.347 106.429 24.4903V22.8501H106.431ZM107.606 23.8752C107.606 24.8639 107.617 25.5805 107.625 25.7571C107.635 25.9905 107.653 26.362 107.727 26.4656C107.85 26.6422 108.217 26.8391 108.958 26.8391C109.917 26.8391 110.556 26.6523 111.121 26.1671C111.723 25.6535 111.911 24.807 111.911 23.8468C111.911 22.6633 111.414 21.898 111.008 21.5163C110.144 20.6962 109.071 20.5845 108.338 20.5845C108.149 20.5845 107.801 20.6129 107.727 20.6495C107.643 20.686 107.615 20.7327 107.615 20.8363C107.604 21.1529 107.604 21.965 107.604 22.6998V23.8752H107.606Z" fill="white"/>
<path d="M114.715 27.0827C114.564 27.0177 114.537 26.971 114.537 26.766C114.537 26.2524 114.574 25.6941 114.584 25.546C114.594 25.4059 114.621 25.3044 114.697 25.3044C114.781 25.3044 114.791 25.3876 114.791 25.4627C114.791 25.5845 114.828 25.7794 114.875 25.9378C115.082 26.628 115.637 26.8797 116.22 26.8797C117.066 26.8797 117.48 26.3113 117.48 25.818C117.48 25.3612 117.339 24.9329 116.558 24.3259L116.126 23.9909C115.092 23.1891 114.736 22.5374 114.736 21.7823C114.736 20.7571 115.6 20.0202 116.909 20.0202C117.519 20.0202 117.914 20.1136 118.16 20.1785C118.244 20.1968 118.291 20.2252 118.291 20.2902C118.291 20.412 118.254 20.682 118.254 21.4087C118.254 21.6138 118.226 21.6889 118.15 21.6889C118.084 21.6889 118.056 21.632 118.056 21.5204C118.056 21.4371 118.008 21.1468 117.812 20.9053C117.671 20.7287 117.398 20.4485 116.788 20.4485C116.091 20.4485 115.67 20.8484 115.67 21.4087C115.67 21.8371 115.887 22.1639 116.667 22.7506L116.931 22.9455C118.07 23.794 118.473 24.4376 118.473 25.3227C118.473 25.8626 118.267 26.5062 117.589 26.9447C117.12 27.2431 116.591 27.3263 116.094 27.3263C115.549 27.3263 115.125 27.2613 114.721 27.0847L114.715 27.0827Z" fill="white"/>
<path d="M46.4657 14.7423C46.2097 15.4021 45.9536 15.9604 45.3392 16.0111C45.2368 16.0111 45.032 16.0619 44.9296 16.0619C44.8272 16.0619 44.8272 16.1126 44.8272 16.1126C44.8272 16.2141 44.8784 16.2141 45.0832 16.2141C45.7488 16.2141 46.5169 16.1634 46.6705 16.1634C46.8241 16.1634 47.3873 16.2141 47.7457 16.2141C47.8481 16.2141 47.9505 16.1634 47.9505 16.1126C47.9505 16.0619 47.8993 16.0619 47.7969 16.0619H47.6433C47.3873 16.0619 47.1313 15.9604 47.1313 15.6559C47.1313 15.4021 47.1825 15.0976 47.3361 14.7423L48.1553 12.3063C48.1894 12.2386 48.2406 12.2048 48.3089 12.2048H51.3298C51.381 12.2048 51.4322 12.2555 51.4322 12.3063L52.7122 15.7066C52.7634 15.9096 52.7122 16.0619 52.661 16.1126C52.6098 16.1126 52.5586 16.1634 52.5586 16.2141C52.5586 16.2649 52.7122 16.2649 52.9682 16.3156C53.9411 16.3664 54.9139 16.3664 55.1699 16.3664C55.3235 16.3664 55.4259 16.3156 55.4259 16.2649C55.4259 16.2141 55.3235 16.1634 55.2211 16.1634C55.0675 16.1634 54.8627 16.1634 54.6579 16.1126C54.3507 16.0111 53.9411 15.8081 53.4803 14.5901C52.661 12.5093 50.4594 6.82313 50.2546 6.31562C50.101 5.90961 49.9986 5.80811 49.9474 5.80811C49.8962 5.80811 49.7938 5.85886 49.6402 6.31562L46.4657 14.7423ZM48.3601 11.6973C48.3089 11.6973 48.3089 11.6465 48.3089 11.5958L49.5378 7.89093C49.589 7.68793 49.6914 7.68793 49.7426 7.89093L51.0226 11.5958C51.0226 11.6465 51.0226 11.6973 50.9714 11.6973H48.3601ZM65.5658 7.58642C65.5146 7.38342 65.4634 7.28192 65.361 7.28192C65.2586 7.28192 65.2074 7.33267 65.1562 7.48492L61.6233 14.7423L57.9368 7.48492C57.8856 7.33267 57.7832 7.28192 57.732 7.28192C57.6808 7.28192 57.6296 7.33267 57.5784 7.48492L56.708 15.0996C56.6568 15.5564 56.6568 15.9624 56.2472 16.0639C56.0424 16.1146 55.9912 16.1146 55.8888 16.1146C55.8376 16.1146 55.7864 16.1654 55.7864 16.1654C55.7864 16.2669 55.8376 16.2669 55.9912 16.2669C56.3496 16.2669 56.9128 16.2161 57.0152 16.2161C57.1176 16.2161 57.732 16.2669 58.1928 16.2669C58.3464 16.2669 58.3976 16.2161 58.3976 16.1654C58.3976 16.1146 58.3464 16.1146 58.2952 16.1146C58.244 16.1146 58.0392 16.1146 57.8344 16.0131C57.6296 15.9624 57.5272 15.8609 57.5272 15.6579V15.0996L57.988 9.8215H58.0392C58.244 10.329 59.2169 12.2576 59.5753 13.0188C59.8825 13.6786 60.7017 15.1504 61.0089 15.7086C61.2649 16.1146 61.3161 16.2669 61.4185 16.2669C61.5209 16.2669 61.6233 16.1654 61.8281 15.6579L64.7466 9.72H64.7978L65.361 15.6579C65.4122 15.8609 65.361 16.0639 65.3098 16.0639C65.2586 16.0639 65.2586 16.1146 65.2586 16.1654C65.2586 16.2161 65.3098 16.2669 65.617 16.2669C66.0779 16.3176 67.4091 16.3176 67.7163 16.3176C67.8699 16.3176 67.9723 16.2669 67.9723 16.2161C67.9723 16.1654 67.9211 16.1146 67.8699 16.1146C67.7675 16.1146 67.4091 16.1146 67.0507 16.0131C66.5387 15.8609 66.4875 15.2011 66.4363 14.7951L65.5658 7.58845V7.58642ZM70.0716 12.8645C70.0716 14.0318 70.0716 14.9453 70.0204 15.4021C69.9692 15.7574 69.918 15.9604 69.7132 16.0111C69.6108 16.0111 69.4572 16.0619 69.3035 16.0619C69.2523 16.0619 69.2011 16.1126 69.2011 16.1634C69.2011 16.2141 69.2523 16.2649 69.406 16.2649C69.6108 16.2649 69.8668 16.2649 70.0716 16.2141H70.6348C70.8396 16.2141 71.1468 16.2141 71.6076 16.2649C72.1196 16.2649 72.7852 16.3156 73.7069 16.3156C74.1677 16.3156 74.3213 16.3156 74.3725 16.0111C74.4749 15.8081 74.5261 14.9961 74.5261 14.8946C74.5261 14.8438 74.5261 14.6916 74.4237 14.6916C74.3725 14.6916 74.3213 14.7423 74.3213 14.8946C74.2189 15.3513 74.1165 15.6051 73.7581 15.7066C73.4509 15.8081 72.8876 15.8081 72.5292 15.8081C71.3516 15.8081 71.0956 15.6559 71.0956 14.8438V11.951C71.0956 11.9172 71.1127 11.9003 71.1468 11.9003C71.3516 11.9003 72.6316 11.9003 72.9901 11.951C73.4509 12.0018 73.5533 12.154 73.6045 12.3063C73.6557 12.4585 73.6557 12.56 73.6557 12.7123C73.6557 12.763 73.7069 12.8138 73.7069 12.8138C73.8093 12.8138 73.8093 12.7123 73.8093 12.6108C73.8093 12.56 73.8605 12.0525 73.8605 11.8495C73.9117 11.4435 73.9629 11.2913 73.9629 11.1898C73.9629 11.139 73.9117 11.0883 73.9117 11.0883C73.9117 11.0883 73.8093 11.139 73.7069 11.2405C73.6045 11.342 73.3997 11.3928 73.0925 11.3928C72.8364 11.4435 71.198 11.4435 71.0444 11.4435C70.942 11.4435 70.942 11.3928 70.942 11.342V8.19544C70.942 8.14469 70.942 8.09394 71.0444 8.09394C71.198 8.09394 72.5804 8.09394 72.7852 8.14469C73.4509 8.24619 73.6045 8.29694 73.6557 8.49994C73.7069 8.6522 73.7069 8.8552 73.7069 8.90595C73.7069 9.00746 73.7581 9.05821 73.8093 9.05821C73.8605 9.05821 73.9117 8.9567 73.9117 8.9567C73.9629 8.80445 73.9629 8.29694 74.0141 8.19544C74.0653 7.84018 74.1165 7.73868 74.1165 7.68793C74.1165 7.63718 74.1165 7.58642 74.0653 7.58642C74.0141 7.58642 73.9629 7.63718 73.9117 7.63718C73.8093 7.63718 73.6045 7.68793 73.3997 7.73868H70.4812C70.43 7.73868 69.6108 7.68793 69.0475 7.68793C68.8939 7.68793 68.8427 7.73868 68.8427 7.78943C68.8427 7.84018 68.8939 7.89093 68.9451 7.89093C69.0475 7.89093 69.2523 7.89093 69.3547 7.94168C69.7644 7.99243 69.8156 8.14469 69.8668 8.60145C69.918 9.00746 69.918 9.31196 69.918 11.139L70.0716 12.8645ZM77.7026 12.8645C77.7026 14.0318 77.7026 14.9453 77.6002 15.4021C77.549 15.7574 77.549 15.9604 77.293 16.0111C77.1906 16.0619 77.037 16.0619 76.8834 16.0619C76.781 16.0619 76.781 16.1126 76.781 16.1634C76.781 16.2141 76.8834 16.2649 76.9858 16.2649C77.3954 16.2649 78.1634 16.2141 78.1634 16.2141C78.2146 16.2141 78.9827 16.2649 79.6483 16.2649C79.8019 16.2649 79.8531 16.2141 79.8531 16.1634C79.8531 16.1126 79.8531 16.0619 79.7507 16.0619C79.6483 16.0619 79.3411 16.0111 79.2387 16.0111C78.8291 15.9604 78.7779 15.7574 78.7267 15.4021C78.6755 14.8946 78.6755 14.0318 78.6755 12.8645V12.6108C78.6755 12.5093 78.7267 12.5093 78.7779 12.5093L80.3139 12.56C80.3822 12.56 80.4334 12.577 80.4675 12.6108C80.7235 12.9153 81.2867 13.6766 81.7987 14.3363C82.4644 15.1991 82.9252 15.8081 83.4372 16.0619C83.7444 16.2141 84.0516 16.3156 84.7684 16.3156H85.5365C85.7413 16.3156 85.8437 16.2649 85.8437 16.2141C85.8437 16.1634 85.7925 16.1126 85.7413 16.1126C85.6901 16.1126 85.5365 16.1126 85.3316 16.0619C85.0244 16.0111 84.6148 15.9096 84.0004 15.2498C83.3348 14.5393 82.4644 13.4736 81.4915 12.2555C82.618 11.2913 82.9764 10.4792 82.9764 9.61647C82.9764 8.80445 82.4132 8.24619 82.106 7.99243C81.4403 7.53567 80.6211 7.48492 79.8531 7.48492C79.4435 7.48492 78.4707 7.53567 78.3171 7.53567C78.2146 7.53567 77.4466 7.48492 76.8834 7.48492C76.7298 7.48492 76.6786 7.53567 76.6786 7.58642C76.6786 7.63718 76.7298 7.68793 76.781 7.68793C76.8834 7.68793 77.0882 7.68793 77.1906 7.73868C77.6002 7.78943 77.6514 7.94168 77.7026 8.39844C77.7538 8.80445 77.7538 9.10896 77.7538 10.936L77.7026 12.8645ZM78.7267 8.04318C78.7267 7.94168 78.7779 7.94168 78.8291 7.89093C78.9315 7.84018 79.3411 7.78943 79.6995 7.78943C81.0307 7.78943 81.7987 8.6522 81.7987 10.0732C81.7987 10.936 81.4915 11.5958 81.0819 11.8495C80.7747 12.0525 80.4675 12.0525 80.1603 12.0525C79.5971 12.0525 79.0339 12.0018 78.8291 11.8495C78.7779 11.7988 78.7267 11.7988 78.7267 11.6973V8.04318ZM88.0986 8.29694C88.1498 7.89093 88.201 7.73868 88.5082 7.63718C88.6618 7.58642 88.713 7.58642 88.8154 7.58642C88.8666 7.58642 88.9178 7.53567 88.9178 7.48492C88.9178 7.43417 88.8666 7.38342 88.713 7.38342C88.3034 7.38342 87.5866 7.43417 87.4842 7.43417C87.3818 7.43417 86.6137 7.38342 86.2553 7.38342C86.1017 7.38342 86.0505 7.43417 86.0505 7.48492C86.0505 7.53567 86.1017 7.58642 86.1529 7.58642C86.2041 7.58642 86.3577 7.58642 86.5625 7.63718C86.8185 7.68793 86.9209 7.89093 86.9721 8.29694C87.0233 8.70295 87.0233 8.9567 87.0233 10.7837V12.8645C87.0233 14.0318 87.0233 14.9453 86.9209 15.4021C86.8697 15.7574 86.8185 15.9604 86.6137 16.0111C86.5113 16.0619 86.3577 16.0619 86.2041 16.0619C86.1017 16.0619 86.1017 16.1126 86.1017 16.1634C86.1017 16.2141 86.2041 16.2649 86.3065 16.2649C86.7161 16.2649 87.433 16.2141 87.4842 16.2141C87.5354 16.2141 88.3546 16.2649 89.0202 16.2649C89.1738 16.2649 89.225 16.2141 89.225 16.1634C89.225 16.1126 89.1738 16.0619 89.1226 16.0619C89.0202 16.0619 88.713 16.0111 88.6106 16.0111C88.2522 15.9604 88.201 15.7574 88.1498 15.4021C88.0986 14.8946 88.0986 13.9811 88.0986 12.8645V8.29694ZM96.2928 16.3664C97.1121 16.3664 97.9825 16.3156 98.4945 16.1126C98.6993 16.0111 98.7505 16.0111 98.8017 15.7574C98.9041 15.3513 99.1089 14.3363 99.1089 14.2856C99.1089 14.2348 99.0577 14.1333 99.0065 14.1333C98.9553 14.1333 98.9041 14.1841 98.9041 14.2856C98.8529 14.4886 98.6993 14.9961 98.4433 15.2498C97.9313 15.7574 97.3681 15.8081 96.4465 15.8081C93.8352 15.8081 92.0431 13.8288 92.0431 11.5958C92.0431 10.4285 92.2479 9.41346 93.1184 8.5507C93.528 8.14469 94.296 7.73868 95.832 7.73868C96.9073 7.73868 97.7777 8.04318 98.2385 8.39844C98.5457 8.6522 98.7505 9.10896 98.7505 9.56572C98.7505 9.71797 98.7505 9.76872 98.8529 9.76872C98.9553 9.76872 98.9553 9.71797 99.0065 9.56572C99.0065 9.41346 99.0065 8.7537 99.0577 8.39844C99.1089 7.99243 99.1089 7.84018 99.1089 7.73868C99.1089 7.63718 99.0577 7.63718 98.9553 7.63718C98.5457 7.63718 98.1361 7.53567 97.7265 7.43417C97.1121 7.33267 96.4465 7.28192 95.9856 7.28192C94.0912 7.28192 92.9648 7.84018 92.2479 8.5507C91.1727 9.56572 90.8655 10.936 90.8655 11.748C90.8655 12.8645 91.1727 14.1841 92.3503 15.1991C93.272 15.9604 94.5008 16.3664 96.2928 16.3664ZM101.003 14.9453C100.799 15.5544 100.543 15.9096 99.9793 16.0111C99.8769 16.0111 99.7233 16.0619 99.6209 16.0619C99.5697 16.0619 99.5185 16.1126 99.5185 16.1634C99.5185 16.2141 99.6209 16.2649 99.7233 16.2649C100.235 16.2649 100.85 16.2141 100.952 16.2141C101.106 16.2141 101.771 16.2649 102.027 16.2649C102.13 16.2649 102.232 16.2141 102.232 16.1634C102.232 16.1126 102.181 16.0619 102.13 16.0619H102.027C101.823 16.0619 101.618 16.0111 101.618 15.7574C101.618 15.5544 101.669 15.2498 101.823 14.9453L102.539 13.0675C102.574 12.9999 102.608 12.966 102.642 12.966H105.458C105.492 12.966 105.526 12.9999 105.56 13.0675L106.636 15.7066C106.738 15.9096 106.584 16.0111 106.533 16.0111C106.533 16.1126 106.482 16.1126 106.482 16.1126C106.482 16.2141 106.687 16.2141 106.892 16.2141C107.711 16.2649 108.632 16.2649 108.837 16.2649C108.991 16.2649 109.093 16.2141 109.093 16.1634C109.093 16.0619 109.042 16.0619 108.94 16.0619C108.837 16.0619 108.632 16.0619 108.428 15.9604C108.172 15.9096 107.813 15.7574 107.404 14.6408C106.687 12.8645 104.741 8.04318 104.485 7.53567C104.383 7.28192 104.331 7.12966 104.178 7.12966C104.127 7.12966 104.024 7.18042 103.871 7.58642L101.003 14.9453ZM102.744 12.5093C102.693 12.5093 102.693 12.4585 102.693 12.4078L103.819 9.21046C103.871 9.00746 103.973 9.00746 104.024 9.21046L105.202 12.4078C105.202 12.4585 105.202 12.5093 105.151 12.5093H102.744ZM110.99 9.15971C111.399 9.56572 112.731 10.9867 114.113 12.4585C115.393 13.7781 117.134 15.5036 117.287 15.6051C118.004 16.2141 118.107 16.3156 118.209 16.3156C118.26 16.3156 118.312 16.2649 118.312 15.4528L118.363 8.60145C118.363 7.89093 118.414 7.63718 118.772 7.58642C118.926 7.53567 118.977 7.53567 119.08 7.53567C119.182 7.53567 119.233 7.43417 119.233 7.43417C119.233 7.38342 119.131 7.38342 119.028 7.38342C118.516 7.38342 118.158 7.43417 118.004 7.43417C117.851 7.43417 117.287 7.38342 116.724 7.38342C116.571 7.38342 116.519 7.38342 116.519 7.43417C116.519 7.48492 116.519 7.53567 116.622 7.53567C116.724 7.53567 117.031 7.53567 117.236 7.58642C117.646 7.68793 117.697 7.94168 117.697 8.6522L117.799 14.5393C117.39 14.1333 116.11 12.763 114.932 11.545C113.038 9.61647 111.297 7.78943 111.092 7.53567C110.99 7.43417 110.734 7.18042 110.631 7.18042C110.529 7.18042 110.478 7.28192 110.478 7.78943V14.4886C110.478 15.5544 110.426 15.8589 110.119 15.9604C109.914 16.0111 109.71 16.0111 109.607 16.0111C109.556 16.0111 109.505 16.0619 109.505 16.1126C109.505 16.1634 109.556 16.2141 109.71 16.2141C110.273 16.2141 110.785 16.1634 110.887 16.1634C110.99 16.1634 111.502 16.2141 112.167 16.2141C112.321 16.2141 112.372 16.1634 112.372 16.1126C112.372 16.0619 112.321 16.0111 112.27 16.0111C112.167 16.0111 111.86 16.0111 111.655 15.9604C111.297 15.8589 111.246 15.5544 111.195 14.6408L110.99 9.15971Z" fill="white"/>
<path d="M47.5429 24.7444V26.4699C47.5429 26.7237 47.4917 26.8759 47.3381 26.9267C47.2869 26.9774 47.1845 26.9774 47.0821 26.9774C47.0309 26.9774 46.9797 27.0282 46.9797 27.0282C46.9797 27.0789 47.0309 27.1297 47.1333 27.1297C47.3893 27.1297 47.8502 27.0789 48.0038 27.0789C48.2086 27.0789 48.6182 27.1297 49.079 27.1297C49.1302 27.1297 49.1814 27.0789 49.1814 27.0282C49.1814 26.9774 49.1814 26.9774 49.079 26.9774C48.9766 26.9774 48.823 26.9267 48.7206 26.9267C48.5158 26.8759 48.4646 26.7237 48.4646 26.4699V21.4455L49.335 21.4963C49.9494 21.547 50.1542 21.75 50.1542 21.9531V22.0546C50.1542 22.1561 50.1542 22.2068 50.2054 22.2068C50.2566 22.2068 50.2566 22.1561 50.2566 22.1053V21.1918C50.2566 21.0903 50.2566 21.0395 50.2054 21.0395C50.2054 21.0395 50.1542 21.0903 50.0518 21.0903C49.9494 20.9888 49.7958 20.9888 49.591 20.9888H46.8261C46.6213 20.9888 46.3141 20.938 46.1093 20.938C45.9557 20.8873 45.8533 20.8365 45.8021 20.8365C45.7509 20.8365 45.7509 20.8873 45.7509 20.9888C45.7509 21.0395 45.5973 21.8008 45.5973 21.9023C45.5973 22.0038 45.5973 22.0038 45.6485 22.0038C45.6997 22.0038 45.6997 21.9531 45.6997 21.9023C45.6997 21.8515 45.7509 21.75 45.8021 21.5978C45.9045 21.4455 46.0581 21.3948 46.4677 21.344L47.4917 21.2933L47.5429 24.7444ZM51.383 25.0996V26.5714C51.383 26.7744 51.3318 26.8759 51.2294 26.9267C51.1782 26.9774 51.127 26.9774 51.0246 26.9774C50.9734 26.9774 50.9222 27.0282 50.9222 27.0282C50.9222 27.0789 50.9734 27.0789 51.0246 27.0789C51.2806 27.0789 51.6391 27.0282 51.7927 27.0282C51.8951 27.0282 52.4071 27.0789 52.7655 27.0789C52.8167 27.0789 52.8679 27.0282 52.8679 27.0282C52.8679 27.0282 52.8679 26.9774 52.8167 26.9774C52.7655 26.9774 52.6119 26.9774 52.5095 26.9267C52.3559 26.8759 52.3047 26.7744 52.3047 26.5714V24.9981C52.3047 24.9643 52.3217 24.9474 52.3559 24.9474L52.9191 24.9981C52.9532 24.9981 52.9874 25.015 53.0215 25.0489C53.0727 25.1504 53.3287 25.6071 53.5847 25.9624C53.8919 26.4699 54.1479 26.8252 54.4039 26.9774C54.5575 27.0789 54.7111 27.1297 55.0695 27.1297H55.5816C55.6328 27.1297 55.684 27.0789 55.684 27.0789C55.684 27.0451 55.6669 27.0282 55.6328 27.0282C55.5986 27.0282 55.5474 27.0112 55.4792 26.9774C55.3768 26.9267 55.172 26.9267 54.8135 26.5207C54.4551 26.0639 53.9943 25.4549 53.4823 24.6936C54.0967 24.1353 54.3527 23.6786 54.3527 23.1711C54.3527 22.7143 54.0967 22.3591 53.9431 22.2576C53.6359 22.0038 53.1751 21.9531 52.7655 21.9531C52.6119 21.9531 52.0487 22.0038 51.7927 22.0038C51.6903 22.0038 51.2806 21.9531 50.9734 21.9531C50.871 21.9531 50.8198 22.0038 50.8198 22.0038C50.8198 22.0546 50.871 22.0546 50.9222 22.0546C51.0246 22.0546 51.127 22.0546 51.1782 22.1053C51.383 22.1561 51.4342 22.2576 51.4342 22.4606V23.9323L51.383 25.0996ZM52.2023 22.3591C52.2023 22.3083 52.2023 22.2576 52.2535 22.2576C52.3047 22.2068 52.4583 22.2068 52.6119 22.2068C52.9703 22.2068 53.5335 22.4606 53.5335 23.4248C53.5335 23.9831 53.3287 24.2876 53.1239 24.4399C53.0215 24.5414 52.9703 24.5414 52.7143 24.5414C52.5607 24.5414 52.4071 24.4906 52.2535 24.4906C52.2193 24.4568 52.2023 24.4229 52.2023 24.3891V22.3591ZM57.8856 25.3534C57.8856 25.3534 57.9368 25.3534 57.9368 25.4041L58.3976 26.7744C58.3976 26.8759 58.3976 26.9267 58.3464 26.9267C58.2952 26.9267 58.2952 26.9774 58.2952 26.9774C58.2952 27.0282 58.3464 27.0282 58.4488 27.0282C58.9609 27.0789 59.4217 27.0789 59.6265 27.0789C59.8313 27.0789 59.8825 27.0282 59.8825 27.0282C59.8825 26.9943 59.8654 26.9774 59.8313 26.9774C59.7801 26.9774 59.6777 26.9774 59.6265 26.9267C59.5241 26.8759 59.3705 26.8252 59.1145 26.2161C58.6536 25.1504 57.6296 22.4098 57.476 22.0038C57.4248 21.8515 57.3736 21.8008 57.3224 21.8008C57.2712 21.8008 57.22 21.9023 57.1688 22.0546L55.5816 26.3176C55.4792 26.6729 55.3768 26.8759 55.0695 26.9267H54.9159C54.8647 26.9267 54.8647 26.9774 54.8647 26.9774C54.8647 27.0112 54.8989 27.0282 54.9671 27.0282C55.2744 27.0282 55.6328 26.9774 55.684 26.9774C55.8888 26.9774 56.1448 27.0282 56.3496 27.0282C56.4008 27.0282 56.452 26.9774 56.452 26.9774C56.452 26.9774 56.452 26.9267 56.3496 26.9267H56.2472C56.0936 26.9267 55.9912 26.8759 55.9912 26.7237C55.9912 26.6222 55.9912 26.4699 56.0936 26.3176L56.4008 25.4041C56.4008 25.3703 56.4179 25.3534 56.452 25.3534H57.8856ZM56.5544 24.9474L57.1176 23.2218L57.6808 24.9474V24.9981H56.5544V24.9474ZM60.5481 25.0996V26.5714C60.5481 26.7744 60.4969 26.8759 60.3945 26.9267C60.3433 26.9774 60.2921 26.9774 60.1897 26.9774C60.1385 26.9774 60.0873 27.0282 60.0873 27.0282C60.0873 27.0789 60.1385 27.0789 60.1897 27.0789C60.2921 27.0789 60.4457 27.0789 60.5993 27.0282H60.9577C61.1113 27.0282 61.3161 27.0789 61.5721 27.0789C61.8281 27.1297 62.0841 27.1297 62.289 27.1297C63.4154 27.1297 64.081 26.6222 64.337 26.3176C64.6954 25.9624 65.0026 25.2519 65.0026 24.4399C65.0026 23.6278 64.7466 23.0696 64.4394 22.7143C63.7738 21.9023 62.7498 21.9023 61.9817 21.9023C61.6233 21.9023 61.1625 21.9531 61.0089 21.9531C60.8553 21.9531 60.4457 21.9023 60.1385 21.9023C60.0361 21.9023 59.9849 21.9531 59.9849 21.9531C59.9849 22.0038 60.0361 22.0038 60.0873 22.0038C60.1897 22.0038 60.2921 22.0038 60.3433 22.0546C60.5481 22.1053 60.5993 22.2068 60.5993 22.4098V25.0996H60.5481ZM61.3673 22.4098C61.3673 22.3421 61.3844 22.2914 61.4185 22.2576C61.4697 22.2068 61.6745 22.2068 61.7769 22.2068C62.2378 22.2068 62.9034 22.2576 63.5178 22.8666C63.7738 23.1203 64.081 23.7293 64.081 24.5414C64.081 25.2519 63.9786 25.8609 63.569 26.2161C63.2106 26.5714 62.801 26.6729 62.2378 26.6729C61.7769 26.6729 61.5209 26.5207 61.4185 26.4192C61.3673 26.3684 61.3673 26.1146 61.3673 25.9116V22.4098ZM66.2827 26.5714C66.2827 26.7744 66.2315 26.8759 66.1291 26.8759C66.0779 26.9267 66.0267 26.9267 65.9243 26.9267C65.8731 26.9267 65.8219 26.9774 65.8219 26.9774C65.8219 27.0282 65.8731 27.0282 65.9243 27.0282C66.1803 27.0282 66.5899 26.9774 66.7435 26.9774C66.8971 26.9774 67.3067 27.0282 67.7163 27.0282C67.7675 27.0282 67.8187 26.9774 67.8187 26.9774C67.8187 26.9774 67.8187 26.9267 67.7163 26.9267C67.6139 26.9267 67.5115 26.9267 67.4091 26.8759C67.2555 26.8252 67.2043 26.7237 67.1531 26.5714V22.4098C67.1531 22.1561 67.2043 22.0546 67.3579 22.0546C67.4091 22.0038 67.4603 22.0038 67.5115 22.0038C67.5627 22.0038 67.6139 21.9531 67.6139 21.9023C67.6139 21.8515 67.5627 21.8515 67.5115 21.8515C67.3067 21.8515 66.8971 21.9023 66.7435 21.9023C66.5899 21.9023 66.1803 21.8515 65.9243 21.8515C65.8219 21.8515 65.7706 21.9023 65.7706 21.9023C65.7706 21.9531 65.7706 22.0038 65.8731 22.0038C65.9755 22.0038 66.0267 22.0038 66.0779 22.0546C66.1803 22.1053 66.2827 22.1561 66.2827 22.4098V26.5714ZM69.4572 23.3741C69.6108 23.4756 70.2252 24.2876 70.942 25.0489C71.5564 25.7594 72.3756 26.6222 72.734 27.0282C72.7852 27.0789 72.8876 27.1804 72.9901 27.1804C73.0413 27.1804 73.0925 27.1297 73.0925 26.9774L73.1437 22.6636C73.1437 22.3083 73.1949 22.1561 73.3485 22.1053C73.3997 22.0546 73.4509 22.0546 73.5021 22.0546C73.5533 22.0546 73.6045 22.0038 73.6045 22.0038C73.6045 21.9531 73.5533 21.9531 73.4509 21.9531C73.1437 21.9531 72.9388 22.0038 72.8364 22.0038C72.734 22.0038 72.3756 21.9531 72.0684 21.9531C71.966 21.9531 71.9148 21.9531 71.9148 22.0038C71.9148 22.0546 71.9148 22.0546 72.0172 22.0546C72.0684 22.0546 72.222 22.0546 72.3244 22.1053C72.478 22.1561 72.5292 22.2576 72.5292 22.7143L72.5804 25.7594C72.478 25.6579 71.6588 24.6936 71.2492 24.1861C70.3788 23.1711 69.406 22.0546 69.3547 22.0038C69.2523 21.9023 69.2011 21.75 69.0987 21.75C69.0475 21.75 68.9963 21.8515 68.9963 22.0038L68.9451 26.0639C68.9451 26.6729 68.9451 26.8759 68.7915 26.8759C68.7403 26.9267 68.5867 26.9267 68.5355 26.9267C68.4843 26.9267 68.4331 26.9774 68.4331 26.9774C68.4331 27.0282 68.4843 27.0282 68.5867 27.0282C68.8939 27.0282 69.2011 26.9774 69.2523 26.9774C69.3547 26.9774 69.662 27.0282 70.0204 27.0282C70.0716 27.0282 70.174 26.9774 70.174 26.9774C70.174 26.9774 70.174 26.9267 70.0716 26.9267C69.9692 26.9267 69.8668 26.9267 69.7644 26.8759C69.662 26.8252 69.5596 26.6729 69.5596 26.1654L69.4572 23.3741ZM78.6243 25.8609V25.0489C78.6243 24.7951 78.6755 24.6936 78.8291 24.6936C78.8803 24.6429 78.9315 24.6429 78.9827 24.6429C79.0339 24.6429 79.1363 24.5921 79.1363 24.5414C79.1363 24.4906 79.0851 24.4906 79.0339 24.4906C78.8291 24.4906 78.5219 24.5414 78.3171 24.5414C78.1634 24.5414 77.7026 24.4906 77.3954 24.4906C77.3442 24.4906 77.293 24.4906 77.293 24.5414C77.293 24.5921 77.3442 24.5921 77.3954 24.5921C77.4466 24.5921 77.549 24.5921 77.6002 24.6429C77.805 24.6936 77.8562 24.7951 77.8562 24.9981V26.4192C77.8562 26.5207 77.8562 26.6222 77.7538 26.6729C77.6002 26.7237 77.4978 26.7237 77.3442 26.7237C76.013 26.7237 75.245 25.6579 75.245 24.1861C75.245 23.3233 75.4498 22.8158 75.8082 22.5113C76.2178 22.1561 76.6786 22.1053 76.9858 22.1053C77.6514 22.1053 78.1122 22.4098 78.3171 22.6128C78.4707 22.8158 78.5219 23.0188 78.5219 23.1711C78.5219 23.2218 78.5219 23.2726 78.5731 23.2726C78.6243 23.2726 78.6243 23.2218 78.6243 23.1203C78.6243 22.2576 78.6755 22.0546 78.6755 22.0038C78.6755 21.9531 78.6755 21.9531 78.6243 21.9023C78.4707 21.9023 78.2658 21.8515 78.1634 21.8515C78.061 21.8008 77.4978 21.75 77.0882 21.75C76.5762 21.75 76.013 21.8008 75.4498 22.2068C74.8866 22.5621 74.3745 23.3233 74.3745 24.4399C74.3745 26.3176 75.7058 27.1297 77.1906 27.1297C77.6514 27.1297 78.2658 27.0789 78.6755 26.8252C78.7096 26.7913 78.7267 26.7067 78.7267 26.5714L78.6243 25.8609Z" fill="white"/>
<path d="M45.1406 34.316C45.1406 34.722 45.1406 35.0265 45.0894 35.2295C45.0894 35.331 45.0382 35.4325 44.987 35.4325H44.8334C44.7992 35.4325 44.7822 35.4495 44.7822 35.4833C44.7822 35.534 44.8334 35.534 44.8334 35.534H46.011C46.0451 35.534 46.0622 35.5171 46.0622 35.4833C46.0622 35.4325 46.011 35.4325 46.011 35.4325H45.755C45.6526 35.4325 45.6014 35.3818 45.6014 35.2295V32.7427C45.6014 32.5905 45.6526 32.5397 45.755 32.5397H45.8574C45.8915 32.5397 45.9086 32.5228 45.9086 32.489C45.9086 32.4382 45.8574 32.4382 45.8574 32.4382H44.8334C44.7822 32.4382 44.731 32.4382 44.731 32.489C44.731 32.5397 44.7822 32.5397 44.7822 32.5397H44.9358C44.987 32.5905 45.0382 32.5905 45.0894 32.7427V33.6055L45.1406 34.316ZM49.5951 35.0773C49.5439 35.2295 49.5439 35.3818 49.4415 35.4325H49.3391C49.305 35.4325 49.2879 35.4495 49.2879 35.4833C49.2879 35.534 49.3391 35.534 49.3391 35.534H50.1583C50.2095 35.534 50.2607 35.534 50.2607 35.4833C50.2607 35.4325 50.2095 35.4325 50.2095 35.4325C50.1583 35.4325 50.1071 35.4325 50.0047 35.3818C49.9535 35.3818 49.9023 35.331 49.9023 35.2803V35.0773L50.1583 33.504C50.3119 33.8085 50.5679 34.316 50.5679 34.3668C50.6191 34.4683 50.9775 35.128 51.0799 35.331C51.1311 35.4325 51.1823 35.534 51.2335 35.534C51.2847 35.534 51.2847 35.4833 51.3871 35.331L52.3088 33.504L52.5648 35.2803C52.5648 35.3818 52.5648 35.4325 52.5136 35.4833C52.4624 35.4833 52.4624 35.534 52.4624 35.534C52.4624 35.5848 52.5136 35.5848 52.5648 35.5848C52.7184 35.5848 53.2816 35.6356 53.384 35.6356C53.4352 35.6356 53.4864 35.6356 53.4864 35.5848C53.4864 35.534 53.4352 35.534 53.4352 35.534C53.384 35.534 53.2816 35.534 53.1792 35.4833C53.0768 35.4325 53.0256 35.331 52.9744 35.0773L52.5648 32.5397C52.5648 32.489 52.5136 32.4382 52.5136 32.4382C52.4624 32.4382 52.4624 32.489 52.4624 32.5397L51.2847 34.8743L50.1583 32.489C50.1242 32.4213 50.09 32.3875 50.0559 32.3875C50.0047 32.3875 50.0047 32.4382 50.0047 32.489L49.5951 35.0773ZM57.0193 34.316C57.0193 34.722 57.0193 35.0265 56.9681 35.1788C56.9681 35.2803 56.9169 35.3818 56.8657 35.3818H56.7121C56.678 35.3818 56.6609 35.3987 56.6609 35.4325C56.6609 35.4833 56.7121 35.4833 56.7121 35.4833H57.9409C57.9751 35.4833 57.9921 35.4664 57.9921 35.4325C57.9921 35.3818 57.9409 35.3818 57.9409 35.3818H57.6849C57.5825 35.3818 57.5313 35.2803 57.5313 35.1788C57.4801 34.9758 57.4801 34.6713 57.4801 34.316V32.6412C57.4801 32.6074 57.4972 32.5905 57.5313 32.5905H57.6849C57.7361 32.5905 57.9409 32.6412 58.0945 32.7427C58.3505 32.9457 58.3505 33.2502 58.3505 33.3518C58.3505 33.7578 58.0433 34.0623 57.7873 34.0623C57.7361 34.0623 57.6849 34.0623 57.6849 34.113C57.6849 34.1638 57.7361 34.1638 57.7361 34.1638H57.7873C58.3505 34.1638 58.8114 33.7578 58.8114 33.1995C58.8114 32.9965 58.709 32.7935 58.6065 32.692C58.5553 32.6412 58.3505 32.489 57.8385 32.489H56.6097C56.5756 32.489 56.5585 32.5059 56.5585 32.5397C56.5585 32.5905 56.6097 32.5905 56.6097 32.5905H56.7633C56.8657 32.6243 56.934 32.692 56.9681 32.7935V34.4175H57.0193V34.316ZM63.8291 35.5848C64.9043 35.5848 65.5699 34.8235 65.5699 33.8593C65.5699 32.895 64.9043 32.286 63.8803 32.286C62.6003 32.286 62.1394 33.1995 62.1394 33.91C62.1394 34.6713 62.6003 35.5848 63.8291 35.5848ZM63.9827 35.331C63.1635 35.331 62.7027 34.6205 62.7027 33.7578C62.7027 32.7427 63.2659 32.4382 63.7267 32.4382C64.4435 32.4382 64.9555 32.9965 64.9555 33.91C64.9555 35.2295 64.2899 35.331 63.9827 35.331ZM69.2564 34.316C69.2564 34.722 69.2564 35.0265 69.2052 35.1788C69.2052 35.2803 69.154 35.3818 69.1028 35.3818H68.9492C68.9151 35.3818 68.898 35.3987 68.898 35.4325C68.898 35.4833 68.9492 35.4833 68.9492 35.4833H70.0757C70.1269 35.4833 70.1781 35.4833 70.1781 35.4325C70.1781 35.3818 70.1781 35.3818 70.1269 35.3818H69.9221C69.8197 35.3818 69.7685 35.2803 69.7685 35.1788C69.7173 34.9758 69.7173 34.6713 69.7173 34.316V34.2653C69.7173 34.2314 69.7343 34.2145 69.7685 34.2145H70.1269C70.161 34.2145 70.1781 34.2314 70.1781 34.2653C70.2293 34.316 70.3829 34.6205 70.5877 34.8235C70.8437 35.128 70.9973 35.331 71.1509 35.4325C71.2533 35.4833 71.4069 35.4833 71.6117 35.4833H72.0213C72.0725 35.4833 72.1237 35.4833 72.1237 35.4325C72.1237 35.3818 72.1237 35.3818 72.0725 35.3818H71.9701C71.8677 35.3818 71.7653 35.331 71.5093 35.128C71.3045 34.8743 70.9461 34.519 70.5877 34.0115C70.9973 33.6563 71.1509 33.4025 71.1509 33.098C71.1509 32.8442 70.9973 32.5905 70.8949 32.5397C70.6389 32.3875 70.3829 32.3367 70.1269 32.3367H69.0004C68.9663 32.3367 68.9492 32.3536 68.9492 32.3875C68.9492 32.4382 69.0004 32.4382 69.0004 32.4382H69.154C69.2564 32.4721 69.3247 32.5397 69.3588 32.6412V33.504L69.2564 34.316ZM69.7173 32.6412C69.7173 32.6074 69.7173 32.6074 69.7173 32.6412C69.8197 32.5905 69.8709 32.5905 69.9733 32.5905C70.2293 32.5905 70.6389 32.7427 70.6389 33.3518C70.6389 33.707 70.5365 33.91 70.4341 33.9608C70.3658 33.9946 70.2634 34.0115 70.1269 34.0115C70.0245 34.0115 69.9221 34.0115 69.8197 33.9608C69.7685 33.9608 69.7685 33.91 69.7685 33.91L69.7173 32.6412ZM75.6054 34.316C75.6054 34.722 75.6054 35.0265 75.5542 35.1788C75.5542 35.2803 75.503 35.3818 75.4518 35.3818H75.2982C75.2641 35.3818 75.247 35.3987 75.247 35.4325C75.247 35.4833 75.2982 35.4833 75.2982 35.4833H76.5271C76.5612 35.4833 76.5783 35.4664 76.5783 35.4325C76.5783 35.3818 76.5271 35.3818 76.5271 35.3818H76.3222C76.2198 35.3818 76.1686 35.2803 76.1686 35.1788C76.1174 34.9758 76.1174 34.6713 76.1174 34.316V32.5905H76.6295C77.0391 32.5905 77.1415 32.692 77.1415 32.7935V32.8442C77.1415 32.8781 77.1585 32.895 77.1927 32.895C77.2439 32.895 77.2439 32.8442 77.2439 32.8442V32.3367C77.2439 32.3029 77.2268 32.286 77.1927 32.286C77.1927 32.286 77.1415 32.286 77.0903 32.3367C76.9879 32.3367 76.9367 32.3875 76.7831 32.3875H75.1446C74.991 32.3875 74.8374 32.3875 74.735 32.3367C74.6326 32.3367 74.5814 32.286 74.5302 32.286C74.479 32.286 74.479 32.3367 74.479 32.3367C74.479 32.3367 74.3766 32.7427 74.3766 32.8442C74.3766 32.8781 74.3937 32.895 74.4278 32.895C74.4619 32.895 74.479 32.8781 74.479 32.8442C74.479 32.7935 74.5302 32.7935 74.5302 32.692C74.6326 32.6412 74.6838 32.5905 74.9398 32.5905H75.5542L75.6054 34.316ZM88.3566 34.316C88.3566 34.722 88.3566 35.0265 88.3054 35.1788C88.3054 35.2803 88.2542 35.3818 88.203 35.3818H88.0494C87.9982 35.3818 87.947 35.3818 87.947 35.4325C87.947 35.4833 87.9982 35.4833 88.0494 35.4833H89.7391C89.8927 35.4833 89.9439 35.4833 89.9439 35.3818C89.9951 35.331 89.9951 34.9758 89.9951 34.925C89.9951 34.8743 89.9951 34.8743 89.9439 34.8743C89.8927 34.8743 89.8927 34.8743 89.8927 34.925C89.8415 35.0773 89.7903 35.1788 89.6879 35.2295C89.5855 35.2803 89.4319 35.2803 89.2783 35.2803C88.8686 35.2803 88.7662 35.2295 88.7662 34.925V33.91C88.7662 33.8762 88.7833 33.8593 88.8174 33.8593H89.3807C89.5343 33.8593 89.5855 33.91 89.5855 34.0115V34.1638C89.5855 34.1976 89.6025 34.2145 89.6367 34.2145C89.6879 34.2145 89.6879 34.1638 89.6879 34.1638V33.91C89.6879 33.707 89.7391 33.6563 89.7391 33.6055C89.7391 33.5548 89.7391 33.5548 89.6879 33.5548C89.6367 33.5548 89.6367 33.6055 89.5855 33.6055C89.5343 33.6563 89.4831 33.6563 89.3807 33.6563H88.715C88.6809 33.6563 88.6638 33.6393 88.6638 33.6055V32.5397C88.6638 32.5059 88.6809 32.489 88.715 32.489H89.2783C89.4831 32.5397 89.5343 32.5397 89.5343 32.6412C89.5855 32.692 89.5855 32.7427 89.5855 32.7935C89.5855 32.8442 89.5855 32.8442 89.6367 32.8442C89.6879 32.8442 89.6879 32.7935 89.6879 32.7935C89.6879 32.7427 89.6879 32.5905 89.7391 32.5397C89.7391 32.3367 89.7903 32.3367 89.7903 32.286C89.7903 32.2352 89.7903 32.2352 89.7391 32.2352H89.6367C89.5855 32.2352 89.5343 32.2352 89.4319 32.286H87.7934C87.7251 32.286 87.691 32.3029 87.691 32.3367C87.691 32.3875 87.7422 32.3875 87.7934 32.3875H87.947C88.0494 32.4213 88.1177 32.489 88.1518 32.5905V33.4533L88.3566 34.316ZM95.6272 32.7935C95.7296 32.5905 95.832 32.489 95.9344 32.489C96.0368 32.489 96.0368 32.4382 96.088 32.4382C96.1392 32.4382 96.1904 32.4382 96.1904 32.3875C96.1904 32.3367 96.1392 32.3367 96.088 32.3367H95.2688C95.2347 32.3367 95.2176 32.3536 95.2176 32.3875C95.2176 32.4382 95.2688 32.4382 95.2688 32.4382H95.3712C95.4224 32.4382 95.4736 32.489 95.4736 32.489C95.4736 32.489 95.4736 32.5905 95.4224 32.6412C95.32 32.7427 94.9616 33.3518 94.8592 33.504C94.7056 33.2502 94.5008 32.9457 94.296 32.5905C94.2619 32.5567 94.2448 32.5228 94.2448 32.489C94.2448 32.4551 94.2619 32.4382 94.296 32.4382H94.3984C94.3984 32.4382 94.5008 32.4382 94.5008 32.3875C94.5008 32.3367 94.4496 32.3367 94.3984 32.3367H93.272C93.2208 32.3367 93.1696 32.3367 93.1696 32.3875C93.1696 32.4382 93.1696 32.4382 93.2208 32.4382C93.272 32.4382 93.3232 32.4382 93.4256 32.489C93.5792 32.5397 93.6304 32.6412 93.784 32.7935L94.5008 33.9608L93.6816 35.128C93.528 35.331 93.4768 35.3818 93.3232 35.4325C93.2208 35.4325 93.2208 35.4833 93.1696 35.4833C93.1184 35.4833 93.0672 35.4833 93.0672 35.534C93.0672 35.5848 93.1184 35.5848 93.1696 35.5848H94.1424C94.1936 35.5848 94.2448 35.5848 94.2448 35.534C94.2448 35.4833 94.1936 35.4833 94.1936 35.4833H94.0912C94.04 35.4833 93.9888 35.4325 93.9888 35.4325C93.9888 35.4325 93.9888 35.331 94.0912 35.2295L94.7056 34.2653C94.9104 34.5698 95.1152 34.9758 95.3712 35.4325C95.4224 35.4833 95.3712 35.4833 95.3712 35.534C95.32 35.534 95.2688 35.5848 95.2688 35.5848C95.2688 35.6356 95.32 35.6356 95.4224 35.6356H96.2928C96.344 35.6356 96.3952 35.6356 96.3952 35.5848C96.3952 35.534 96.344 35.534 96.344 35.534C96.2928 35.534 96.2416 35.534 96.1904 35.4833C96.088 35.4325 96.0368 35.4325 95.9856 35.2803C95.8832 35.1788 95.2176 34.0115 95.064 33.8085L95.6272 32.7935ZM99.6721 34.316C99.6721 34.722 99.6721 35.0265 99.6209 35.1788C99.6209 35.2803 99.5697 35.3818 99.5185 35.3818H99.3649C99.3137 35.3818 99.2625 35.3818 99.2625 35.4325C99.2625 35.4833 99.3137 35.4833 99.3649 35.4833H100.543C100.577 35.4833 100.594 35.4664 100.594 35.4325C100.594 35.3818 100.543 35.3818 100.543 35.3818H100.338C100.235 35.3818 100.184 35.2803 100.184 35.1788C100.133 34.9758 100.133 34.6713 100.133 34.316V32.6412C100.133 32.6074 100.15 32.5905 100.184 32.5905H100.338C100.389 32.5905 100.594 32.6412 100.747 32.7427C100.952 32.9457 100.952 33.2502 100.952 33.3518C100.952 33.7578 100.645 34.0623 100.389 34.0623C100.338 34.0623 100.287 34.0623 100.287 34.113C100.287 34.1638 100.338 34.1638 100.338 34.1638H100.389C100.952 34.1638 101.413 33.7578 101.413 33.1995C101.413 32.9965 101.311 32.7935 101.208 32.692C101.106 32.6412 100.952 32.489 100.44 32.489H99.2113C99.1772 32.489 99.1601 32.5059 99.1601 32.5397C99.1601 32.5905 99.2113 32.5905 99.2113 32.5905H99.3649C99.4673 32.6243 99.5356 32.692 99.5697 32.7935V34.4175H99.6721V34.316ZM106.482 35.5848C107.557 35.5848 108.223 34.8235 108.223 33.8593C108.223 32.895 107.557 32.286 106.533 32.286C105.253 32.286 104.792 33.1995 104.792 33.91C104.843 34.6713 105.304 35.5848 106.482 35.5848ZM106.687 35.331C105.868 35.331 105.407 34.6205 105.407 33.7578C105.407 32.7427 105.97 32.4382 106.431 32.4382C107.096 32.4382 107.66 32.9965 107.66 33.91C107.66 35.2295 106.994 35.331 106.687 35.331ZM111.96 34.316C111.96 34.722 111.96 35.0265 111.909 35.1788C111.909 35.2803 111.858 35.3818 111.807 35.3818H111.653C111.619 35.3818 111.602 35.3987 111.602 35.4325C111.602 35.4833 111.653 35.4833 111.653 35.4833H112.78C112.814 35.4833 112.831 35.4664 112.831 35.4325C112.831 35.3987 112.814 35.3818 112.78 35.3818H112.575C112.473 35.3818 112.421 35.2803 112.421 35.1788C112.37 34.9758 112.37 34.6713 112.37 34.316V34.2653C112.37 34.2314 112.387 34.2145 112.421 34.2145H112.78C112.814 34.2145 112.848 34.2314 112.882 34.2653C112.933 34.316 113.087 34.6205 113.292 34.8235C113.497 35.128 113.701 35.331 113.855 35.4325C113.957 35.4833 114.06 35.4833 114.316 35.4833H114.725C114.777 35.4833 114.828 35.4833 114.828 35.4325C114.828 35.3818 114.828 35.3818 114.777 35.3818H114.674C114.623 35.3818 114.469 35.331 114.213 35.128C113.957 34.8743 113.65 34.4683 113.292 34.0115C113.701 33.6563 113.804 33.4025 113.804 33.098C113.804 32.8442 113.65 32.5905 113.548 32.5397C113.343 32.3875 113.036 32.3367 112.78 32.3367H111.653C111.585 32.3367 111.551 32.3536 111.551 32.3875C111.551 32.4382 111.602 32.4382 111.653 32.4382H111.807C111.909 32.4721 111.978 32.5397 112.012 32.6412V33.504L111.96 34.316ZM112.421 32.6412C112.421 32.6074 112.438 32.5905 112.473 32.5905H112.677C112.882 32.5905 113.343 32.7427 113.343 33.3518C113.343 33.707 113.241 33.91 113.138 33.9608C113.087 34.0115 113.036 34.0115 112.831 34.0115C112.729 34.0115 112.626 34.0115 112.524 33.9608C112.473 33.9608 112.473 33.91 112.473 33.91L112.421 32.6412ZM118.309 34.316C118.309 34.722 118.309 35.0265 118.258 35.1788C118.258 35.2803 118.207 35.3818 118.156 35.3818H118.002C117.951 35.3818 117.9 35.3818 117.9 35.4325C117.9 35.4833 117.951 35.4833 118.002 35.4833H119.231C119.282 35.4833 119.333 35.4833 119.333 35.4325C119.333 35.3818 119.282 35.3818 119.231 35.3818H119.026C118.924 35.3818 118.873 35.2803 118.873 35.1788C118.821 34.9758 118.821 34.6713 118.821 34.316V32.5905H119.385C119.794 32.5905 119.897 32.692 119.897 32.7935V32.8442C119.897 32.8781 119.914 32.895 119.948 32.895C119.999 32.895 119.999 32.8442 119.999 32.8442V32.3367C119.999 32.3029 119.982 32.286 119.948 32.286C119.948 32.286 119.897 32.286 119.846 32.3367C119.794 32.3367 119.692 32.3875 119.538 32.3875H117.951C117.797 32.3875 117.644 32.3875 117.541 32.3367C117.439 32.3367 117.388 32.286 117.337 32.286C117.285 32.286 117.285 32.3367 117.285 32.3367C117.285 32.3367 117.183 32.7427 117.183 32.8442C117.183 32.8781 117.2 32.895 117.234 32.895C117.268 32.895 117.285 32.8781 117.285 32.8442C117.285 32.7935 117.337 32.7935 117.388 32.692C117.439 32.6412 117.541 32.5905 117.797 32.5905H118.412V34.316" fill="white"/>
<path d="M19.2005 30.3896C18.2361 30.4242 17.358 30.5236 16.5864 30.686C16.6708 30.7977 16.7612 30.9033 16.8476 31.0088C16.9863 31.1753 17.1169 31.3336 17.2254 31.494C18.1698 32.5029 19.0358 33.2987 19.8716 33.926V30.4506C19.6466 30.4465 19.4236 30.4242 19.2005 30.3896Z" fill="white"/>
<path d="M9.27051 26.2158C10.0361 27.6348 10.8719 28.7797 11.8907 29.8089C12.4091 30.3307 12.8853 30.7712 13.4318 31.2259C14.1551 30.9133 14.9548 30.6778 15.9153 30.4322C14.7981 28.936 13.9281 27.1983 13.3273 25.2637C12.0213 25.4809 10.7252 25.7854 9.27051 26.2158Z" fill="white"/>
<path d="M21.4288 11.5914C21.68 11.4899 21.7302 11.4392 21.9814 11.3377C22.8856 10.7794 23.187 10.4241 23.84 9.61213C23.9907 9.40912 23.9405 9.45988 24.2419 9.45988C24.3725 9.45988 24.5895 9.58371 24.8085 9.74205C24.4408 9.08635 24.043 8.47124 23.6109 7.90283C22.5661 8.12614 21.4208 8.23779 20.1147 8.24388V11.7944C20.5568 11.7944 20.9988 11.7193 21.4288 11.5914Z" fill="white"/>
<path d="M26.8037 11.8451L27.4487 12.7972C28.6603 12.5699 29.671 12.3181 30.6174 12.0075C29.8016 10.4931 28.9657 9.34817 27.9973 8.41232C27.519 7.92917 27.0006 7.45211 26.4923 7.02783C26.1969 7.14963 25.8855 7.26332 25.5539 7.37091C25.0958 7.52925 24.5794 7.66933 23.9746 7.79722C24.5633 8.58488 25.0797 9.44359 25.5278 10.3591C25.6464 10.4931 25.6584 10.5906 25.7991 10.7306C26.2009 11.1366 26.4019 11.3904 26.8037 11.8472V11.8451Z" fill="white"/>
<path d="M19.4699 26.2096C19.1685 26.4126 18.7164 26.4634 18.3648 26.5649L17.5108 26.7679C16.5564 26.9709 15.3006 27.0724 14.4969 26.3619C14.2959 26.1589 14.2457 26.1081 14.095 25.8036C14.0186 25.6026 13.9684 25.3915 13.9423 25.1783C13.8358 25.1946 13.7293 25.2068 13.6228 25.223C14.2075 27.0866 15.0996 28.8162 16.2771 30.3671C16.8558 30.2433 17.4666 30.156 18.1156 30.0992C17.772 29.9814 17.3501 29.6465 17.111 29.3562C16.8598 29.0517 16.8598 28.8994 16.8598 28.5442C16.8598 28.3919 17.0607 28.2904 17.111 28.2397C17.5128 27.9351 17.8645 27.8844 18.2161 27.6814C18.4673 27.5799 18.7686 27.5291 19.0198 27.3769C19.2207 27.3261 19.3212 27.2754 19.4719 27.2754C19.6266 27.2185 19.713 27.1779 19.7733 27.1536V24.7886C19.707 24.7886 19.6387 24.7886 19.5724 24.7886C19.6327 24.9266 19.6728 25.0911 19.6728 25.2981C19.6728 25.9071 19.7733 26.0594 19.4719 26.2116L19.4699 26.2096Z" fill="white"/>
<path d="M13.3795 7.09277C12.8571 7.48254 12.3267 7.97178 11.8424 8.50974C10.7473 9.66687 9.86727 10.8747 9.21826 12.1029C10.4801 12.444 11.5892 12.6998 12.6421 12.8946C13.0159 12.3546 13.4217 11.8126 13.7915 11.4391C13.8316 11.3579 13.8738 11.3396 13.9401 11.2848C14.4827 10.0323 15.1236 8.87921 15.8631 7.84795C14.8825 7.6348 14.0306 7.33841 13.3795 7.09277Z" fill="white"/>
<path d="M30.7823 25.8909C31.777 23.8953 32.3134 21.6663 32.3777 19.2607L28.5982 19.2993C28.4757 19.4475 28.345 19.5856 28.2104 19.7155C28.0597 19.8677 28.0095 19.9692 27.8588 20.1215C27.7463 20.2534 27.6277 20.3813 27.5052 20.5072C27.4067 22.0784 27.1334 23.5604 26.6833 24.9286C28.0758 25.1621 29.4542 25.4869 30.7803 25.8929L30.7823 25.8909Z" fill="white"/>
<path d="M14.1932 23.7738C14.2937 23.2156 14.4444 23.4186 14.4444 22.7588C14.4444 22.3528 13.3895 21.3885 13.2388 21.1855L12.7305 20.6191C12.835 22.1356 13.1062 23.5647 13.5442 24.8863C13.6668 24.868 13.7914 24.8498 13.918 24.8315C13.922 24.462 14.0064 24.0966 14.1932 23.7738Z" fill="white"/>
<path d="M10.7775 16.2121L11.983 13.8775C12.1116 13.6847 12.2523 13.4715 12.401 13.2502C11.2798 13.033 10.1747 12.761 9.10369 12.4321C8.10909 14.4277 7.5726 16.6567 7.5083 19.0623L11.3923 19.0237C10.7975 18.1995 10.464 17.2068 10.7795 16.2121H10.7775Z" fill="white"/>
<path d="M11.9328 19.6628C11.8364 19.5654 11.7439 19.4639 11.6555 19.3604H7.5083C7.57863 21.766 8.10909 23.9848 9.08561 25.958C10.4941 25.4688 11.9207 25.1866 13.1545 24.9755C12.6722 23.3433 12.3889 21.7254 12.3106 20.1521L12.2362 20.0688C12.1357 19.9166 12.0353 19.8658 11.9348 19.6628H11.9328Z" fill="white"/>
<path d="M30.7359 12.2837C29.7875 12.6227 28.7749 12.8968 27.6677 13.118L28.6643 14.5878L28.7648 14.7908C29.016 15.1968 29.3174 15.7551 29.4178 16.2626C29.7092 17.1842 29.4178 18.1302 28.8914 18.9118H32.3313C32.3133 16.5813 31.7627 14.2955 30.7359 12.2837Z" fill="white"/>
<path d="M16.6065 9.81536C16.7572 9.96762 16.8074 10.0691 17.0084 10.2214C17.4605 10.6781 18.214 11.2871 18.8168 11.5409C19.1302 11.6708 19.4497 11.7459 19.7712 11.7764V8.28471C19.5321 8.26644 19.299 8.24817 19.0699 8.22787C18.0914 8.19133 17.2033 8.08983 16.4197 7.92133C16.3714 7.91321 16.3252 7.90509 16.277 7.89697C15.636 8.74147 15.0815 9.64078 14.6133 10.5848L15.2 9.96559C16.0037 9.25507 16.1544 9.35657 16.6065 9.81333V9.81536Z" fill="white"/>
<path d="M20.1147 27.1902C20.179 27.2126 20.2614 27.241 20.3739 27.2755L21.6298 27.6815C22.0316 27.8845 22.3833 27.9353 22.7851 28.2398C23.3377 28.6458 22.6847 29.4578 22.0316 29.8638C21.8829 29.9592 21.7302 30.0404 21.5735 30.1094C22.2768 30.1764 22.9539 30.2576 23.6069 30.3693C24.6719 28.9665 25.4997 27.4196 26.0824 25.7591C26.0302 25.8809 25.9719 26.0006 25.8996 26.1062C25.1461 27.172 23.3377 26.969 22.2326 26.7152C22.0819 26.6645 22.0316 26.6645 21.8307 26.6137C21.6298 26.563 21.5795 26.563 21.4288 26.5122C21.2279 26.4615 20.8763 26.4107 20.6753 26.2585C20.5749 26.1569 20.4744 26.1569 20.4744 25.9539C20.4744 25.2658 20.5005 24.9613 20.6512 24.7339C20.4724 24.7339 20.2936 24.7339 20.1147 24.7359V27.1882V27.1902Z" fill="white"/>
<path d="M22.9901 7.20057C22.8936 7.09095 22.8012 6.98539 22.7128 6.87983C21.7905 5.89323 20.9386 5.1076 20.1147 4.48438V7.99838C21.3485 7.99229 22.4516 7.88673 23.398 7.68779C23.2674 7.51929 23.1267 7.35892 22.9881 7.2026L22.9901 7.20057Z" fill="white"/>
<path d="M17.1188 6.88396C16.8375 7.16817 16.6326 7.41989 16.4658 7.68177C17.2957 7.81778 18.1577 7.90507 19.0819 7.98222C19.307 7.99034 19.536 7.9944 19.7691 7.99643V4.44385C18.869 5.08534 17.9768 5.90548 17.1188 6.88193V6.88396Z" fill="white"/>
<path d="M20.2153 33.8876C21.226 33.1141 22.078 32.3285 22.8154 31.4901C23.0244 31.279 23.2052 31.0475 23.382 30.8242C23.4182 30.7775 23.4543 30.7309 23.4905 30.6862C22.6707 30.5136 21.7344 30.4121 20.6996 30.3857C20.5388 30.4162 20.3781 30.4345 20.2153 30.4446V33.8896V33.8876Z" fill="white"/>
<path d="M12.1057 32.2026H11.6074L12.0514 31.9691C12.0856 31.9508 12.1137 31.9346 12.1378 31.9184C12.178 31.892 12.2182 31.8676 12.2624 31.8595C12.5256 31.6849 12.821 31.5509 13.1103 31.4352C12.6181 31.0556 12.1278 30.5988 11.7119 30.1319C10.6308 29.0418 9.72867 27.7811 9.02742 26.3926C8.44874 26.5915 7.86403 26.8209 7.34362 27.0239L7.31348 27.0361L7.40992 28.9017C7.51039 29.7137 7.66109 30.678 8.21365 31.2363C8.61551 31.6423 9.01737 31.7945 9.56993 31.9975C10.0723 32.099 11.3281 32.302 11.7802 32.2513C11.8827 32.2411 12.0052 32.2391 12.1419 32.2432L12.1157 32.2168L12.1017 32.2026H12.1057Z" fill="white"/>
<path d="M7.21101 19.3096H4.2975V19.135H4.31961V19.0112H7.16278C7.18087 16.6401 7.72137 14.3664 8.77023 12.2511C8.37641 12.1151 7.99464 11.9649 7.62493 11.8207C7.47021 11.7598 7.31549 11.701 7.16278 11.6421C7.12461 12.241 7.0804 12.9535 7.01209 13.2661C6.91162 13.6721 6.81115 14.0274 6.61022 14.4334C6.50976 14.6364 6.35906 14.8394 6.20836 15.0424C5.8065 15.6007 5.30417 16.1589 4.75161 16.7172C4.39998 17.0725 4.14882 17.4785 3.84742 17.8845C3.69672 18.2397 3.44556 18.798 3.44556 19.3055C3.44556 19.9653 3.64649 20.5235 3.94788 21.031C4.04835 21.1833 4.04835 21.2341 4.14882 21.3356L6.55999 24.2284C7.2311 25.1317 7.18489 25.7956 7.2733 26.6462C7.75352 26.4472 8.27192 26.2686 8.78631 26.094C7.75352 23.9198 7.22306 21.636 7.21302 19.3075L7.21101 19.3096Z" fill="white"/>
<path d="M11.6153 8.18688C12.0614 7.69155 12.5497 7.27336 13.0199 6.88765C12.8571 6.82066 12.7124 6.75367 12.5738 6.68262C12.4954 6.6948 12.4151 6.70495 12.3347 6.71713C11.7821 6.81863 10.9282 6.71713 10.3756 6.81863C10.2249 6.86938 10.1244 6.92013 9.97374 6.92013L9.11978 7.12314C8.56722 7.32614 7.96443 7.73215 7.71326 8.29041C7.3114 9.10243 7.3114 10.016 7.21094 10.9295C7.2029 11.0269 7.19285 11.1487 7.18481 11.2847C7.73135 11.5182 8.33615 11.7273 8.93292 11.9283C9.67837 10.5397 10.5806 9.28108 11.6174 8.18688H11.6153Z" fill="white"/>
<path d="M25.8493 22.3019C25.2967 23.0125 25.7991 23.3677 26 23.723C26.1969 24.0721 26.2853 24.4964 26.2693 24.9146C26.3094 24.9207 26.3476 24.9268 26.3878 24.9329C26.7997 23.5484 27.0649 22.172 27.1835 20.8281C26.7414 21.2626 26.2753 21.7051 25.8493 22.3019Z" fill="white"/>
<path d="M18.9875 4.13918H20.8461C20.9627 4.13918 21.0772 4.15542 21.1777 4.1676C21.26 4.17775 21.3364 4.18993 21.3987 4.18993L21.4288 4.19399C21.9975 4.34422 22.552 4.53301 23.0905 4.74617C22.5279 4.22039 21.9673 3.68648 21.3766 3.31905C21.1254 3.16679 20.9747 3.06529 20.6733 2.91304C19.7691 2.50703 18.9152 2.81153 18.1617 3.26829C17.7598 3.52205 17.358 3.82656 17.0063 4.18181L15.9856 5.10548C16.7712 4.73602 17.581 4.42745 18.4008 4.19602C18.6198 4.14121 18.8308 4.14121 18.9855 4.14121L18.9875 4.13918Z" fill="white"/>
<path d="M32.673 19.0114H35.691V19.3585H32.7273C32.7092 21.7296 32.1687 24.0032 31.1198 26.1186C31.5136 26.2546 31.8954 26.4048 32.2671 26.5489C32.3636 26.5875 32.46 26.624 32.5565 26.6606C32.5725 26.5063 32.5846 26.352 32.5846 26.2079C32.6851 25.2944 33.1372 24.4316 33.6897 23.7211L34.8953 22.3508C35.7995 21.2343 36.7037 20.1177 36.1511 18.646C36.0004 18.1892 35.699 17.7324 35.3976 17.3772C35.2972 17.2757 35.2469 17.2249 35.1465 17.0727L34.6441 16.5144L34.5939 16.4637L33.8907 15.7024C33.4386 15.0934 32.9362 14.5859 32.6851 13.8246C32.4661 13.1588 32.4379 12.4543 32.3997 11.7783C31.9677 11.9448 31.5177 12.1011 31.0696 12.2534C32.0702 14.2753 32.6107 16.5489 32.675 19.0114H32.673Z" fill="white"/>
<path d="M28.2224 8.1911C29.3557 9.39085 30.2578 10.6475 30.9068 11.9304C31.3067 11.7924 31.6965 11.6401 32.0763 11.492C32.1747 11.4534 32.2732 11.4148 32.3696 11.3783L32.1305 9.10665C32.0803 8.90364 32.0803 8.85289 32.03 8.75139C31.9966 8.61605 31.9463 8.48072 31.8793 8.34538C31.5277 7.58411 30.8245 7.22886 30.1212 6.9751C29.3637 6.76195 28.2787 6.78631 27.2177 6.71729C27.0891 6.77819 26.9565 6.83503 26.8259 6.88781C27.3182 7.26743 27.8085 7.72419 28.2244 8.1911H28.2224Z" fill="white"/>
<path d="M23.9145 30.7935C23.6754 31.1223 23.3861 31.4634 23.0947 31.7598C22.3151 32.6449 21.4551 33.4244 20.5369 34.074L20.9227 33.9887C22.9119 33.5482 24.7785 32.6895 26.3357 31.4999C25.6566 31.2177 24.879 30.9924 23.9165 30.7935H23.9145Z" fill="white"/>
<path d="M25.1962 6.3132C24.7542 6.13049 24.3322 5.83411 23.9203 5.49103C22.9036 4.98961 21.8688 4.61608 20.82 4.38466L20.4221 4.29736C21.3404 4.99164 22.2064 5.77118 22.994 6.6177C23.1889 6.81462 23.3617 7.03183 23.5466 7.26123C23.631 7.36679 23.7154 7.47438 23.8058 7.58198C24.4146 7.45002 24.9692 7.30386 25.4775 7.13943C25.7327 7.0501 25.9698 6.95672 26.1929 6.85319C26.0201 6.72936 25.8453 6.61364 25.6724 6.49793C25.5258 6.45936 25.3831 6.41673 25.2465 6.36598C25.2465 6.36598 25.1962 6.36598 25.1962 6.31523V6.3132Z" fill="white"/>
<path d="M26.5045 31.23C27.0269 30.8402 27.5574 30.351 28.0416 29.813C29.1367 28.6539 30.0188 27.444 30.6678 26.2158C29.4381 25.8544 28.1421 25.5662 26.607 25.3145C25.958 27.2511 25.0899 28.9848 24.021 30.4748C25.0015 30.688 25.8535 30.9844 26.5045 31.23Z" fill="white"/>
<path d="M31.0033 26.4414C30.2579 27.83 29.3537 29.0886 28.3189 30.1828C27.9713 30.534 27.6036 30.8588 27.2459 31.1734C27.1294 31.2749 27.0149 31.3764 26.9023 31.4779C27.2419 31.618 27.5071 31.7581 27.7885 31.9205L27.8146 31.9408C27.8467 31.9733 27.913 32.0037 27.9331 32.0058H28.2285L28.0316 32.2006H28.0597C28.8132 32.1479 29.6169 32.1479 30.3704 31.9449C30.5211 31.8941 30.5713 31.8941 30.722 31.8434C32.2793 31.2851 32.3295 29.3566 32.43 27.9355C32.4802 27.6818 32.43 27.5295 32.4802 27.1743C32.4902 27.1134 32.5003 27.0484 32.5103 26.9834C32.0281 26.7906 31.5117 26.614 31.0033 26.4414Z" fill="white"/>
<path d="M16.8899 31.7581C16.6025 31.4678 16.3574 31.1288 16.1223 30.7959C15.2342 30.9786 14.4626 31.206 13.7131 31.5024C15.4452 32.7427 17.2616 33.5791 19.1142 33.9912L19.4397 34.0643C18.5274 33.3741 17.6715 32.6006 16.8899 31.7602V31.7581Z" fill="white"/>
<path d="M26.633 31.6668C25.1019 32.8016 23.3397 33.6684 21.5334 34.1759C21.3144 34.2308 21.1034 34.2308 20.9487 34.2308H19.0901C18.9735 34.2308 18.859 34.2145 18.7585 34.2023C18.6761 34.1922 18.5998 34.18 18.5375 34.18L18.5074 34.1759C16.5985 33.6684 14.8323 32.7975 13.3916 31.6587C13.0641 31.7846 12.7266 31.9287 12.4352 32.1215C12.383 32.1743 12.3227 32.2291 12.2463 32.2433C12.8371 32.2677 13.6187 32.3854 14.0447 32.5012C14.5972 32.6027 14.9991 32.9072 15.4512 33.2117C16.3554 33.8714 17.0084 34.785 17.9126 35.394L18.867 35.9522C19.5703 36.2567 20.4242 36.2567 21.0773 35.9015L21.9815 35.3432C22.6847 34.8357 23.187 34.1252 23.8903 33.6177C24.4429 33.1102 25.0959 32.7042 25.7991 32.5012C25.9498 32.3997 26.1005 32.4504 26.2512 32.3997C26.5024 32.3489 26.3517 32.3489 26.6531 32.2982L27.6638 32.2251C27.6457 32.2129 27.6296 32.1987 27.6095 32.1784C27.282 32.0342 26.9525 31.8475 26.633 31.6628V31.6668Z" fill="white"/>
<path d="M14.5228 6.23642C14.2073 6.43739 13.8979 6.64649 13.6025 6.87182C14.2817 7.154 15.0593 7.37933 16.0218 7.57828C16.2287 7.29204 16.4658 7.0058 16.6748 6.75205L16.7833 6.6201C17.5629 5.73297 18.4168 4.95952 19.3251 4.31396L19.0116 4.38299C17.6453 4.68546 16.3392 5.19094 15.1477 5.85883L15.0955 5.90552C14.9066 6.04153 14.7137 6.14709 14.5188 6.23439L14.5228 6.23642Z" fill="white"/>
<path d="M15.9836 14.7217C15.5315 14.6709 13.9743 14.7724 13.7231 14.9247L14.0245 15.5337C14.0245 15.5337 14.0245 15.5845 14.0748 15.5845C14.3259 15.9397 14.6776 15.9905 15.1297 16.1935C15.3306 16.2442 16.8376 16.9547 16.938 16.904C17.139 16.8532 17.0887 16.9547 17.1892 16.3965C17.3901 15.0262 17.2897 14.7217 15.9836 14.7217Z" fill="white"/>
<path d="M22.8212 14.7787C22.7208 14.931 22.5701 15.1848 22.5701 15.54C22.5701 15.946 22.6203 16.6058 22.8212 16.9103C23.2231 16.8088 24.1775 16.352 24.6798 16.149C24.931 16.0475 25.4333 15.8953 25.584 15.743C25.7347 15.5908 25.9859 15.1848 25.9859 14.8295C25.6845 14.8295 25.2324 14.728 24.931 14.728C24.5291 14.6772 23.2231 14.6265 22.8212 14.7787Z" fill="white"/>
<path d="M19.8133 21.7905L18.8589 21.8271C18.7584 21.8778 18.658 21.8778 18.5575 21.9286C18.3063 21.9793 17.4524 22.2331 17.4524 22.5376C17.4524 23.0451 18.658 23.8571 19.0096 24.1109C19.0819 24.1555 19.1724 24.2103 19.2628 24.2814C19.4456 24.2773 19.6285 24.2753 19.8113 24.2733V21.7905H19.8133Z" fill="white"/>
<path d="M20.9507 24.4053C21.1094 24.2774 21.3264 24.1332 21.6238 23.9079C21.9754 23.6542 22.7791 23.1466 22.7791 22.5884C22.7791 22.4869 22.3773 22.2839 22.327 22.1824C21.7865 21.884 20.8602 21.7804 20.2092 21.7764V24.3769C20.4564 24.3829 20.7035 24.3931 20.9507 24.4032V24.4053Z" fill="white"/>
<path d="M13.1946 5.50949C14.221 5.50949 15.0532 4.66877 15.0532 3.6317C15.0532 2.59462 14.221 1.75391 13.1946 1.75391C12.1681 1.75391 11.3359 2.59462 11.3359 3.6317C11.3359 4.66877 12.1681 5.50949 13.1946 5.50949Z" fill="white"/>
<path d="M26.5043 5.50949C27.5089 5.50949 28.3629 4.64672 28.3629 3.6317C28.3629 2.61668 27.5592 1.75391 26.5043 1.75391C25.4494 1.75391 24.5954 2.56592 24.6457 3.6317C24.6457 4.64672 25.4996 5.50949 26.5043 5.50949Z" fill="white"/>
<path d="M13.1946 38.4289C14.221 38.4289 15.0532 37.5882 15.0532 36.5511C15.0532 35.5141 14.221 34.6733 13.1946 34.6733C12.1681 34.6733 11.3359 35.5141 11.3359 36.5511C11.3359 37.5882 12.1681 38.4289 13.1946 38.4289Z" fill="white"/>
<path d="M26.5044 38.4289C27.5308 38.4289 28.363 37.5882 28.363 36.5511C28.363 35.5141 27.5308 34.6733 26.5044 34.6733C25.4779 34.6733 24.6458 35.5141 24.6458 36.5511C24.6458 37.5882 25.4779 38.4289 26.5044 38.4289Z" fill="white"/>
<path d="M3.69064 15.1931C4.6953 15.1931 5.54926 14.3303 5.54926 13.3153C5.54926 12.3003 4.74553 11.4375 3.69064 11.4375C2.63576 11.4375 1.88226 12.2495 1.83203 13.3153C1.83203 14.3303 2.68599 15.1931 3.69064 15.1931Z" fill="white"/>
<path d="M36.2155 11.4375C35.1606 11.4375 34.3066 12.2495 34.3568 13.3153C34.3568 14.3303 35.2108 15.1931 36.2155 15.1931C37.2201 15.1931 38.0741 14.3303 38.0741 13.3153C38.0741 12.3003 37.2703 11.4375 36.2155 11.4375Z" fill="white"/>
<path d="M3.69064 24.8413C2.68599 24.8413 1.88226 25.7041 1.83203 26.7191C1.83203 27.7341 2.68599 28.5969 3.69064 28.5969C4.6953 28.5969 5.54926 27.7341 5.54926 26.7191C5.54926 25.7041 4.74553 24.8413 3.69064 24.8413Z" fill="white"/>
<path d="M36.2152 24.8413C35.1603 24.8413 34.3064 25.7041 34.3566 26.7191C34.3566 27.7341 35.2106 28.5969 36.2152 28.5969C37.2199 28.5969 38.0738 27.7341 38.0738 26.7191C38.0738 25.7041 37.2701 24.8413 36.2152 24.8413Z" fill="white"/>
<path d="M6.30864 7.04847C6.71051 7.04847 7.0119 6.74397 7.0119 6.33796C7.0119 5.93195 6.71051 5.62744 6.30864 5.62744C5.90678 5.62744 5.55515 5.9827 5.60538 6.33796C5.60538 6.74397 5.90678 7.04847 6.30864 7.04847Z" fill="white"/>
<path d="M33.2879 7.04847C33.6898 7.04847 33.9912 6.74397 33.9912 6.33796C33.9912 5.93195 33.6898 5.62744 33.2879 5.62744C32.886 5.62744 32.5344 5.9827 32.5846 6.33796C32.5846 6.74397 32.886 7.04847 33.2879 7.04847Z" fill="white"/>
<path d="M6.30864 33.0352C5.90678 33.0352 5.55515 33.3397 5.60538 33.7457C5.60538 34.1517 5.90678 34.4562 6.30864 34.4562C6.71051 34.4562 7.0119 34.1517 7.0119 33.7457C7.0119 33.3397 6.71051 33.0352 6.30864 33.0352Z" fill="white"/>
<path d="M33.2879 33.0352C32.886 33.0352 32.5344 33.3397 32.5846 33.7457C32.5846 34.1517 32.886 34.4562 33.2879 34.4562C33.6898 34.4562 33.9912 34.1517 33.9912 33.7457C33.9912 33.3397 33.6898 33.0352 33.2879 33.0352Z" fill="white"/>
<path d="M0.708717 19.3301C0.256622 19.3301 -0.0447751 19.6346 0.00545765 20.0406C0.00545765 20.4466 0.306854 20.7511 0.708717 20.7511C1.11058 20.7511 1.41198 20.4466 1.41198 20.0406C1.41198 19.6346 1.11058 19.3301 0.708717 19.3301Z" fill="white"/>
<path d="M38.8375 19.3301C38.4859 19.3301 38.1343 19.6346 38.1343 20.0406C38.1343 20.4466 38.4357 20.7511 38.8375 20.7511C39.2394 20.7511 39.5408 20.4466 39.5408 20.0406C39.5408 19.6346 39.2394 19.3301 38.8375 19.3301Z" fill="white"/>
<path d="M19.757 38.5791C19.3551 38.5791 19.0537 38.8836 19.0537 39.2896C19.0537 39.6956 19.4053 40.0001 19.757 40.0001C20.1588 40.0001 20.4602 39.6956 20.4602 39.2896C20.4602 38.8836 20.1588 38.5791 19.757 38.5791Z" fill="white"/>
<path d="M19.757 1.42103C20.1588 1.42103 20.4602 1.11652 20.4602 0.710516C20.4602 0.304507 20.1588 0 19.757 0C19.3551 0 19.0537 0.304507 19.0537 0.710516C19.0537 1.11652 19.4053 1.42103 19.757 1.42103Z" fill="white"/>
</g>
<defs>
<clipPath id="clip0_123_333">
<rect width="120" height="40" fill="white"/>
</clipPath>
</defs>
</svg>
